<?xml version="1.0" encoding="UTF-8"?>
<!DOCTYPE svg PUBLIC "-//W3C//DTD SVG 1.1//EN" "http://www.w3.org/Graphics/SVG/1.1/DTD/svg11.dtd">
<!-- Creator: CorelDRAW X7 -->
<svg xmlns="http://www.w3.org/2000/svg" xml:space="preserve" width="4.74887in" height="4.73838in" version="1.1" style="shape-rendering:geometricPrecision; text-rendering:geometricPrecision; image-rendering:optimizeQuality; fill-rule:evenodd; clip-rule:evenodd"
viewBox="0 0 198 197"
 xmlns:xlink="http://www.w3.org/1999/xlink">
 <defs>
  <style type="text/css">
   <![CDATA[
    .fil1 {fill:#373435}
    .fil0 {fill:#FFB746}
   ]]>
  </style>
 </defs>
 <g id="Layer_x0020_1">
  <metadata id="CorelCorpID_0Corel-Layer"/>
  <g id="_2269462264640">
   <path class="fil0" d="M16 0l166 0c9,0 16,7 16,16l0 165c0,9 -7,16 -16,16l-166 0c-9,0 -16,-7 -16,-16l0 -165c0,-9 7,-16 16,-16z"/>
   <path class="fil1" d="M23 8l152 0c8,0 15,7 15,15l0 152c0,8 -7,14 -15,14l-152 0c-8,0 -15,-6 -15,-14l0 -152c0,-8 7,-15 15,-15z"/>
   <path class="fil0" d="M105 129l-3 -10 -31 0 -4 10c-1,4 -2,6 -3,8 -1,1 -3,2 -5,2 -2,0 -4,-1 -5,-2 -2,-2 -2,-3 -2,-5 0,-1 0,-2 0,-4 0,-1 1,-2 2,-4l19 -51c1,-1 1,-3 2,-5 1,-2 2,-4 3,-5 1,-1 2,-2 3,-3 2,-1 3,-1 5,-1 3,0 4,0 6,1 1,1 2,2 3,3 1,1 2,3 2,4 1,2 2,4 3,6l20 50c1,4 2,7 2,9 0,1 -1,3 -2,5 -2,1 -4,2 -6,2 -1,0 -2,0 -3,-1 -1,0 -1,-1 -2,-2 0,0 -1,-2 -2,-3 0,-2 -1,-3 -2,-4zm-30 -22l23 0 -12 -32 -11 32zm71 -19l0 42c0,3 0,5 -2,7 -1,1 -3,2 -5,2 -2,0 -4,-1 -5,-2 -1,-2 -2,-4 -2,-7l0 -41c0,-3 1,-5 2,-7 1,-1 3,-2 5,-2 2,0 4,1 5,2 2,2 2,4 2,6zm-7 -15c-2,0 -3,0 -5,-2 -1,-1 -2,-3 -2,-5 0,-2 1,-4 2,-5 2,-1 3,-2 5,-2 2,0 4,1 5,2 2,1 2,3 2,5 0,2 0,4 -2,5 -1,2 -3,2 -5,2z"/>
  </g>
 </g>
</svg>
