<?xml version="1.0" encoding="UTF-8"?>
<!DOCTYPE svg PUBLIC "-//W3C//DTD SVG 1.1//EN" "http://www.w3.org/Graphics/SVG/1.1/DTD/svg11.dtd">
<!-- Creator: CorelDRAW X7 -->
<svg xmlns="http://www.w3.org/2000/svg" xml:space="preserve" width="6.65653in" height="6.65653in" version="1.1" style="shape-rendering:geometricPrecision; text-rendering:geometricPrecision; image-rendering:optimizeQuality; fill-rule:evenodd; clip-rule:evenodd"
viewBox="0 0 2058 2058"
 xmlns:xlink="http://www.w3.org/1999/xlink">
 <defs>
  <style type="text/css">
   <![CDATA[
    .fil67 {fill:none;fill-rule:nonzero}
    .fil71 {fill:#FABEA1}
    .fil28 {fill:#FEFEFE;fill-rule:nonzero}
    .fil12 {fill:#FED9B1;fill-rule:nonzero}
    .fil19 {fill:#FBC9AF;fill-rule:nonzero}
    .fil62 {fill:#FABEA1;fill-rule:nonzero}
    .fil17 {fill:#FAB57B;fill-rule:nonzero}
    .fil64 {fill:#FBB25B;fill-rule:nonzero}
    .fil29 {fill:#F8B0AD;fill-rule:nonzero}
    .fil1 {fill:#F9AA69;fill-rule:nonzero}
    .fil77 {fill:#F7A195;fill-rule:nonzero}
    .fil63 {fill:#F7986B;fill-rule:nonzero}
    .fil23 {fill:#F69577;fill-rule:nonzero}
    .fil66 {fill:#F79346;fill-rule:nonzero}
    .fil8 {fill:#F48566;fill-rule:nonzero}
    .fil69 {fill:#F48043;fill-rule:nonzero}
    .fil37 {fill:#F37E83;fill-rule:nonzero}
    .fil3 {fill:#F27479;fill-rule:nonzero}
    .fil14 {fill:#F16E8D;fill-rule:nonzero}
    .fil31 {fill:#F16C79;fill-rule:nonzero}
    .fil65 {fill:#F16249;fill-rule:nonzero}
    .fil52 {fill:#F05D79;fill-rule:nonzero}
    .fil36 {fill:#F05B5D;fill-rule:nonzero}
    .fil68 {fill:#F0593E;fill-rule:nonzero}
    .fil42 {fill:#EF5684;fill-rule:nonzero}
    .fil21 {fill:#EF518C;fill-rule:nonzero}
    .fil10 {fill:#EF5178;fill-rule:nonzero}
    .fil30 {fill:#EE4B89;fill-rule:nonzero}
    .fil50 {fill:#EF4977;fill-rule:nonzero}
    .fil41 {fill:#EF465A;fill-rule:nonzero}
    .fil5 {fill:#F0873B;fill-rule:nonzero}
    .fil35 {fill:#EF8152;fill-rule:nonzero}
    .fil38 {fill:#E03B3D;fill-rule:nonzero}
    .fil6 {fill:#CD6249;fill-rule:nonzero}
    .fil43 {fill:#BD353C;fill-rule:nonzero}
    .fil76 {fill:#CCEAEB;fill-rule:nonzero}
    .fil24 {fill:#AA3A48;fill-rule:nonzero}
    .fil44 {fill:#865052;fill-rule:nonzero}
    .fil53 {fill:#6B384F;fill-rule:nonzero}
    .fil46 {fill:#8ED4DC;fill-rule:nonzero}
    .fil72 {fill:#85D0D1;fill-rule:nonzero}
    .fil0 {fill:#8A82BD;fill-rule:nonzero}
    .fil49 {fill:#72CCD6;fill-rule:nonzero}
    .fil60 {fill:#42C2D2;fill-rule:nonzero}
    .fil51 {fill:#6F6AAE;fill-rule:nonzero}
    .fil45 {fill:#1BBDC4;fill-rule:nonzero}
    .fil13 {fill:#09BAB2;fill-rule:nonzero}
    .fil48 {fill:#00B9C7;fill-rule:nonzero}
    .fil7 {fill:#5A5AA5;fill-rule:nonzero}
    .fil2 {fill:#554D88;fill-rule:nonzero}
    .fil59 {fill:#00B4D1;fill-rule:nonzero}
    .fil56 {fill:#4C53A1;fill-rule:nonzero}
    .fil57 {fill:#3D2D4D;fill-rule:nonzero}
    .fil20 {fill:#009CB4;fill-rule:nonzero}
    .fil16 {fill:#00AEA0;fill-rule:nonzero}
    .fil25 {fill:#4253A1;fill-rule:nonzero}
    .fil47 {fill:#00AEA4;fill-rule:nonzero}
    .fil34 {fill:#3C3860;fill-rule:nonzero}
    .fil22 {fill:#007B9A;fill-rule:nonzero}
    .fil55 {fill:#008B9F;fill-rule:nonzero}
    .fil26 {fill:#086BB3;fill-rule:nonzero}
    .fil54 {fill:#423E83;fill-rule:nonzero}
    .fil18 {fill:#3A3562;fill-rule:nonzero}
    .fil61 {fill:#18619A;fill-rule:nonzero}
    .fil27 {fill:#2C2E47;fill-rule:nonzero}
    .fil39 {fill:#2B2D44;fill-rule:nonzero}
    .fil32 {fill:#393D6E;fill-rule:nonzero}
    .fil33 {fill:#303151;fill-rule:nonzero}
    .fil58 {fill:#3A3D70;fill-rule:nonzero}
    .fil11 {fill:#333457;fill-rule:nonzero}
    .fil70 {fill:#343358;fill-rule:nonzero}
    .fil40 {fill:#343357;fill-rule:nonzero}
    .fil9 {fill:#3E3D7A;fill-rule:nonzero}
    .fil4 {fill:#383660;fill-rule:nonzero}
    .fil15 {fill:#323050;fill-rule:nonzero}
    .fil73 {fill:black;fill-rule:nonzero}
    .fil75 {fill:#1A1A1A;fill-rule:nonzero}
    .fil74 {fill:#333333;fill-rule:nonzero}
   ]]>
         #face {
      animation: face 1s infinite alternate;
      transform-origin: bottom;
       }
           @keyframes face {
             from{
transform: rotatex(0deg)
             }
             to {
transform: rotatex(10deg)}
    }
  </style>
 </defs>
 <g id="Layer_x0020_1">
  <metadata id="CorelCorpID_0Corel-Layer"/>
  <g id="_2088458604448">
   <path class="fil0" d="M1969 985c0,543 -441,984 -984,984 -544,0 -985,-441 -985,-984 0,-544 441,-985 985,-985 543,0 984,441 984,985z"/>
   <path class="fil1" d="M1641 520c-4,24 -11,50 -30,67 -14,12 -34,17 -53,17 -13,0 -27,-3 -39,-6 3,29 7,57 13,86 2,11 4,21 7,32l-1 0c0,1 1,2 1,3 0,0 0,1 0,1 5,21 11,42 16,62 -33,-14 -66,-28 -99,-43 -2,-1 -4,-2 -6,-3 -3,-3 -5,-6 -7,-9 -17,-29 -49,-50 -82,-54 -4,-1 -8,-1 -11,-1 7,-28 14,-57 20,-85 5,-19 9,-38 13,-58 -8,-3 -13,-11 -18,-18 -10,-17 -17,-39 -8,-57 2,-4 5,-8 9,-10 5,-3 10,-3 15,-2 12,2 22,8 29,17 21,3 43,-5 60,-17 19,-14 33,-33 45,-54 15,-25 28,-55 56,-67 20,-8 44,-4 66,2 1,4 2,7 3,11 14,61 12,124 1,186z"/>
   <path class="fil2" d="M1683 278c-8,23 -23,43 -43,56 -1,-4 -2,-7 -3,-11 -22,-6 -46,-10 -66,-2 -28,12 -41,42 -56,67 -12,21 -26,40 -45,54 -17,12 -39,20 -60,17 -7,-9 -17,-15 -29,-17 -5,-1 -10,-1 -15,2 -4,2 -7,6 -9,10 -9,18 -2,40 8,57 5,7 10,15 18,18 -4,20 -8,39 -13,58l-2 -1c1,-14 -5,-28 -13,-40 -9,-12 -19,-22 -27,-34 -11,-16 -19,-34 -23,-52 -11,31 20,66 14,99 -4,25 -31,44 -56,38 0,21 0,42 -5,62 -5,20 -14,40 -30,54 -22,19 -56,24 -82,11 -2,-1 -3,-2 -5,-3 -23,-15 -36,-45 -29,-71 7,-29 34,-49 47,-75 8,-14 12,-30 11,-46 0,-28 -14,-55 -11,-83 2,-21 13,-41 28,-56 16,-15 35,-26 55,-34 1,-1 3,-1 4,-3 2,-2 2,-5 1,-8 -3,-28 13,-57 39,-69 24,-10 53,-5 72,12l0 0c1,1 3,3 4,4 0,-1 1,-2 1,-3 2,-4 4,-7 7,-10 13,-17 32,-26 52,-31 23,-7 47,-9 71,-7 62,5 123,40 184,27 2,0 3,0 4,0 4,2 4,7 2,10z"/>
   <path class="fil3" d="M1338 1172c-45,-21 -90,-43 -135,-64 -6,-4 -13,-7 -18,-12 -15,-15 -13,-39 -10,-60 5,-38 11,-76 17,-114 7,-53 16,-106 44,-151 29,-45 65,-77 114,-99 44,1 76,26 93,55 2,3 4,6 7,9 2,1 4,2 6,3 33,15 66,29 99,43 -5,-20 -11,-41 -16,-62 1,0 1,-2 0,-1 0,-1 -1,-2 -1,-3l1 0c-3,-11 -5,-21 -7,-32 75,75 136,164 180,260 7,17 14,34 15,52 0,18 -7,38 -23,47 -3,2 -7,4 -9,8 -1,3 0,6 0,9 27,169 3,344 24,514l-487 0 -3 0c17,-138 54,-274 109,-402z"/>
   <path class="fil4" d="M1358 288c1,1 3,3 4,4 -5,10 -7,22 -6,34 0,4 1,8 -1,11 -1,2 -3,4 -5,5 -26,19 -42,49 -46,80 -2,13 -1,25 1,38 -11,31 20,66 14,99 -4,25 -31,44 -56,38 0,21 0,42 -5,62 -5,20 -14,40 -30,54 -22,19 -56,24 -82,11 -2,-1 -3,-2 -5,-3 16,-1 31,-8 42,-19 16,-16 23,-39 23,-61 0,-22 -5,-44 -13,-65 19,9 45,-2 51,-22 5,-14 1,-30 -5,-45 -5,-14 -12,-28 -13,-44 0,-10 3,-20 7,-29 12,-25 35,-44 61,-51 -7,-12 -12,-26 -13,-40 0,-15 4,-30 14,-40 7,-6 16,-10 25,-13 12,-4 25,-5 38,-4l0 0z"/>
   <path class="fil5" d="M1539 719c0,0 0,1 0,1l0 0c-1,1 -2,0 -2,-1 -38,-45 -69,-94 -94,-147l2 -1c18,10 37,16 57,22 5,2 11,4 17,5 3,29 7,57 13,86 2,11 4,21 7,32l-1 0c0,1 1,2 1,3z"/>
   <path class="fil6" d="M1549 516c21,5 43,4 63,-3 5,-1 3,-9 -2,-7 -19,6 -39,7 -59,3 -5,-1 -7,6 -2,7z"/>
   <path class="fil7" d="M1198 881l0 0c7,-39 17,-77 38,-110 26,-41 59,-71 101,-93 -42,22 -75,52 -101,93 -21,33 -31,71 -38,110zm154 -209c-1,0 -2,0 -2,0l0 0c0,0 1,0 2,0zm14 -228c0,0 0,0 0,0 0,0 0,0 0,0zm0 0c3,-2 6,-2 10,-2 -4,0 -7,0 -10,2zm15 -2c0,0 0,0 0,0 0,0 0,0 0,0zm0 0c0,0 0,0 0,0 0,0 0,0 0,0zm-5 0c0,0 0,0 0,0l0 0c0,0 0,0 0,0zm223 -177c-32,-8 -65,-19 -98,-23 33,4 66,15 98,23 0,0 0,0 0,0zm-177 -17c1,0 1,0 1,0 0,0 0,0 -1,0zm1 -1c1,0 1,0 1,0 0,0 0,0 -1,0zm1 0c0,0 1,0 1,0 0,0 -1,0 -1,0zm1 0c16,-4 34,-6 51,-6 -17,0 -35,2 -51,6zm76 -5c0,0 0,0 0,0 0,0 0,0 0,0zm0 0c0,0 0,0 0,0 0,0 0,0 0,0zm0 0c0,0 0,0 0,0 0,0 0,0 0,0zm-1 0c0,0 0,0 0,0 0,0 0,0 0,0zm0 0c0,0 0,0 0,0 0,0 0,0 0,0zm0 0c0,0 0,0 0,0 0,0 0,0 0,0zm-7 -1c0,0 0,0 0,0 0,0 0,0 0,0zm0 0c0,0 0,0 0,0 0,0 0,0 0,0zm-1 0c0,0 0,0 0,0 0,0 0,0 0,0zm-16 0c0,0 0,0 0,0l0 0c0,0 0,0 0,0z"/>
   <path class="fil8" d="M1408 690c-15,-10 -34,-17 -56,-18 -1,0 -2,0 -2,0 7,-28 14,-57 20,-85l0 0c5,-19 9,-38 13,-58l0 0c-8,-3 -13,-11 -18,-18 -7,-12 -12,-25 -12,-38 0,-7 1,-13 4,-19 2,-4 5,-8 9,-10l0 0c0,0 0,0 0,0 0,0 0,0 0,0 3,-2 6,-2 10,-2 0,0 0,0 0,0 0,0 0,0 0,0 1,0 3,0 5,0 0,0 0,0 0,0 0,0 0,0 0,0 0,0 0,0 0,0l0 0c7,1 14,4 20,8 -1,11 -1,21 0,32 9,68 50,132 12,199 -2,3 -3,6 -5,9z"/>
   <path class="fil9" d="M1370 587l0 0 -2 -1c0,-1 0,-2 0,-3 0,-13 -6,-26 -13,-37 -9,-12 -19,-22 -27,-34 -11,-16 -19,-34 -23,-52l0 0c-2,-13 -3,-25 -1,-38 4,-31 20,-61 46,-80 2,-1 4,-3 5,-5 2,-3 1,-7 1,-11 -1,-12 1,-24 6,-34l0 0c0,-1 1,-2 1,-3 2,-4 4,-7 7,-10 13,-17 32,-26 52,-31l0 0c1,0 1,0 1,0 0,0 0,0 0,-1 1,0 1,0 1,0 0,0 0,0 0,0 0,0 1,0 1,0 0,0 0,0 0,0 16,-4 34,-6 51,-6 0,0 0,0 0,0 0,0 0,0 0,0 5,0 10,0 16,0 0,0 0,0 0,0 0,0 0,0 1,0 0,0 0,0 0,0 0,0 0,0 0,0 0,0 0,0 0,0 0,0 0,0 0,0 2,0 5,1 7,1 0,0 0,0 0,0 0,0 0,0 0,0 0,0 0,0 0,0 0,0 0,0 0,0 0,0 0,0 0,0 0,0 0,0 1,0 0,0 0,0 0,0 0,0 0,0 0,0 0,0 0,0 0,0 0,0 0,0 0,0 0,0 0,0 0,0 0,0 0,0 0,0 33,4 66,15 98,23 -41,50 -114,65 -162,110 -22,20 -34,47 -36,75 -6,-4 -13,-7 -20,-8l0 0c0,0 0,0 0,0 0,0 0,0 0,0 0,0 0,0 0,0 -2,0 -4,0 -5,0 0,0 0,0 0,0l0 0c0,0 0,0 0,0 -4,0 -7,0 -10,2 0,0 0,0 0,0 0,0 0,0 0,0l0 0c-4,2 -7,6 -9,10 -3,6 -4,12 -4,19 0,13 5,26 12,38 5,7 10,15 18,18l0 0c-4,20 -8,39 -13,58z"/>
   <path class="fil10" d="M1577 1285c-2,-12 -5,-24 -8,-36 -9,-43 -19,-86 -34,-128l0 0c0,-2 -1,-5 -2,-7l0 0c-4,-10 -7,-19 -11,-28 -7,-18 -15,-36 -23,-53 20,2 40,3 61,3 3,17 6,34 9,51 1,7 3,15 9,20 4,2 9,3 14,4 19,1 39,2 59,2l0 0c4,0 8,0 12,0 -2,15 -3,30 -5,46 0,0 0,1 0,1l0 0c-14,6 -29,13 -43,21 -3,1 -6,3 -7,6 -2,3 -2,6 -3,10 0,13 -1,26 -1,39l-4 0c-2,18 -11,36 -23,49zm-286 -337c-3,-1 -7,-1 -10,-2 -19,-2 -39,-5 -58,-8l0 0c5,-8 9,-16 12,-25 1,-3 2,-6 2,-8 0,-1 0,-2 0,-3 -2,-6 -8,-9 -14,-12 -8,-3 -16,-6 -25,-9 7,-39 17,-77 38,-110 26,-41 59,-71 101,-93 4,-2 8,-4 13,-6l0 0c0,0 1,0 2,0 22,1 41,8 56,18 -30,45 -81,74 -111,120 -23,36 -31,85 -13,125 2,4 5,9 7,13z"/>
   <path class="fil7" d="M1178 731c0,0 0,0 0,0 0,0 0,0 0,0l0 0zm0 0c18,0 36,-6 50,-18 -14,12 -32,18 -50,18zm180 -443c0,0 0,0 0,0 0,0 0,0 0,0zm0 0c0,0 0,0 0,0 0,0 0,0 0,0zm-71 -12c8,-3 16,-5 25,-5 -9,0 -17,2 -25,5zm25 -5c0,0 0,0 0,0l0 0c0,0 0,0 0,0z"/>
   <path class="fil9" d="M1141 721l0 0c-19,-12 -31,-35 -31,-57 0,-5 1,-10 2,-14 7,-29 34,-49 47,-75 8,-13 11,-28 11,-44 0,-1 0,-2 0,-2 0,-26 -11,-51 -11,-76 0,-2 0,-4 0,-7 2,-21 13,-41 28,-56 16,-15 35,-26 55,-34 1,-1 3,-1 4,-3 1,-1 2,-3 2,-4 0,-2 -1,-3 -1,-4 0,-2 0,-5 0,-7 0,-26 16,-51 39,-62 0,0 0,0 1,0 8,-3 16,-5 25,-5l0 0c0,0 0,0 0,0 17,0 33,6 46,17 0,0 0,0 0,0 0,0 0,0 0,0 0,0 0,0 0,0l0 0c-3,0 -7,0 -10,0 -10,0 -19,1 -28,4 -9,3 -18,7 -25,13 -10,10 -14,25 -14,40 1,14 6,28 13,40 -26,7 -49,26 -61,51 -4,9 -7,19 -7,29 1,16 8,30 13,44 6,15 10,31 5,45 -5,15 -21,25 -36,25 -5,0 -10,-1 -15,-3 8,21 13,43 13,65 0,22 -7,45 -23,61 -11,11 -26,18 -42,19z"/>
   <path class="fil11" d="M1178 731c0,0 0,0 0,0 -11,0 -22,-2 -32,-7l0 0c-2,-1 -3,-2 -5,-3l0 0c16,-1 31,-8 42,-19 16,-16 23,-39 23,-61 0,-22 -5,-44 -13,-65 5,2 10,3 15,3 15,0 31,-10 36,-25 5,-14 1,-30 -5,-45 -5,-14 -12,-28 -13,-44 0,-10 3,-20 7,-29 12,-25 35,-44 61,-51 -7,-12 -12,-26 -13,-40 0,-15 4,-30 14,-40 7,-6 16,-10 25,-13 9,-3 18,-4 28,-4 3,0 7,0 10,0l0 0 0 0c1,1 3,3 4,4 -5,10 -7,22 -6,34 0,4 1,8 -1,11 -1,2 -3,4 -5,5 -26,19 -42,49 -46,80 -2,13 -1,25 1,38l0 0c-1,5 -2,10 -2,15 0,25 17,50 17,76 0,3 0,5 -1,8 0,0 0,0 0,1 0,0 0,0 0,0 -4,21 -25,38 -47,38 0,0 0,0 0,0 0,0 0,0 0,0 -3,0 -6,0 -9,-1l0 0c0,4 0,8 0,12 0,17 -1,34 -5,50 -5,20 -14,40 -30,54l0 0c0,0 0,0 0,0 -14,12 -32,18 -50,18 0,0 0,0 0,0z"/>
   <path class="fil12" d="M679 713c-10,30 -26,58 -49,80 -24,22 -56,37 -89,37 -31,-1 -63,-16 -81,-42 0,-1 -1,-2 -2,-3l0 0c-1,-14 -2,-27 -3,-40 -1,-20 -3,-40 -5,-60 -8,3 -17,4 -26,2 -14,-3 -25,-12 -34,-24 -5,-7 -10,-15 -14,-23 -34,-67 -53,-141 -69,-216 63,-31 117,-81 152,-142 47,58 80,126 113,193 1,-21 6,-41 14,-60 5,-13 15,-27 29,-29 10,-1 20,5 26,13 6,8 9,18 10,28 4,18 4,38 -2,56 -6,18 -19,35 -35,44 8,28 17,56 27,84 12,35 25,69 38,102z"/>
   <path class="fil13" d="M991 1814c-8,1 -15,2 -22,4 -23,7 -45,19 -68,28 -31,13 -63,21 -96,25 -60,8 -122,4 -183,-3 -93,-11 -188,-29 -281,-19 -30,3 -61,8 -87,-7 -4,-2 -7,-4 -11,-7 -7,-7 -13,-14 -18,-23 -5,-9 -8,-18 -11,-28 -23,4 -45,5 -68,5 -3,0 -6,0 -8,-1 -8,0 -15,-2 -20,-7l-1 -1c-8,-7 -9,-20 -8,-32 2,-34 7,-68 17,-100 4,-11 7,-22 5,-32 -3,-10 -10,-19 -11,-29 -3,-25 35,-41 32,-66 -2,-14 -18,-23 -24,-37 -7,-16 0,-35 6,-52 43,-112 45,-233 46,-353 0,-48 0,-95 3,-142 1,-21 3,-44 13,-63 26,-48 94,-56 132,-95 4,-5 8,-10 14,-12 13,-6 27,3 38,11 3,-17 11,-34 26,-43 4,-2 9,-4 14,-4 13,-1 26,5 29,17 2,-1 4,-2 6,-3 1,13 2,26 3,40l0 0c1,1 2,2 2,3 18,26 50,41 81,42 33,0 65,-15 89,-37 23,-22 39,-50 49,-80 1,-1 1,-2 1,-4 11,4 21,8 31,12 35,12 71,21 108,28 21,4 42,6 63,8 6,1 13,1 17,6 11,10 -1,28 2,43 5,19 31,21 48,30 27,15 33,50 37,80 32,298 33,599 5,898z"/>
   <path class="fil14" d="M533 874c-4,72 -8,143 -12,214 0,2 0,4 -2,6 -1,2 -4,2 -6,3 -9,1 -18,0 -26,-5 -2,-1 -4,-2 -5,-4 -1,-2 -1,-4 -1,-6 7,-72 13,-143 19,-215 -15,-4 -29,-15 -39,-27 -27,-30 -44,-69 -41,-109 13,-1 26,5 29,17 2,-1 4,-2 6,-3 1,13 2,26 3,40l0 0c1,1 2,2 2,3 18,26 50,41 81,42 33,0 65,-15 89,-37 23,-22 39,-50 49,-80 1,-1 1,-2 1,-4 11,4 21,8 31,12 -6,30 -24,56 -44,79 -35,38 -82,68 -134,74z"/>
   <path class="fil15" d="M969 1818c4,80 8,160 12,240l-739 0c-2,-53 -2,-105 -1,-158 0,-22 1,-44 2,-65 4,3 7,5 11,7 26,15 57,10 87,7 93,-10 188,8 281,19 94,11 192,15 279,-22 23,-9 45,-21 68,-28z"/>
   <path class="fil16" d="M138 1788c-8,0 -15,-2 -20,-7l-1 -1c45,-46 71,-109 83,-173 12,-65 11,-133 9,-200 -1,-84 -3,-169 -5,-254 -2,-77 -3,-156 15,-230 3,111 49,217 60,328 13,142 -33,281 -61,421 -8,37 -13,77 -4,112 -23,4 -45,5 -68,5 -3,0 -6,0 -8,-1z"/>
   <path class="fil17" d="M455 745c-1,-20 -3,-40 -5,-60 11,-4 21,-10 30,-17 30,-24 54,-55 77,-86l1 0c-21,74 -54,144 -98,206 0,-1 -1,-2 -2,-3l0 0c-1,-14 -2,-27 -3,-40z"/>
   <path class="fil12" d="M243 1835c-1,21 -2,43 -2,65l-2 0c-47,-22 -85,-63 -101,-112 2,1 5,1 8,1 23,0 45,-1 68,-5 3,10 6,19 11,28 5,9 11,16 18,23z"/>
   <path class="fil2" d="M739 484c-1,4 -3,8 -6,11 -8,7 -20,3 -30,0 7,22 8,47 1,69 -1,5 -4,10 -9,10 -3,1 -5,-1 -7,-3 -9,-7 -17,-16 -23,-26 2,24 -7,49 -24,66 -10,-28 -19,-56 -27,-84 16,-9 29,-26 35,-44 6,-18 6,-38 2,-56 -1,-10 -4,-20 -10,-28 -6,-8 -16,-14 -26,-13 -14,2 -24,16 -29,29 -3,7 -6,14 -8,21 -3,13 -5,26 -6,39 -33,-67 -66,-135 -113,-193 -35,61 -89,111 -152,142 16,75 35,149 69,216 4,8 9,16 14,23 -9,0 -17,-3 -25,-7 -11,-8 -18,-19 -26,-31 -3,11 -5,22 -8,33 -11,1 -19,-11 -23,-22 -6,-19 -9,-39 -8,-59 -8,6 -16,12 -23,18 -6,5 -15,11 -22,7 -8,-5 -7,-17 -4,-26 10,-37 15,-75 14,-113 -1,-26 -5,-53 -3,-80 2,-55 28,-109 69,-147 24,-22 54,-38 85,-48 22,-7 45,-10 67,-10 32,0 65,6 91,24 26,18 44,46 61,72 22,36 44,73 69,107 11,15 23,30 31,48 7,17 11,37 4,55z"/>
   <path class="fil18" d="M739 484c-1,4 -3,8 -6,11 -8,7 -20,3 -30,0 7,22 8,47 1,69 -1,5 -4,10 -9,10 -3,1 -5,-1 -7,-3 -9,-7 -17,-16 -23,-26 2,24 -7,49 -24,66 -10,-28 -19,-56 -27,-84 16,-9 29,-26 35,-44 6,-18 6,-38 2,-56 -1,-10 -4,-20 -10,-28 -6,-8 -16,-14 -26,-13 -14,2 -24,16 -29,29 -3,7 -6,14 -8,21 0,-16 -2,-31 -5,-47 -16,-88 -74,-166 -157,-201 22,-7 45,-10 67,-10 32,0 65,6 91,24 26,18 44,46 61,72 22,36 44,73 69,107 11,15 23,30 31,48 7,17 11,37 4,55z"/>
   <path class="fil6" d="M384 604c21,0 41,-3 61,-9 5,-2 3,-10 -2,-8 -19,6 -39,9 -59,9 -6,0 -6,8 0,8z"/>
   <path class="fil19" d="M488 814c-11,-6 -21,-15 -28,-26 23,-32 43,-67 60,-103 1,6 3,12 4,18 9,32 14,59 -10,87 -8,9 -17,17 -26,24zm-55 -126c-3,0 -6,0 -9,-1 -14,-3 -25,-12 -34,-24 -5,-7 -10,-15 -14,-23 -34,-67 -53,-141 -69,-216 30,-14 57,-33 81,-55 33,11 66,19 97,34 42,20 79,57 89,104 5,23 3,48 -8,69 -3,5 -6,9 -10,13 1,-2 2,-4 2,-7l-1 0c-6,8 -12,16 -18,24 -4,3 -7,7 -11,11 -4,5 -9,11 -12,17 -11,12 -23,24 -36,34 -9,7 -19,13 -30,17l0 0c-5,2 -11,3 -17,3zm11 -101c0,0 0,0 0,0 -21,0 -42,3 -62,9 -4,2 -3,8 1,8 1,0 1,0 2,0 19,-6 39,-9 59,-9 5,0 5,-8 0,-8z"/>
   <path class="fil20" d="M117 1780l0 0c-7,-6 -8,-16 -8,-26 0,-2 0,-4 0,-6 2,-34 7,-68 17,-100 3,-8 6,-17 6,-25 0,-2 -1,-5 -1,-7 -3,-10 -10,-19 -11,-29 0,-1 0,-2 0,-2 0,-23 32,-38 32,-61 0,-1 0,-2 0,-3 -2,-14 -18,-23 -24,-37 -2,-5 -3,-10 -3,-15 0,-12 5,-25 9,-37 20,-52 31,-106 37,-161 1,1 1,1 2,2 10,10 22,19 34,27 1,36 2,72 2,107 2,67 3,135 -9,200 -5,26 -12,52 -21,76 -17,26 -32,52 -46,79 -5,6 -10,13 -16,18zm104 -121c22,-107 54,-214 59,-322 12,4 23,6 35,6 1,0 3,0 4,0 3,-8 12,-12 20,-12 3,0 6,0 8,1 11,4 19,13 23,24 9,20 9,45 -1,65 -8,17 -23,30 -40,37l0 0c-2,1 -4,2 -6,3 16,47 33,95 49,143 1,2 2,5 3,7 3,1 7,2 10,3 -3,-1 -7,-2 -10,-3 -1,-2 -2,-5 -3,-7 -50,19 -100,38 -151,55zm318 -301c-16,-41 -27,-85 -50,-123 -41,-72 -123,-117 -205,-117 -8,0 -17,0 -25,1 -2,1 -3,1 -5,1 -16,-65 -33,-130 -35,-197 -16,68 -17,140 -15,210 -9,4 -17,8 -25,13 0,-23 1,-45 1,-67 0,-48 0,-95 3,-142 1,-21 3,-44 13,-63 26,-48 94,-56 132,-95 4,-5 8,-10 14,-12 3,-2 5,-2 8,-2 11,0 21,7 30,13 3,-17 11,-34 26,-43 4,-2 9,-4 14,-4 -3,38 12,75 37,104 -10,7 -19,14 -25,24 -21,36 8,70 33,94 8,9 17,17 25,26 -3,34 -6,68 -9,103 0,2 0,4 1,6 1,2 3,3 5,4 6,4 12,5 19,5 2,0 5,0 7,0 2,-1 5,-1 6,-3 2,-2 2,-4 2,-6 1,-23 3,-46 4,-69 5,6 9,12 13,18 22,33 39,69 54,106 4,11 8,22 12,33 -3,12 -6,24 -8,36l0 0c-1,2 -1,4 -2,6 0,1 0,2 0,3l0 0c-2,8 -4,16 -10,21 -5,5 -12,6 -18,10 -7,6 -10,15 -10,24 0,4 1,8 2,12 0,0 0,1 0,1 0,2 1,5 2,7 3,10 8,20 9,30 0,1 0,3 0,4 0,4 -1,8 -3,11 -4,4 -9,5 -14,7 -5,2 -10,6 -13,10zm-90 -611c-4,-10 -15,-16 -27,-16l0 0c12,0 23,6 27,16z"/>
   <path class="fil21" d="M506 1097c-7,0 -13,-1 -19,-5 -2,-1 -4,-2 -5,-4 -1,-2 -1,-4 -1,-6 3,-35 6,-69 9,-103 13,13 24,26 35,40 -1,23 -3,46 -4,69 0,2 0,4 -2,6 -1,2 -4,2 -6,3 -2,0 -5,0 -7,0zm-49 -262c-25,-29 -40,-66 -37,-104l0 0c1,0 2,0 2,0 12,0 23,6 27,16 0,0 0,1 0,1 2,-1 4,-2 6,-3l0 0c1,13 2,26 3,40l0 0c1,1 2,2 2,3l0 0c7,11 17,20 28,26 -7,5 -13,10 -20,14 -4,3 -8,5 -11,7z"/>
   <path class="fil22" d="M122 1784c-1,0 -3,-1 -4,-3l-1 -1 0 0c6,-5 11,-12 16,-18 -3,7 -7,15 -11,22zm57 -101c9,-24 16,-50 21,-76 12,-65 11,-133 9,-200 0,-35 -1,-71 -2,-107 10,7 21,14 32,19 13,7 27,14 41,18 -5,108 -37,215 -59,322 -10,3 -20,7 -30,10 -1,0 -1,0 -2,0 0,0 -1,1 -2,1 -3,4 -6,9 -8,13zm25 -550c-2,-70 -1,-142 15,-210 2,67 19,132 35,197 -17,2 -34,7 -50,13z"/>
   <path class="fil23" d="M460 788c0,-1 -1,-2 -2,-3l0 0c-1,-14 -2,-27 -3,-40l0 0c-1,-20 -3,-40 -5,-60l0 0c11,-4 21,-10 30,-17 13,-10 25,-22 36,-34 -3,5 -5,11 -4,18 2,11 5,22 8,33 -17,36 -37,71 -60,103l0 0zm79 -182c6,-8 12,-16 18,-24l1 0c0,3 -1,5 -2,7 -5,6 -11,12 -17,17z"/>
   <path class="fil9" d="M388 663c-8,0 -16,-3 -23,-7 -11,-8 -18,-19 -26,-31 -3,11 -5,22 -8,33 -1,0 -1,0 -2,0 -10,0 -17,-11 -21,-22 -6,-17 -8,-35 -8,-53 0,-2 0,-4 0,-6l0 0c-8,6 -16,12 -23,18 -5,4 -11,8 -17,8 -2,0 -3,0 -5,-1 -5,-3 -6,-8 -6,-13 0,-4 1,-9 2,-13 9,-33 14,-67 14,-101 0,-4 0,-8 0,-12 -1,-23 -4,-45 -4,-68 0,-4 0,-8 1,-12 2,-55 28,-108 68,-146 -18,17 -32,36 -44,57 21,34 48,57 86,70 5,2 11,4 16,5 -24,22 -51,41 -81,55l0 0c16,75 35,149 69,216 4,8 9,16 14,23 -1,0 -1,0 -2,0zm-58 -426c0,0 0,0 0,0 0,0 0,0 0,0zm0 0c0,0 0,0 1,0 -1,0 -1,0 -1,0zm1 0c0,0 0,0 0,0 0,0 0,0 0,0zm0 0c0,0 0,-1 0,-1 0,0 0,1 0,1z"/>
   <path class="fil24" d="M445 587c4,0 5,6 0,8 -20,6 -40,9 -61,9 0,0 0,0 -1,0 -5,0 -5,-8 1,-8 20,0 40,-3 59,-9 1,0 1,0 2,0z"/>
   <path class="fil25" d="M734 1876c-24,0 -48,-2 -73,-4l0 0c25,2 49,4 73,4 14,0 27,-1 41,-2 0,0 0,0 0,0 -14,1 -27,2 -41,2z"/>
   <path class="fil26" d="M734 1876c-24,0 -48,-2 -73,-4 3,-4 5,-8 7,-13 5,-12 8,-25 8,-39 0,-29 -12,-58 -32,-79 -4,-4 -8,-8 -8,-13 0,-1 0,-1 0,-2 1,-3 4,-6 6,-8 12,-10 24,-20 34,-32 17,-21 26,-48 26,-75 0,-10 -1,-19 -3,-28 -1,-6 -3,-11 -5,-16 8,-6 15,-12 22,-20l0 0c19,-15 38,-32 56,-50 4,-4 8,-8 12,-12 14,-15 28,-30 41,-46 0,0 0,0 0,0l0 0c-6,43 -11,86 -16,130l0 0c0,2 0,5 -1,7l0 0c-3,29 -6,57 -8,86 -1,2 -1,3 -1,5l0 0c-1,3 -1,6 -2,8l0 0c-1,1 -1,3 -2,4 -6,8 -20,10 -24,21 0,1 0,2 0,4 0,7 5,14 11,19 16,16 32,31 50,44l0 0c-14,6 -27,16 -32,30 0,2 0,4 0,6l0 0c0,0 -1,0 -1,1 0,3 1,5 2,8 2,9 10,17 19,17 1,0 1,0 1,0l0 0c-16,12 -31,26 -43,42l0 0c-1,1 -2,2 -3,3 -14,1 -27,2 -41,2z"/>
   <path class="fil27" d="M782 2058l-179 0 0 0c-13,-45 -20,-92 -29,-139 0,0 0,0 0,-1 2,0 4,0 6,0 32,0 64,-18 81,-46 25,2 49,4 73,4 14,0 27,-1 41,-2 -1,2 -2,3 -3,4l0 0c-4,5 -7,11 -10,16 -4,7 -8,14 -8,21 0,3 0,5 1,7 4,10 15,15 25,18 6,2 12,3 17,5 -6,38 -12,75 -15,113z"/>
   <path class="fil28" d="M330 237c0,0 0,0 0,0 0,0 0,0 0,0zm0 0c0,0 0,0 0,0 0,0 0,0 0,0zm1 0c0,0 0,0 0,0 0,0 0,0 0,0zm0 0c0,0 0,0 0,0 0,0 0,0 0,0zm0 -1c0,0 0,0 0,0 0,0 0,0 0,0z"/>
   <path class="fil25" d="M542 830l0 0zm0 0c32,0 64,-15 88,-37 -24,22 -56,37 -88,37zm88 -37c0,0 0,0 0,0 23,-22 39,-50 49,-80l0 0c-10,30 -26,58 -49,80 0,0 0,0 0,0zm-58 -318c0,0 0,0 0,0 0,0 0,0 0,0zm6 -40c1,-3 3,-7 4,-10 -1,3 -3,7 -4,10zm63 -36c0,0 0,0 0,-1 0,1 0,1 0,1zm0 -1c0,0 0,0 -1,0 1,0 1,0 1,0zm-26 -12c1,0 2,0 2,0 0,0 -1,0 -2,0zm2 0c0,0 0,0 0,0l0 0c0,0 0,0 0,0z"/>
   <path class="fil29" d="M542 830l0 0c0,0 -1,0 -1,0l0 0c-19,0 -37,-6 -53,-16 9,-7 18,-15 26,-24 24,-28 19,-55 10,-87 -1,-6 -3,-12 -4,-18 14,-31 27,-63 36,-96 4,-4 7,-8 10,-13 11,-21 13,-46 8,-69 -10,-47 -47,-84 -89,-104 -31,-15 -64,-23 -97,-34 28,-25 52,-54 71,-87 47,58 80,126 113,193l0 0c0,0 0,0 0,0 1,-13 3,-26 6,-39l0 0c0,0 0,0 0,-1 1,-3 3,-7 4,-10 1,-4 2,-7 4,-10 5,-13 15,-27 29,-29 0,0 0,0 0,0 1,0 2,0 2,0l0 0c0,0 0,0 0,0 9,0 18,5 23,12 1,0 1,0 1,0 0,0 0,0 0,0 0,1 0,1 0,1l0 0c6,8 9,18 10,28 2,7 3,15 3,23 0,11 -2,23 -5,33 -6,18 -19,35 -35,44l0 0c8,28 17,56 27,84l0 0c12,35 25,69 38,102 -10,30 -26,58 -49,80 0,0 0,0 0,0 0,0 0,0 0,0 -24,22 -56,37 -88,37 0,0 0,0 0,0zm-26 -196c3,-6 8,-12 12,-17 4,-4 7,-8 11,-11 -8,10 -15,19 -23,28z"/>
   <path class="fil26" d="M604 1176c-4,-11 -8,-22 -12,-33 -15,-37 -32,-73 -54,-106 -4,-6 -8,-12 -13,-18 3,-48 6,-97 8,-145 52,-6 99,-36 134,-74 20,-23 38,-49 44,-79l0 0c35,12 71,21 108,28 21,4 42,6 63,8 6,1 13,1 17,6 4,3 5,7 5,12 0,7 -3,17 -3,25l0 0c0,2 0,4 0,6 5,19 31,21 48,30 27,15 33,50 37,80 4,43 8,87 12,131 -17,-22 -33,-43 -51,-63 0,-19 -1,-37 -2,-56 -14,11 -26,23 -37,37 -8,10 -16,22 -16,35 0,3 1,5 1,8 3,8 9,16 15,22 5,5 10,9 15,14l0 0c-10,-4 -20,-6 -30,-8 -2,0 -3,0 -5,0 -2,0 -4,0 -5,1 -3,2 -5,5 -7,8 0,1 0,2 -1,3 -2,6 -5,13 -6,19l0 0c0,2 -1,4 -1,6 -2,-1 -4,-2 -7,-3l0 0c-3,-2 -8,-4 -12,-5 -1,0 -3,0 -5,0 -5,0 -10,1 -14,5 -6,7 -6,17 -11,25 -1,2 -2,3 -3,4l0 0c-2,3 -5,5 -7,7l0 0c-2,1 -4,2 -5,3 -7,4 -14,9 -20,13l0 0c-3,2 -5,3 -7,4l0 0c1,-3 1,-6 2,-9 1,-6 2,-12 3,-18 0,-2 0,-3 1,-5 0,-1 1,-3 2,-4 1,-2 4,-3 6,-4 4,-2 9,-2 14,-5 5,-3 8,-9 8,-16 0,-5 -2,-11 -6,-15 -1,-2 -3,-4 -5,-5 -7,-6 -17,-10 -26,-12 -30,-10 -61,-20 -93,-23 -6,-1 -11,-1 -17,-1 -7,0 -14,0 -22,1 3,13 8,25 15,36l0 0c-1,0 -2,-1 -3,-1 -15,0 -29,16 -29,31 0,3 0,5 1,8 1,2 1,4 2,6 1,2 1,4 1,6 0,0 0,0 0,0 0,1 0,1 0,2l0 0c0,2 -1,5 -2,7 -10,23 -18,47 -25,71zm-114 -197c-8,-9 -17,-17 -25,-26 -25,-24 -54,-58 -33,-94 6,-10 15,-17 25,-24 1,2 2,3 4,5 10,12 24,23 39,27 -3,37 -7,75 -10,112zm52 -149c0,0 -1,0 -1,0 -19,0 -37,-6 -53,-16l0 0c16,10 34,16 53,16l0 0c0,0 1,0 1,0l0 0c0,0 0,0 0,0 32,0 64,-15 88,-37 0,0 0,0 0,0 0,0 0,0 0,0 23,-22 39,-50 49,-80l0 0c0,-1 1,-2 1,-3 0,1 -1,2 -1,3 -10,30 -26,58 -49,80 -24,22 -55,37 -88,37z"/>
   <path class="fil30" d="M525 1019c-11,-14 -22,-27 -35,-40 3,-37 7,-75 10,-112 -15,-4 -29,-15 -39,-27 -2,-2 -3,-3 -4,-5 3,-2 7,-4 11,-7 7,-4 13,-9 20,-14 16,10 34,16 53,16 0,0 1,0 1,0 33,0 64,-15 88,-37 23,-22 39,-50 49,-80 0,-1 1,-2 1,-3 0,-1 0,-1 0,-1 11,4 21,8 31,12 -6,30 -24,56 -44,79 -35,38 -82,68 -134,74 -2,48 -5,97 -8,145z"/>
   <path class="fil31" d="M520 685c-3,-11 -6,-22 -8,-33 -1,-7 1,-13 4,-18 8,-9 15,-18 23,-28 6,-5 12,-11 17,-17 -9,33 -22,65 -36,96z"/>
   <path class="fil32" d="M572 475c-33,-67 -66,-135 -113,-193 -19,33 -43,62 -71,87 -5,-1 -11,-3 -16,-5 -38,-13 -65,-36 -86,-70 12,-21 26,-40 44,-57 0,0 0,0 0,0 0,0 0,0 0,0 0,0 0,0 0,0 0,0 0,0 1,0 0,0 0,0 0,0 0,0 0,0 0,0 0,0 0,0 0,0 0,0 0,-1 0,-1 0,0 0,0 0,0l0 0c24,-22 54,-38 85,-48l0 0c83,35 141,113 157,201 3,16 5,31 5,47 -3,13 -5,26 -6,39 0,0 0,0 0,0l0 0z"/>
   <path class="fil33" d="M641 611c-10,-28 -19,-56 -27,-84l0 0c16,-9 29,-26 35,-44 3,-10 5,-22 5,-33 0,-8 -1,-16 -3,-23 -1,-10 -4,-20 -10,-28l0 0c0,0 0,0 0,-1 0,0 0,0 0,0 0,0 0,0 -1,0 -5,-7 -14,-12 -23,-12 0,0 0,0 0,0l0 0c0,0 -1,0 -2,0 0,0 0,0 0,0 -14,2 -24,16 -29,29 -2,3 -3,6 -4,10 -1,3 -3,7 -4,10 0,1 0,1 0,1l0 0c0,-16 -2,-31 -5,-47 -16,-88 -74,-166 -157,-201 22,-7 45,-10 67,-10 32,0 65,6 91,24 26,18 44,46 61,72 22,36 44,73 69,107 11,15 23,30 31,48 5,11 8,23 8,35 0,7 -1,14 -4,20 -1,4 -3,8 -6,11 0,0 0,0 0,0 0,0 0,0 0,0 0,0 0,0 0,0 0,0 0,0 0,0 -4,3 -8,4 -12,4 0,0 0,0 0,0 0,0 0,0 0,0 -6,0 -12,-2 -17,-4 0,0 0,0 0,0 -1,0 -1,0 -1,0 0,0 0,0 0,0 0,0 0,0 0,0 0,0 0,0 0,0l0 0c4,12 6,24 6,36 0,11 -2,23 -5,33 -1,5 -4,10 -9,10 0,0 0,0 0,0l0 0c0,0 0,0 0,0 -3,0 -5,-1 -7,-2 0,0 0,0 0,0 0,0 0,0 0,0 0,0 0,0 0,0 0,0 0,0 0,0 0,0 0,-1 0,-1 0,0 0,0 0,0l0 0c-9,-7 -17,-16 -23,-26l0 0c0,2 0,4 0,6 0,22 -8,44 -24,60l0 0z"/>
   <path class="fil34" d="M372 1604c1,2 2,5 3,7 55,15 101,56 132,105 25,41 41,86 52,133 23,-16 36,-44 36,-71 0,-28 -14,-56 -37,-72 -2,-2 -5,-3 -6,-5 -2,-6 3,-11 8,-15 14,-13 23,-33 23,-53 0,-28 -17,-53 -40,-69 -23,-16 -50,-24 -78,-28 -22,-3 -45,-4 -67,-12 -31,-10 -57,-35 -69,-66 -2,1 -4,2 -6,3 16,47 33,95 49,143z"/>
   <path class="fil2" d="M157 1162c-29,24 -46,60 -47,98 1,-2 1,-4 1,-7 2,-18 10,-37 24,-49 5,26 19,50 38,69 19,19 42,34 66,46 25,14 52,25 80,24 4,-10 18,-15 28,-11 11,4 19,13 23,24 9,20 9,45 -1,65 -8,17 -23,30 -40,37 12,31 38,56 69,66 22,8 45,9 67,12 28,4 55,12 78,28 23,16 40,41 40,69 0,20 -9,40 -23,53 -5,4 -10,9 -8,15 1,2 4,3 6,5 23,16 37,44 37,72 0,27 -13,55 -36,71 4,13 6,27 9,40 2,10 4,19 6,29 39,3 79,-22 94,-59 17,-39 5,-88 -24,-118 -4,-4 -9,-9 -8,-15 1,-3 4,-6 6,-8 12,-10 24,-20 34,-32 23,-28 32,-68 23,-103 -17,-68 -89,-106 -129,-164 -39,-55 -47,-126 -81,-184 -45,-79 -140,-126 -230,-116 -38,5 -74,18 -102,43z"/>
   <path class="fil1" d="M82 1391c6,13 16,25 28,34 7,35 15,70 26,104 0,3 1,6 4,8 2,2 6,2 9,2 12,-1 24,-1 36,-2 -1,43 0,86 4,128 0,1 0,1 0,2 0,0 1,-1 1,-2 0,1 1,3 1,4 61,-20 121,-42 181,-65 -16,-48 -33,-96 -49,-143 2,-1 4,-2 6,-3 17,-7 32,-20 40,-37 10,-20 10,-45 1,-65 -4,-11 -12,-20 -23,-24 -10,-4 -24,1 -28,11 -28,1 -55,-10 -80,-24 -24,-12 -47,-27 -66,-46 -19,-19 -33,-43 -38,-69 -14,12 -22,31 -24,49 0,3 0,5 -1,7 0,16 2,33 7,49 2,8 4,16 1,23 -1,4 -4,7 -7,11 -9,10 -18,21 -27,32 -2,2 -4,4 -4,7 -1,3 0,6 2,9z"/>
   <path class="fil35" d="M185 1537c-1,43 0,86 4,128 34,-43 63,-89 88,-138 -30,5 -61,9 -92,10z"/>
   <path class="fil6" d="M126 1477c15,-1 29,-4 43,-10 2,-1 2,-3 1,-5 -1,-2 -3,-2 -5,-1 -12,5 -25,8 -39,9 -4,0 -4,8 0,7z"/>
   <path class="fil6" d="M315 1404c0,-6 1,-12 3,-17 1,-6 3,-11 6,-16 2,-5 5,-10 9,-13 5,-4 12,-3 17,1 4,4 5,10 4,16 -1,4 -8,2 -7,-2 1,-4 -1,-8 -4,-9 -5,-3 -7,1 -9,5 -5,7 -9,16 -10,24 -1,4 -2,9 -2,13 0,3 -1,9 3,11 3,2 6,0 9,-2 1,-2 2,-3 3,-5 0,-1 1,-2 1,-3 0,-1 0,0 1,-1 -3,4 -9,-2 -6,-5 3,-4 10,-2 12,2 2,5 -1,11 -4,14 -3,4 -7,8 -12,8 -5,0 -10,-1 -12,-5 -3,-5 -3,-11 -2,-16z"/>
   <path class="fil36" d="M22 2058l581 0c-13,-46 -21,-93 -29,-140 -2,-10 -4,-19 -6,-29 -3,-13 -5,-27 -9,-40 -11,-47 -27,-92 -52,-133 -31,-49 -77,-90 -132,-105 -1,-2 -2,-5 -3,-7 -60,23 -120,45 -181,65 -1,0 -1,0 -2,0 0,0 -1,1 -2,1 -79,117 -123,253 -165,388z"/>
   <path class="fil37" d="M189 1669c0,0 -1,1 -2,1 -79,117 -123,253 -165,388l60 0c21,-66 57,-127 106,-177 15,-15 32,-30 48,-45 4,-3 8,-7 10,-12 3,-10 -4,-20 -10,-28 -26,-37 -42,-82 -45,-127 -1,0 -1,0 -2,0z"/>
   <path class="fil37" d="M262 1836c-1,75 0,152 25,222l288 0c-28,-84 -38,-175 -70,-258 -15,-40 -36,-79 -69,-104 -34,-26 -83,-35 -119,-13 -24,15 -40,41 -47,69 -8,27 -8,56 -8,84z"/>
   <path class="fil36" d="M331 1742c-1,0 -1,0 -2,0l-1 -1c-1,0 -2,-1 -3,-1 -3,-1 -6,-3 -8,-4 -5,-2 -10,-5 -15,-7 -3,-2 -7,-1 -9,2 -1,3 -1,7 3,9 10,5 21,10 32,15 3,1 7,-2 7,-5 1,-3 -1,-6 -4,-8z"/>
   <path class="fil36" d="M379 1702c-4,0 -6,3 -6,6l0 1 -1 1c0,0 0,1 0,2 0,1 0,3 -1,4 0,3 -1,6 -1,8 -2,6 -4,11 -6,17 -1,3 2,7 5,7 3,1 6,-1 8,-4 4,-12 7,-23 9,-36 0,-3 -4,-6 -7,-6z"/>
   <path class="fil36" d="M347 1719c-2,-9 -4,-19 -6,-28 -1,-4 -5,-6 -8,-5 -4,1 -5,4 -5,8 2,10 4,19 7,29 1,3 5,5 8,4 3,-1 5,-4 4,-8z"/>
   <path class="fil36" d="M336 1777c-2,-4 -6,-4 -9,-3 -1,1 -1,1 -2,1l-1 1c-1,0 -2,1 -3,1 -3,1 -5,2 -8,2 -5,2 -10,3 -16,4 -3,0 -5,5 -4,8 1,3 4,5 8,4 11,-1 22,-5 32,-10 3,-1 4,-6 3,-8z"/>
   <path class="fil36" d="M416 1754c-2,-3 -6,-4 -9,-3 -9,6 -19,10 -29,15 -3,1 -4,6 -2,9 2,3 5,3 9,2 9,-5 19,-9 29,-14 2,-2 4,-6 2,-9z"/>
   <path class="fil36" d="M452 1734c-4,-4 -8,-7 -11,-11 -2,-2 -4,-4 -5,-6 -1,-1 -2,-2 -3,-3l0 0 0 -1c-1,-1 -1,-1 -1,-2 -1,-1 -2,-2 -4,-3 -2,0 -4,0 -5,1 -3,2 -5,6 -3,9 7,9 15,17 23,25 2,2 6,3 9,0 2,-2 2,-7 0,-9z"/>
   <path class="fil36" d="M469 1761c-4,-1 -7,1 -8,5 -2,7 -4,15 -6,23 -1,3 1,7 4,8 4,1 7,-1 8,-5 2,-7 4,-15 6,-23 1,-3 -1,-7 -4,-8z"/>
   <path class="fil36" d="M422 1796c-3,-1 -7,1 -8,4 -1,8 -3,15 -5,23 -1,3 1,7 4,7 4,1 8,-1 8,-4l6 -22c1,-3 -1,-7 -5,-8z"/>
   <path class="fil36" d="M372 1826c-3,-5 -5,-9 -7,-14 -1,-2 -2,-4 -3,-6l-1 -1c0,-1 0,-1 0,-2 -1,-1 -1,-2 -2,-4 -1,-3 -4,-5 -8,-4 -3,1 -5,4 -4,8 4,10 8,20 14,29 1,3 6,4 9,2 2,-2 4,-5 2,-8z"/>
   <path class="fil36" d="M348 1847c-1,-3 -4,-5 -8,-4 -4,1 -9,2 -13,3 -2,0 -3,0 -4,0l-1 0c-1,-1 -3,-2 -4,-2 -4,1 -6,3 -7,7 0,4 3,7 7,8 3,1 6,0 9,0 5,-1 11,-3 17,-4 3,-1 5,-5 4,-8z"/>
   <path class="fil36" d="M307 1814c-4,-2 -7,-1 -9,2 -2,3 -4,5 -6,8 -3,4 -6,8 -10,12 -3,2 -3,7 0,9 2,2 6,2 9,0 7,-7 13,-14 18,-22 2,-3 1,-8 -2,-9z"/>
   <path class="fil36" d="M301 1902l0 0 0 0c-1,-1 -1,-1 -1,-2 -1,-1 -2,-2 -2,-2 -2,-2 -3,-4 -4,-6 -3,-4 -5,-8 -7,-12 -1,-3 -6,-4 -9,-2 -3,2 -4,5 -2,9 5,8 10,16 16,24 1,1 3,2 5,2 1,0 3,-1 4,-2 1,-1 2,-3 2,-4 0,-2 -1,-4 -2,-5z"/>
   <path class="fil36" d="M364 1887c-2,-3 -6,-4 -9,-2 -2,0 -3,1 -5,2 -4,2 -9,3 -13,4 -2,0 -3,1 -4,2 -1,2 -1,4 -1,5 1,2 2,4 3,4 1,1 1,1 2,1 1,0 2,0 3,0 8,-1 15,-4 21,-7 3,-2 5,-6 3,-9z"/>
   <path class="fil36" d="M409 1877c-3,-8 -6,-16 -8,-25 -2,-3 -5,-5 -8,-4 -4,1 -6,4 -5,8 3,8 6,16 9,24 1,4 4,6 8,5 3,-1 5,-5 4,-8z"/>
   <path class="fil36" d="M460 1895c-2,-3 -6,-4 -9,-3 -2,1 -3,2 -5,3l-1 1 0 0c-1,0 -2,0 -3,1 -3,1 -7,2 -10,2l-1 0c-2,0 -3,1 -4,2 -2,1 -2,3 -2,5 0,3 3,6 6,6 9,-1 18,-4 26,-8 3,-2 5,-6 3,-9z"/>
   <path class="fil36" d="M471 1847c-1,-4 -5,-6 -8,-5l-21 7c-3,1 -6,5 -4,8 1,3 4,6 7,4l21 -7c3,-1 6,-4 5,-7z"/>
   <path class="fil36" d="M506 1841c-5,-12 -10,-24 -16,-36 -1,-4 -6,-4 -9,-3 -3,2 -3,6 -2,9 5,12 11,24 16,36 1,3 6,4 9,2 3,-2 4,-5 2,-8z"/>
   <path class="fil36" d="M520 1862c-3,-1 -7,0 -9,3 -5,8 -9,16 -12,25 -1,1 0,3 0,4 1,2 3,3 4,3 4,1 7,-1 8,-4 0,-1 1,-2 1,-3l0 -1c1,0 1,0 1,-1 1,-2 2,-4 3,-6 2,-3 4,-7 6,-11 2,-3 1,-7 -2,-9z"/>
   <path class="fil36" d="M488 1917c0,-4 -3,-7 -6,-7 -4,1 -7,3 -7,7 0,10 1,21 1,31 0,3 3,7 6,7 4,-1 7,-3 7,-7 -1,-10 -1,-21 -1,-31z"/>
   <path class="fil36" d="M438 1945c0,-4 -3,-7 -6,-7 -4,0 -7,3 -7,7l2 24c0,3 3,7 6,6 4,0 7,-2 7,-6l-2 -24z"/>
   <path class="fil36" d="M393 1940l-19 0c-3,0 -6,3 -6,7 0,3 3,6 6,6l19 0c3,0 6,-3 6,-6 0,-4 -3,-7 -6,-7z"/>
   <path class="fil36" d="M358 1916c-3,-2 -7,-1 -9,2 -2,4 -5,8 -7,12 -1,1 -2,2 -2,3l-1 0 0 1 0 0 -1 1c-1,1 -3,3 -4,5 -2,2 -3,7 0,9 2,2 6,3 9,0 7,-7 12,-16 17,-24 2,-3 1,-7 -2,-9z"/>
   <path class="fil36" d="M304 1962c-4,-8 -8,-15 -11,-23 -2,-3 -6,-4 -9,-2 -3,2 -4,6 -2,9 3,7 7,15 11,22 1,3 6,5 9,3 3,-2 4,-6 2,-9z"/>
   <path class="fil36" d="M321 2001c-2,-2 -6,-4 -9,-2 -4,2 -7,4 -11,6 -2,1 -4,2 -6,3 0,0 -1,0 -2,1 1,-1 1,-1 0,0l-1 0c0,0 -1,0 -1,1 -2,0 -3,1 -4,3 -1,1 -1,3 -1,4 1,2 2,4 3,4 2,1 3,2 5,1 8,-3 17,-7 24,-12 3,-1 5,-6 3,-9z"/>
   <path class="fil36" d="M371 1989c-6,-4 -11,-7 -17,-11 -2,-1 -7,0 -8,3 -2,3 -1,7 2,8 5,4 11,7 16,11 3,2 7,1 9,-2 2,-4 1,-7 -2,-9z"/>
   <path class="fil36" d="M424 2009l-6 -23c-1,-4 -5,-6 -8,-5 -3,1 -5,5 -5,8 2,8 4,16 6,23 1,4 5,6 8,5 3,-1 5,-5 5,-8z"/>
   <path class="fil36" d="M383 2021c-2,-3 -5,-4 -8,-2 -10,5 -18,10 -26,17 -3,2 -3,7 0,9 3,3 6,2 9,0 1,-1 2,-1 3,-2l0 -1 1 0 1 -1c2,-1 3,-2 6,-4 4,-2 8,-5 12,-7 3,-1 4,-6 2,-9z"/>
   <path class="fil36" d="M471 2027c-8,-1 -17,-2 -26,-3 -1,-1 -3,-1 -5,0 -1,1 -2,2 -2,4 -1,3 0,7 4,8 9,1 17,2 26,4 1,0 3,0 5,-1 1,-1 2,-2 3,-4 0,-3 -1,-7 -5,-8z"/>
   <path class="fil36" d="M498 1979c-1,-2 -2,-3 -4,-3 -1,-1 -3,0 -5,1 -7,3 -15,6 -23,10 -1,0 -3,2 -3,3 0,2 0,4 1,5 1,2 2,3 4,3 1,1 3,0 5,0 7,-4 15,-7 23,-10 1,-1 2,-3 3,-4 0,-2 0,-4 -1,-5z"/>
   <path class="fil36" d="M541 1956c-4,-8 -9,-15 -15,-22 -2,-2 -7,-2 -9,0 -3,3 -3,7 0,9 1,2 2,3 3,4 3,5 7,10 10,16 1,3 6,4 9,2 3,-2 3,-5 2,-9z"/>
   <path class="fil36" d="M536 2000c-3,-1 -7,0 -9,3 -4,7 -8,14 -12,21 -2,2 -1,7 2,8 3,2 7,1 9,-2 4,-7 8,-14 13,-21 1,-3 0,-7 -3,-9z"/>
   <path class="fil38" d="M228 1914c-12,-7 -24,-14 -37,-20 -3,-2 -7,-1 -9,2 -1,3 0,7 3,9 12,7 24,13 37,20 3,1 7,1 8,-2 2,-3 1,-8 -2,-9z"/>
   <path class="fil38" d="M246 1931c0,-1 -1,-3 -3,-4 -3,-1 -7,-1 -9,3 -3,8 -7,16 -11,24 0,2 -1,4 0,5 0,2 1,3 3,4 3,2 7,1 9,-2 3,-8 7,-17 11,-25 0,-1 1,-3 0,-5z"/>
   <path class="fil38" d="M170 1971c-3,-8 -5,-17 -7,-25 -1,-3 -5,-5 -8,-4 -3,1 -5,4 -4,8 2,8 4,16 6,24 1,3 5,6 8,5 3,-1 6,-5 5,-8z"/>
   <path class="fil38" d="M211 2001c-2,-3 -6,-4 -9,-2 -2,1 -4,2 -6,3 -1,0 -2,1 -3,1l0 0c-1,1 -1,1 -2,1 -4,2 -8,3 -12,4 -3,1 -5,5 -4,8 1,3 4,6 8,5 9,-3 17,-6 25,-11 3,-1 5,-6 3,-9z"/>
   <path class="fil38" d="M205 1964c-2,-10 -6,-19 -11,-28 -1,-3 -6,-4 -9,-3 -3,2 -4,6 -2,9 1,2 2,5 3,7 1,1 1,2 2,3l0 0c0,1 0,1 1,2 1,4 3,9 4,13 1,3 5,6 8,5 3,-1 5,-5 4,-8z"/>
   <path class="fil38" d="M156 2013c-2,-3 -5,-4 -8,-2 -1,0 -2,1 -3,1l-1 0 -1 1c-2,1 -4,1 -5,2 -4,1 -8,2 -12,3 -3,1 -6,5 -4,8 1,4 4,6 7,5 9,-2 17,-5 25,-9 1,-1 3,-2 3,-4 0,-1 0,-3 -1,-5z"/>
   <path class="fil38" d="M253 2017c-3,-7 -5,-15 -6,-23 0,-2 -2,-3 -3,-4 -1,-1 -4,-1 -5,-1 -4,2 -5,5 -5,8 2,8 4,16 7,23 0,2 1,3 3,4 1,1 3,1 5,1 3,-1 5,-5 4,-8z"/>
   <path class="fil38" d="M250 1857c-3,-2 -7,-1 -9,2l-17 28c-2,3 -1,7 2,9 3,1 7,0 9,-3 6,-9 12,-18 17,-27 2,-3 1,-8 -2,-9z"/>
   <path class="fil38" d="M253 1754c-6,-10 -12,-20 -19,-29 -2,-3 -6,-4 -9,-2 -3,1 -4,5 -2,8 7,10 13,20 19,30 2,2 6,4 9,2 3,-2 4,-6 2,-9z"/>
   <path class="fil38" d="M259 1675c-1,-3 -5,-4 -8,-2 -8,5 -16,9 -24,13 -2,1 -3,2 -3,4 -1,1 -1,3 0,5 2,3 6,4 9,2 8,-4 16,-8 24,-13 3,-2 4,-6 2,-9z"/>
   <path class="fil38" d="M289 1659c-4,0 -7,3 -7,7 0,2 0,4 0,6 0,1 0,2 0,3l0 -1 0 1c0,1 0,1 0,2 -1,2 -1,4 -2,6 0,1 -1,2 -1,3 0,0 0,1 0,1l0 0 -1 1c0,1 -1,3 0,5 0,1 1,3 3,4 2,1 7,1 8,-3 5,-9 7,-19 6,-28 0,-4 -3,-7 -6,-7z"/>
   <path class="fil38" d="M344 1644c-9,1 -18,1 -28,2 -3,0 -6,2 -6,6 0,3 3,7 6,7 10,-1 19,-2 28,-2 4,0 7,-3 7,-7 0,-3 -3,-6 -7,-6z"/>
   <path class="fil38" d="M400 1652c-5,-9 -13,-16 -21,-20 -2,-1 -4,-1 -5,0 -2,0 -3,1 -4,3 -2,2 -1,7 2,8 3,2 5,3 7,4 2,2 5,5 7,7 1,1 2,3 2,4 2,3 6,5 9,3 3,-2 4,-6 3,-9z"/>
   <path class="fil38" d="M470 1690c-4,-9 -9,-19 -15,-28 -1,-3 -5,-4 -8,-2 -3,2 -5,6 -3,9 3,4 6,8 8,12 1,3 2,5 3,7 0,0 1,2 0,0 0,1 1,2 1,2 0,1 1,3 1,4 1,3 5,6 8,4 3,-1 6,-4 5,-8z"/>
   <path class="fil38" d="M502 1719c-4,0 -9,-1 -13,-3 -2,0 -5,-1 -7,-2l0 0c-1,-1 -1,-1 -2,-1 -1,-1 -2,-1 -3,-2 -3,-1 -7,0 -9,3 -1,3 -1,7 2,9 9,4 19,7 29,9 2,0 3,0 5,-1 1,-1 2,-2 3,-4 0,-3 -1,-7 -5,-8z"/>
   <path class="fil38" d="M530 1773c0,-3 -3,-6 -7,-6 -3,0 -6,3 -6,6 0,9 0,18 -1,27 0,1 1,3 2,4 1,1 3,2 4,2 2,0 4,0 5,-2 1,-1 1,-2 2,-4 1,-9 1,-18 1,-27z"/>
   <path class="fil38" d="M557 1853c-2,-2 -4,-4 -6,-7 -3,-3 -5,-6 -7,-10 0,-1 -2,-3 -3,-3 -2,0 -4,0 -5,1 -2,1 -3,2 -3,3 -1,2 0,4 0,5 4,8 9,15 15,20 1,1 3,2 5,2 1,0 3,0 4,-2 2,-2 3,-6 0,-9z"/>
   <path class="fil38" d="M563 1898c-1,-3 -3,-6 -7,-6 -3,0 -6,3 -6,6 0,4 0,7 -1,10 0,3 -1,6 -1,8 -1,3 1,7 4,8 4,1 7,-1 8,-4 2,-7 3,-15 3,-22z"/>
   <path class="fil39" d="M603 2058c-13,-45 -20,-92 -29,-139 9,47 16,94 29,139z"/>
   <path class="fil40" d="M559 1849c0,-2 -1,-4 -1,-6 -12,-45 -27,-88 -51,-127 -14,-22 -31,-42 -50,-59 33,-20 56,-53 36,-94 -4,-9 -8,-16 -10,-24 21,5 42,12 60,25 23,16 40,41 40,69 0,0 0,0 0,1 0,19 -9,39 -23,52 -4,3 -8,8 -8,12 0,1 0,2 0,3 1,2 4,3 6,5 23,16 37,44 37,72 0,0 0,0 0,0 0,28 -14,55 -36,71z"/>
   <path class="fil9" d="M580 1918c-2,0 -4,0 -6,0 -2,-10 -4,-19 -6,-29 -3,-13 -5,-27 -9,-40 22,-16 36,-43 36,-71 0,0 0,0 0,0 0,-28 -14,-56 -37,-72 -2,-2 -5,-3 -6,-5 0,-1 0,-2 0,-3 0,-4 4,-9 8,-12 14,-13 23,-33 23,-52 0,-1 0,-1 0,-1 0,-28 -17,-53 -40,-69 -18,-13 -39,-20 -60,-25 -3,-8 -5,-16 -6,-26 -2,-18 0,-37 1,-55 2,-29 2,-58 -7,-85 -14,-40 -44,-69 -81,-88 -70,-36 -172,-41 -215,-115 -3,-6 -9,-8 -15,-8 -1,0 -2,0 -4,0l1 0c28,-25 64,-38 102,-43 8,-1 17,-1 25,-1 82,0 164,45 205,117 23,38 34,82 50,123 -7,7 -11,18 -11,28 0,5 0,9 2,14 1,2 2,4 2,7 0,0 0,1 0,1 0,3 -3,5 -5,7 -8,8 -14,17 -18,28l0 0c-1,3 -2,5 -2,8l0 0c-2,6 -3,13 -3,20 0,19 6,38 17,54 21,29 55,45 90,51 3,1 7,1 10,2 2,0 3,0 4,0 6,1 12,1 18,1 15,0 29,-2 42,-8 3,-1 6,-3 9,-4 2,5 4,10 5,16 2,9 3,18 3,28 0,27 -9,54 -26,75 -10,12 -22,22 -34,32 -2,2 -5,5 -6,8 0,1 0,1 0,2 0,5 4,9 8,13 20,21 32,50 32,79 0,14 -3,27 -8,39 -2,5 -4,9 -7,13 -17,28 -49,46 -81,46z"/>
   <path class="fil41" d="M603 2058l-28 0c-28,-84 -38,-175 -70,-258 -15,-40 -36,-79 -69,-104 -15,-11 -33,-20 -52,-23 7,0 14,1 21,1 6,0 11,0 16,-2 8,-2 15,-5 23,-9 -1,2 -1,4 0,6 3,4 6,8 8,12 1,3 2,5 3,7 0,0 0,1 0,1 0,0 0,0 0,-1 0,1 1,2 1,2 0,1 1,3 1,4 1,3 4,5 6,5 1,0 2,0 2,-1 3,-1 6,-4 5,-8 -4,-9 -9,-19 -15,-28 0,-1 -2,-2 -3,-3 1,-1 3,-1 5,-2 19,17 36,37 50,59 24,39 39,82 51,127 0,2 1,4 1,6 4,13 6,27 9,40 2,10 4,19 6,29l0 0c0,1 0,1 0,1 9,47 16,94 29,139l0 0zm-47 -166c0,0 0,0 0,0 -3,0 -6,3 -6,6 0,4 0,7 -1,10 0,3 -1,6 -1,8 -1,3 1,7 4,8 1,0 1,0 2,0 3,0 5,-1 6,-4 2,-7 3,-15 3,-22 -1,-3 -3,-6 -7,-6zm-17 -59c-1,0 -2,0 -3,1 -2,1 -3,2 -3,3 -1,2 0,4 0,5 4,8 9,15 15,20 1,1 3,2 5,2 1,0 3,0 4,-2 2,-2 3,-6 0,-9 -2,-2 -4,-4 -6,-7 -3,-3 -5,-6 -7,-10 0,-1 -2,-3 -3,-3 -1,0 -2,0 -2,0zm-15 -66c0,0 -1,0 -1,0 -3,0 -6,3 -6,6 0,9 0,18 -1,27 0,1 1,3 2,4 1,1 3,2 4,2 0,0 0,0 0,0 2,0 4,0 5,-2 1,-1 1,-2 2,-4 1,-9 1,-18 1,-27 0,-3 -3,-6 -6,-6zm-50 -56c-3,0 -5,1 -6,3 -1,3 -1,7 2,9 9,4 19,7 29,9 0,0 1,0 2,0 1,0 2,0 3,-1 1,-1 2,-2 3,-4 0,-3 -1,-7 -5,-8 -4,0 -9,-1 -13,-3 -2,0 -5,-1 -7,-2l0 0c-1,-1 -1,-1 -2,-1 -1,-1 -2,-1 -3,-2 -1,0 -2,0 -3,0zm-126 -39c1,0 1,0 2,0 -1,0 -1,0 -2,0z"/>
   <path class="fil42" d="M575 2058l-73 0c6,-52 5,-105 -3,-157 -5,-37 -14,-76 -31,-112 2,-6 4,-13 5,-20 1,-3 -1,-7 -4,-8 -1,0 -1,0 -2,0 -3,0 -5,2 -6,5 -1,2 -1,4 -2,6 -13,-25 -31,-47 -54,-64 -12,-10 -43,-30 -57,-36 0,0 0,0 0,0 1,0 1,0 2,0 3,-1 6,-1 8,-1 7,0 15,1 23,2 1,0 2,0 3,0 19,3 37,12 52,23 33,25 54,64 69,104 32,83 42,174 70,258l0 0zm-42 -58c-2,0 -4,1 -6,3 -4,7 -8,14 -12,21 -2,2 -1,7 2,8 1,1 2,1 3,1 2,0 4,-1 6,-3 4,-7 8,-14 13,-21 1,-3 0,-7 -3,-9 -1,0 -2,0 -3,0zm-12 -68c-1,0 -3,1 -4,2 -3,3 -3,7 0,9 1,2 2,3 3,4 3,5 7,10 10,16 1,2 3,3 5,3 1,0 3,0 4,-1 3,-2 3,-5 2,-9 -4,-8 -9,-15 -15,-22 -1,-1 -3,-2 -5,-2zm-4 -70c-3,0 -5,1 -6,3 -5,8 -9,16 -12,25 -1,1 0,3 0,4 1,2 3,3 4,3 1,1 1,1 2,1 3,0 5,-2 6,-5 0,-1 1,-2 1,-3l0 -1c1,0 1,0 1,-1 1,-2 2,-4 3,-6 2,-3 4,-7 6,-11 2,-3 1,-7 -2,-9 -1,0 -2,0 -3,0zm-32 -61c-2,0 -3,1 -4,1 -3,2 -3,6 -2,9 5,12 11,24 16,36 1,2 3,3 6,3 1,0 2,0 3,-1 3,-2 4,-5 2,-8 -5,-12 -10,-24 -16,-36 -1,-2 -3,-4 -5,-4zm-59 -93c-1,0 -2,0 -3,1 -3,2 -5,6 -3,9 7,9 15,17 23,25 1,1 3,2 4,2 2,0 4,-1 5,-2 2,-2 2,-7 0,-9 -4,-4 -8,-7 -11,-11 -2,-2 -4,-4 -5,-6 -1,-1 -2,-2 -3,-3l0 0 0 -1c-1,-1 -1,-1 -1,-2 -1,-1 -2,-2 -4,-3 -1,0 -1,0 -2,0z"/>
   <path class="fil41" d="M447 1745c-1,0 -3,-1 -4,-2 -8,-8 -16,-16 -23,-25 -2,-3 0,-7 3,-9 1,-1 2,-1 3,-1 1,0 1,0 2,0 2,1 3,2 4,3 0,1 0,1 1,2l0 1 0 0c1,1 2,2 3,3 1,2 3,4 5,6 3,4 7,7 11,11 2,2 2,7 0,9 -1,1 -3,2 -5,2z"/>
   <path class="fil41" d="M468 1789c-3,-6 -6,-11 -9,-17 1,-2 1,-4 2,-6 1,-3 3,-5 6,-5 1,0 1,0 2,0 3,1 5,5 4,8 -1,7 -3,14 -5,20z"/>
   <path class="fil41" d="M501 1850c-3,0 -5,-1 -6,-3 -5,-12 -11,-24 -16,-36 -1,-3 -1,-7 2,-9 1,0 2,-1 4,-1 2,0 4,2 5,4 6,12 11,24 16,36 2,3 1,6 -2,8 -1,1 -2,1 -3,1z"/>
   <path class="fil41" d="M505 1898c-1,0 -1,0 -2,-1 -1,0 -3,-1 -4,-3 0,-1 -1,-3 0,-4 3,-9 7,-17 12,-25 1,-2 3,-3 6,-3 1,0 2,0 3,0 3,2 4,6 2,9 -2,4 -4,8 -6,11 -1,2 -2,4 -3,6 0,1 0,1 -1,1l0 1c0,1 -1,2 -1,3 -1,3 -3,5 -6,5z"/>
   <path class="fil41" d="M535 1966c-2,0 -4,-1 -5,-3 -3,-6 -7,-11 -10,-16 -1,-1 -2,-2 -3,-4 -3,-2 -3,-6 0,-9 1,-1 3,-2 4,-2 2,0 4,1 5,2 6,7 11,14 15,22 1,4 1,7 -2,9 -1,1 -3,1 -4,1z"/>
   <path class="fil41" d="M520 2033c-1,0 -2,0 -3,-1 -3,-1 -4,-6 -2,-8 4,-7 8,-14 12,-21 2,-2 4,-3 6,-3 1,0 2,0 3,0 3,2 4,6 3,9 -5,7 -9,14 -13,21 -2,2 -4,3 -6,3z"/>
   <path class="fil43" d="M463 1699c-2,0 -5,-2 -6,-5 0,-1 -1,-3 -1,-4 0,0 -1,-1 -1,-2 0,1 0,1 0,1 0,0 0,-1 0,-1 -1,-2 -2,-4 -3,-7 -2,-4 -5,-8 -8,-12 -1,-2 -1,-4 0,-6 3,-1 5,-2 8,-4 1,1 3,2 3,3 6,9 11,19 15,28 1,4 -2,7 -5,8 0,1 -1,1 -2,1z"/>
   <path class="fil43" d="M501 1732c-1,0 -2,0 -2,0 -10,-2 -20,-5 -29,-9 -3,-2 -3,-6 -2,-9 1,-2 3,-3 6,-3 1,0 2,0 3,0 1,1 2,1 3,2 1,0 1,0 2,1l0 0c2,1 5,2 7,2 4,2 9,3 13,3 4,1 5,5 5,8 -1,2 -2,3 -3,4 -1,1 -2,1 -3,1z"/>
   <path class="fil43" d="M522 1806c-1,0 -3,-1 -4,-2 -1,-1 -2,-3 -2,-4 1,-9 1,-18 1,-27 0,-3 3,-6 6,-6 0,0 1,0 1,0 3,0 6,3 6,6 0,9 0,18 -1,27 -1,2 -1,3 -2,4 -1,2 -3,2 -5,2 0,0 0,0 0,0z"/>
   <path class="fil43" d="M553 1864c-2,0 -4,-1 -5,-2 -6,-5 -11,-12 -15,-20 0,-1 -1,-3 0,-5 0,-1 1,-2 3,-3 1,-1 2,-1 3,-1 0,0 1,0 2,0 1,0 3,2 3,3 2,4 4,7 7,10 2,3 4,5 6,7 3,3 2,7 0,9 -1,2 -3,2 -4,2z"/>
   <path class="fil43" d="M554 1924c-1,0 -1,0 -2,0 -3,-1 -5,-5 -4,-8 0,-2 1,-5 1,-8 1,-3 1,-6 1,-10 0,-3 3,-6 6,-6 0,0 0,0 0,0 4,0 6,3 7,6 0,7 -1,15 -3,22 -1,3 -3,4 -6,4z"/>
   <path class="fil44" d="M1636 1002c15,28 31,55 47,82 5,8 11,17 20,19 10,2 20,-4 25,-12 6,-8 10,-18 15,-26 16,29 48,49 81,50 0,0 0,1 1,2 -57,10 -114,22 -167,43 2,-16 3,-31 5,-47 -24,1 -48,0 -71,-2 -5,-1 -10,-2 -14,-4 -6,-5 -8,-13 -9,-20 -5,-29 -10,-59 -15,-88 -6,1 -12,1 -18,2 -1,0 -2,0 -2,-1 -1,0 -1,-1 -1,-1 -2,-49 5,-97 20,-143 3,0 6,-1 8,-1 10,-3 21,-7 31,-5 -4,31 0,63 12,92 4,-10 9,-20 14,-30 4,-4 8,-8 13,-11 7,-4 15,-7 24,-5 12,3 21,16 22,29 1,13 -3,26 -10,37 -8,15 -18,29 -31,40z"/>
   <path class="fil2" d="M1824 1115c-33,-1 -65,-21 -81,-50 -5,8 -9,18 -15,26 -5,8 -15,14 -25,12 -9,-2 -15,-11 -20,-19 -16,-27 -32,-54 -47,-82 13,-11 23,-25 31,-40 7,-11 11,-24 10,-37 -1,-13 -10,-26 -22,-29 -9,-2 -17,1 -24,5 -5,3 -9,7 -13,11 -5,10 -10,20 -14,30 -12,-29 -16,-61 -12,-92 -10,-2 -21,2 -31,5 -2,0 -5,1 -8,1 -8,0 -16,-2 -20,-9 -6,-10 2,-23 11,-31 12,-11 25,-20 39,-27 -32,-11 -68,-26 -79,-58 -2,-4 -3,-9 0,-13 4,-4 10,-3 16,-2 20,4 41,4 61,0 52,-9 98,-41 151,-44 -9,-23 3,-51 25,-62 5,32 25,62 53,78 33,19 75,20 104,44 23,19 35,50 34,80 0,30 -12,59 -28,85 8,-4 18,3 21,11 3,9 0,18 -3,26 -14,33 -43,57 -67,84 -24,26 -44,62 -35,96 -4,1 -8,1 -12,1z"/>
   <path class="fil45" d="M1658 1160c53,-21 110,-33 167,-43 6,20 14,41 23,61 1,3 3,7 6,10 3,3 8,6 12,8 33,15 78,29 119,48 45,20 73,65 73,114l0 700 -762 0 -3 -2c56,-104 82,-222 75,-339 -1,-15 -3,-31 4,-45 6,-14 19,-28 12,-41 -3,-5 -9,-9 -12,-14 -10,-13 0,-31 10,-44 10,-13 20,-31 10,-45 -5,-6 -15,-12 -12,-20 0,-3 3,-5 5,-6 14,-9 33,-8 45,-18 16,-13 16,-36 11,-55 -5,-20 -12,-39 -7,-58 6,-24 30,-38 53,-46 23,-7 47,-11 68,-23 25,-13 42,-39 45,-66l4 0c0,-13 1,-26 1,-39 1,-4 1,-7 3,-10 1,-3 4,-5 7,-6 14,-8 29,-15 43,-21z"/>
   <path class="fil46" d="M1629 1250c0,6 0,12 0,17 0,10 -1,20 -5,29 -13,30 -50,38 -78,45 -17,3 -33,7 -48,15 -7,4 -14,8 -19,14 -5,7 -4,15 -1,23 4,8 8,15 11,24 3,8 4,17 3,26 -2,19 -16,31 -27,45 -9,12 -16,28 -9,42 3,7 11,12 12,19 1,6 -3,12 -7,16 -9,10 -19,19 -20,33 -1,16 8,30 7,46 -1,14 -13,24 -23,33 -9,10 -16,21 -15,34 2,16 11,28 16,43 5,17 -2,33 -9,48 -8,17 -13,32 -13,50 0,20 3,40 0,59 -3,20 -10,39 -17,58 -7,19 -14,38 -20,58 -4,9 -7,19 -11,29 0,1 0,1 0,2l9 0 0 0c13,-39 28,-77 40,-116 6,-19 10,-38 9,-58 -1,-19 -4,-39 2,-57 5,-17 15,-31 19,-47 4,-16 -1,-30 -7,-44 -7,-14 -14,-29 -5,-43 7,-11 19,-18 26,-29 9,-13 8,-27 5,-41 -2,-8 -5,-15 -5,-23 1,-8 5,-14 10,-20 7,-8 19,-17 18,-30 0,-7 -4,-12 -9,-17 -6,-8 -8,-15 -5,-24 5,-17 20,-27 29,-41 10,-15 11,-33 7,-49 -3,-8 -6,-16 -10,-24 -2,-4 -5,-8 -5,-13 0,-6 3,-9 7,-12 15,-11 32,-15 49,-19 29,-7 63,-13 83,-38 11,-13 14,-29 14,-46 0,-6 0,-12 0,-18 -3,1 -5,1 -8,1z"/>
   <path class="fil46" d="M1708 1238c-3,0 -5,1 -8,2 1,6 2,11 3,17 4,29 2,60 -20,82 -17,17 -41,26 -60,41 -10,7 -18,15 -24,26 -6,13 -8,27 -10,41 -1,16 -1,32 -6,46 -5,14 -14,25 -23,35 -8,10 -17,21 -23,33 -6,15 -6,31 -4,46 2,18 4,35 0,53 -3,17 -8,34 -13,50 -9,35 -17,69 -24,104 -13,70 -22,140 -30,210 -1,9 -2,18 -3,27 -1,5 8,5 8,0 9,-71 17,-143 30,-213 6,-35 13,-70 22,-104 9,-34 23,-68 21,-103 -1,-17 -5,-33 -3,-50 2,-15 10,-28 19,-39 9,-11 18,-21 25,-33 7,-12 10,-27 12,-41 1,-15 1,-31 5,-45 4,-13 11,-24 21,-32 18,-16 42,-26 61,-41 22,-19 30,-45 29,-73 0,-13 -2,-26 -5,-39z"/>
   <path class="fil46" d="M1985 1262c-2,-7 -3,-14 -5,-20 -3,-2 -6,-3 -10,-5 3,11 6,23 8,34 4,27 5,55 4,82 -1,57 -12,113 -20,170 -8,55 -11,112 -11,168 -1,57 2,114 2,171 1,64 0,128 -7,191 -1,6 8,6 8,0 15,-116 5,-234 5,-351 0,-59 3,-118 11,-177 8,-57 19,-113 21,-171 1,-31 -1,-62 -6,-92z"/>
   <path class="fil46" d="M1864 1195c32,99 9,208 -3,309 -13,118 -18,236 -16,354 1,65 1,130 -12,194 -1,5 7,8 8,2 12,-57 13,-116 12,-175 0,-59 -1,-118 2,-177 2,-60 6,-120 13,-179 6,-59 17,-119 20,-178 2,-49 0,-99 -14,-146 -2,-1 -5,-2 -8,-3 0,-1 -1,-1 -2,-1z"/>
   <path class="fil46" d="M1759 1314c-1,-31 -2,-62 -5,-93 -3,1 -6,3 -8,4 2,26 3,52 4,79 1,59 -2,119 -6,179 -9,120 -25,239 -27,359 -2,68 2,135 12,202 1,5 9,3 8,-2 -18,-121 -13,-244 -2,-365 11,-121 25,-242 24,-363z"/>
   <path class="fil47" d="M1670 1538c-1,27 -2,55 -3,83 -3,100 -8,200 -14,301 -1,25 -2,50 -4,75 -1,12 -1,24 -2,37 -1,6 -1,12 -1,19 0,2 -1,3 -1,5l-125 0c13,-37 23,-76 28,-115 3,-21 4,-41 4,-62 1,-10 1,-19 4,-28 3,-10 9,-17 14,-25 12,-17 15,-36 17,-56 2,-21 4,-41 7,-62 14,-87 39,-171 63,-255 1,-4 8,-4 9,0 4,27 4,55 4,83z"/>
   <path class="fil47" d="M1833 1186c-70,33 -147,51 -224,53 -6,0 -6,9 0,9 79,-2 157,-21 228,-55 5,-2 1,-10 -4,-7z"/>
   <path class="fil7" d="M1827 1115c0,0 0,0 0,0 0,0 0,0 0,0l0 0zm0 0c3,0 6,0 9,-1 -3,1 -6,1 -9,1zm-3 0c0,0 0,0 0,0 0,0 0,0 0,0z"/>
   <path class="fil7" d="M1920 897c2,-1 3,-1 5,-1 -1,0 -1,0 -2,0 0,0 0,0 0,0 0,0 0,0 0,0 -1,0 -1,0 -2,1 0,0 0,0 0,0 0,0 -1,0 -1,0z"/>
   <path class="fil9" d="M1920 897l0 0c0,0 1,0 1,0 0,0 -1,0 -1,0zm1 0c1,-1 1,-1 2,-1 -1,0 -1,0 -2,1zm2 -1c0,0 0,0 0,0 0,0 0,0 0,0z"/>
   <path class="fil8" d="M1504 718c2,-2 5,-3 8,-3 -3,0 -6,1 -8,3z"/>
   <path class="fil7" d="M1565 718l0 0c5,0 10,-1 16,-2 -6,1 -11,2 -16,2z"/>
   <path class="fil10" d="M1552 719c4,0 8,0 13,-1l0 0c-5,1 -9,1 -13,1z"/>
   <path class="fil48" d="M1456 2020c-22,-17 -41,-36 -57,-58 2,-7 4,-13 6,-20 3,-8 5,-17 7,-25 19,1 39,2 58,2 3,0 6,0 9,0 -4,31 -8,62 -12,93 -3,2 -7,5 -11,8zm21 -16c3,-28 7,-57 11,-85 19,-1 39,-2 58,-3 -10,36 -39,65 -69,88zm-85 -51c-5,-7 -9,-14 -13,-22 8,-4 16,-8 24,-13 -3,12 -7,24 -11,35z"/>
   <path class="fil49" d="M1399 1962c-3,-3 -5,-6 -7,-9 4,-11 8,-23 11,-35 0,0 0,0 1,0l0 0c0,0 0,0 1,-1l4 0c1,0 2,0 3,0 -2,8 -4,17 -7,25 -2,7 -4,13 -6,20z"/>
   <path class="fil49" d="M1467 2012c4,-31 8,-62 12,-93 3,0 6,0 9,0 -4,28 -8,57 -11,85 0,0 -1,1 -1,1 -3,2 -6,4 -9,7z"/>
   <path class="fil50" d="M1658 1159c2,-16 3,-31 5,-46 0,0 0,0 0,0 -2,15 -3,30 -5,46z"/>
   <path class="fil50" d="M1651 1113c-20,0 -40,-1 -59,-2 -5,-1 -10,-2 -14,-4 -6,-5 -8,-13 -9,-20 -3,-17 -6,-34 -9,-51l0 0c3,17 6,34 9,51 1,7 3,15 9,20 4,2 9,3 14,4 19,1 39,2 59,2l0 0z"/>
   <path class="fil51" d="M1707 1104c0,0 0,0 0,0 0,0 0,0 0,0l0 0zm0 0c8,0 16,-6 21,-13 -5,7 -13,13 -21,13z"/>
   <path class="fil52" d="M1631 901c0,0 0,0 0,0 0,0 0,0 0,0zm0 0c5,-3 12,-6 18,-6 -6,0 -13,3 -18,6zm24 -5c0,0 0,0 0,0 0,0 0,0 0,0zm-6 -1c0,0 0,0 0,0l0 0c0,0 0,0 0,0zm-88 -40c1,0 2,-1 3,-1 -1,0 -2,1 -3,1zm3 -1c0,0 0,0 0,0 0,0 0,0 0,0zm0 0c0,0 0,0 0,0 0,0 0,0 0,0zm0 0c0,0 0,0 0,0 0,0 0,0 0,0zm0 0c1,0 1,0 1,0 0,0 0,0 -1,0zm1 0c7,-2 15,-5 22,-5 -7,0 -15,3 -22,5zm22 -5l0 0z"/>
   <path class="fil53" d="M1658 1160c0,0 0,-1 0,-1 2,-16 3,-31 5,-46 0,0 0,0 0,0l0 0c-4,0 -8,0 -12,0 -20,0 -40,-1 -59,-2 -5,-1 -10,-2 -14,-4 -6,-5 -8,-13 -9,-20 -3,-17 -6,-34 -9,-51 -2,-13 -4,-25 -6,-37 -6,1 -12,1 -18,2 -1,0 -1,0 -1,0 -1,0 -1,0 -1,-1 -1,0 -1,-1 -1,-1 0,-6 0,-12 0,-18 0,-42 7,-85 20,-125l0 0c3,0 6,-1 8,-1l0 0c1,0 2,-1 3,-1 0,0 0,0 0,0 0,0 0,0 0,0 0,0 0,0 0,0 0,0 0,0 0,0 0,0 0,0 0,0 0,0 0,0 0,0l0 0c1,0 1,0 1,0l0 0c7,-2 15,-5 22,-5 0,0 0,0 0,0l0 0c2,0 3,0 5,1 -1,8 -2,16 -2,24 0,23 5,46 14,68 4,-10 9,-20 14,-30 4,-4 8,-8 13,-11l0 0c0,0 0,0 0,0l0 0c5,-3 12,-6 18,-6 0,0 0,0 0,0 0,0 0,0 0,0 2,0 4,1 6,1 0,0 0,0 0,0l0 0c12,3 21,16 22,29 0,1 0,3 0,4 0,12 -4,23 -10,33 -8,15 -18,29 -31,40l0 0c15,28 31,55 47,82 5,8 11,17 20,19 2,0 3,1 4,1 0,0 0,0 0,0l0 0c0,0 0,0 0,0 8,0 16,-6 21,-13 0,0 0,0 0,0 8,14 13,28 16,43 -30,6 -58,15 -86,26z"/>
   <path class="fil54" d="M1707 1104l0 0c0,0 0,0 0,0 -1,0 -2,-1 -4,-1 -9,-2 -15,-11 -20,-19 -16,-27 -32,-54 -47,-82l0 0c13,-11 23,-25 31,-40 6,-10 10,-21 10,-33 0,-1 0,-3 0,-4 -1,-13 -10,-26 -22,-29l0 0c0,0 0,0 0,0 -2,0 -4,-1 -6,-1 0,0 0,0 0,0l0 0c0,0 0,0 0,0 -6,0 -13,3 -18,6l0 0c0,0 0,0 0,0l0 0c-5,3 -9,7 -13,11 -5,10 -10,20 -14,30 -9,-22 -14,-45 -14,-68 0,-8 1,-16 2,-24l0 0c-2,-1 -3,-1 -5,-1l0 0c0,0 0,0 0,0 -7,0 -15,3 -22,5l0 0c0,0 0,0 -1,0l0 0c0,0 0,0 0,0 0,0 0,0 0,0 0,0 0,0 0,0 0,0 0,0 0,0 0,0 0,0 0,0 0,0 0,0 0,0 -1,0 -2,1 -3,1l0 0c-2,0 -5,1 -8,1l0 0c0,0 -1,0 -2,0 -7,0 -15,-2 -18,-9 -2,-2 -2,-5 -2,-7 0,-9 6,-18 13,-24 12,-11 25,-20 39,-27l0 0c-32,-11 -68,-26 -79,-58 4,12 12,21 21,29l0 0c59,25 123,33 181,59 22,9 46,22 58,44 13,24 7,50 -6,72 -20,34 -51,55 -79,81 -10,9 -3,13 6,25 11,13 24,25 35,38 3,4 6,8 8,12 0,0 0,0 0,0 -5,7 -13,13 -21,13 0,0 0,0 0,0z"/>
   <path class="fil48" d="M1663 1734c2,-38 3,-75 4,-113 1,-28 2,-56 3,-83 0,-4 0,-8 0,-12 9,9 19,18 27,27 13,14 27,31 36,49 -3,32 -6,65 -8,98 -16,14 -39,25 -62,34zm71 -44c0,-5 1,-9 1,-13 2,-20 4,-40 5,-60 2,5 3,9 5,13 6,26 1,45 -11,60zm-113 -107c-1,-11 -2,-22 -3,-33 -2,-18 -4,-36 -6,-53l0 0c-1,-3 -1,-6 -1,-8l0 0c-3,-22 -6,-44 -9,-65 0,-1 0,-1 0,-1 4,-13 11,-24 21,-32 18,-16 42,-26 61,-41 22,-19 30,-45 29,-73 0,-13 -2,-26 -5,-39 -3,0 -5,1 -8,2 1,6 2,11 3,17 4,29 2,60 -20,82 -17,17 -41,26 -60,41 -10,7 -18,15 -24,26 0,0 0,0 0,1 -4,-23 -8,-46 -12,-69 14,-5 27,-13 36,-25 11,-13 14,-29 14,-46 0,-6 0,-12 0,-18 -3,1 -5,1 -8,1 0,6 0,12 0,17 0,10 -1,20 -5,29 -7,17 -22,27 -38,33 -1,-1 -1,-3 -1,-4l0 0c-1,-3 -1,-5 -2,-8l0 0c-2,-11 -4,-21 -6,-32 12,-13 21,-31 23,-49l4 0c0,-13 1,-26 1,-39 1,-4 1,-7 3,-10 1,-3 4,-5 7,-6 14,-8 29,-15 43,-21l0 0c28,-11 56,-20 86,-26 1,8 2,17 2,26 1,20 0,39 2,58 -45,13 -92,20 -139,21 -6,0 -6,9 0,9 0,0 0,0 0,0 46,-1 92,-9 137,-21 2,26 3,51 4,77 0,3 0,7 0,10 -6,26 -19,49 -38,70 -25,27 -69,48 -69,90 0,6 1,12 3,18 -8,30 -17,61 -25,91z"/>
   <path class="fil49" d="M1587 1338c0,-3 -1,-6 -1,-9 16,-6 31,-16 38,-33 4,-9 5,-19 5,-29 0,-5 0,-11 0,-17 3,0 5,0 8,-1 0,6 0,12 0,18 0,17 -3,33 -14,46 -9,12 -22,20 -36,25z"/>
   <path class="fil49" d="M1602 1424c-1,-6 -2,-12 -3,-17 0,-1 0,-1 0,-1 6,-11 14,-19 24,-26 19,-15 43,-24 60,-41 22,-22 24,-53 20,-82 -1,-6 -2,-11 -3,-17 3,-1 5,-2 8,-2 3,13 5,26 5,39 1,28 -7,54 -29,73 -19,15 -43,25 -61,41 -10,8 -17,19 -21,32 0,0 0,0 0,1z"/>
   <path class="fil49" d="M1725 1700c2,-33 5,-66 8,-98 3,5 5,10 7,15 -1,20 -3,40 -5,60 0,4 -1,8 -1,13 -3,3 -6,7 -9,10zm25 -386c0,-3 0,-7 0,-10 -1,-26 -2,-51 -4,-77 1,0 2,0 2,-1 0,1 1,1 1,2 1,18 4,36 4,54 1,11 -1,22 -3,32z"/>
   <path class="fil55" d="M1615 1754c1,-7 3,-14 4,-21 0,-3 1,-6 1,-9 3,-22 4,-45 4,-68 0,-9 0,-18 0,-28l0 0c0,-2 0,-5 0,-8l0 0c-1,-12 -2,-24 -3,-37 8,-30 17,-61 25,-91 5,12 14,24 24,34 0,4 0,8 0,12 -1,27 -2,55 -3,83 -1,38 -2,75 -4,113 -16,7 -33,13 -48,20z"/>
   <path class="fil55" d="M1609 1248c-6,0 -6,-9 0,-9 47,-1 94,-8 139,-21 0,3 0,5 0,8 0,1 -1,1 -2,1 -45,12 -91,20 -137,21 0,0 0,0 0,0z"/>
   <path class="fil54" d="M1827 1115c-1,0 -2,0 -3,0 1,0 2,0 3,0z"/>
   <path class="fil51" d="M1941 908c0,0 0,0 0,0 0,0 0,0 0,0zm0 -1c-2,-4 -6,-8 -10,-10 -1,0 -1,0 -1,0l0 0c0,0 -1,0 -1,0l0 0c0,0 0,0 0,-1 -2,0 -3,0 -4,0 7,0 13,5 16,11z"/>
   <path class="fil54" d="M1931 897c-1,0 -1,0 -1,0 0,0 0,0 1,0zm-1 0c0,0 -1,0 -1,0 0,0 1,0 1,0zm-1 0c0,0 0,0 0,-1 0,1 0,1 0,1z"/>
   <path class="fil54" d="M1552 719l0 0c0,0 0,0 0,0 0,0 0,0 0,0zm0 0c-11,0 -21,-1 -31,-3 10,2 20,3 31,3zm-32 -3c0,0 0,0 0,0 0,0 0,0 0,0zm0 0c0,0 0,0 0,0 0,0 0,0 0,0zm0 0c0,0 -1,0 -1,0 0,0 1,0 1,0zm-1 0c-2,-1 -4,-1 -7,-1 3,0 5,0 7,1zm-7 -1c0,0 0,0 0,0l0 0c0,0 0,0 0,0z"/>
   <path class="fil28" d="M2058 1358c0,-49 -28,-93 -72,-114 44,21 72,65 72,114l0 0z"/>
   <path class="fil56" d="M1942 916c0,-2 0,-5 -1,-8 -2,-5 -6,-9 -10,-11 4,2 8,6 10,10 0,0 0,1 0,1 0,0 0,0 0,0 0,0 0,0 0,0 1,3 1,6 1,8l0 0zm-12 -19l0 0 0 0zm-9 0c0,0 0,0 0,0 0,0 0,0 0,0zm8 0l0 0 0 0zm0 -1c-2,0 -3,0 -4,0 -1,0 -1,0 -2,0 1,0 1,0 2,0 0,0 0,0 0,0 0,0 0,0 0,0 1,0 2,0 4,0zm-6 0c0,0 0,0 0,0 0,0 0,0 0,0z"/>
   <path class="fil56" d="M1729 657l0 0c0,-19 10,-38 27,-46 -17,8 -27,27 -27,46z"/>
   <path class="fil57" d="M1744 1134c-3,-15 -8,-29 -16,-43 0,0 0,0 0,0 6,-8 10,-18 15,-26 16,29 48,49 81,50l0 0c0,0 0,1 1,2 -27,5 -55,10 -81,17z"/>
   <path class="fil58" d="M1827 1115c0,0 0,0 0,0 -1,0 -2,0 -3,0 0,0 0,0 0,0l0 0c-33,-1 -65,-21 -81,-50 -5,8 -9,18 -15,26 0,0 0,0 0,0 -2,-4 -5,-8 -8,-12 -11,-13 -24,-25 -35,-38 -9,-12 -16,-16 -6,-25 28,-26 59,-47 79,-81 13,-22 19,-48 6,-72 -12,-22 -36,-35 -58,-44 -58,-26 -122,-34 -181,-59l0 0c-9,-8 -17,-17 -21,-29l0 0c-1,-2 -2,-4 -2,-7 0,-2 1,-4 2,-6 2,-2 5,-3 8,-3 0,0 0,0 0,0 0,0 0,0 0,0 3,0 5,0 7,1 0,0 0,0 0,0 0,0 1,0 1,0 0,0 0,0 0,0 0,0 0,0 0,0l0 0c0,0 0,0 0,0 0,0 1,0 1,0 10,2 20,3 31,3 0,0 0,0 0,0l0 0c0,0 0,0 0,0 10,0 19,-1 29,-3 52,-9 98,-41 151,-44l0 0c-2,-5 -3,-10 -3,-15 0,-19 10,-38 27,-46 0,0 1,-1 1,-1 5,32 25,62 53,78 33,19 75,20 104,44 23,18 34,49 34,78 0,1 0,1 0,2 0,30 -12,59 -28,85l0 0c0,0 0,0 0,0 0,0 1,0 1,0 0,0 0,0 0,0 1,-1 1,-1 2,-1 0,0 0,0 0,0 0,0 0,0 0,0 1,0 1,0 2,0 1,0 2,0 4,0 0,1 0,1 0,1l0 0c0,0 1,0 1,0l0 0c0,0 0,0 1,0 4,2 8,6 10,11 1,3 1,6 1,8 0,6 -1,11 -3,16 0,1 -1,1 -1,2 -14,33 -43,57 -67,84 -20,22 -37,50 -37,79l0 0c0,6 0,12 2,17 -3,1 -6,1 -9,1 0,0 0,0 0,0z"/>
   <path class="fil59" d="M2058 2058l-413 0c0,-2 1,-3 1,-5 0,-7 0,-13 1,-19 1,-13 1,-25 2,-37 2,-25 3,-50 4,-75 4,-63 7,-125 10,-188 23,-9 46,-20 62,-34 -4,47 -7,94 -8,142 -2,68 2,135 12,202 0,2 2,3 3,3 3,0 6,-2 5,-5 -17,-117 -13,-235 -3,-352 12,-15 17,-34 11,-60 -2,-4 -3,-8 -5,-13 10,-101 20,-202 19,-303 -1,-30 -2,-60 -5,-89 29,-9 56,-19 83,-32 5,-2 2,-8 -2,-8 -1,0 -1,0 -2,1 -28,13 -56,23 -85,32 -2,-19 -1,-38 -2,-58 0,-9 -1,-18 -2,-26 26,-7 54,-12 81,-17l0 0c6,20 14,41 23,61 1,3 3,7 6,10 3,3 6,5 10,7 32,99 9,208 -3,309 -13,118 -18,236 -16,354 1,65 1,130 -12,194 -1,3 2,5 5,5 1,0 3,-1 3,-3 12,-57 13,-116 12,-175 0,-59 -1,-118 2,-177 2,-60 6,-120 13,-179 6,-59 17,-119 20,-178 2,-49 0,-99 -14,-146 28,12 63,24 96,38 3,11 6,23 8,34 4,27 5,55 4,82 -1,57 -12,113 -20,170 -8,55 -11,112 -11,168 -1,57 2,114 2,171 1,64 0,128 -7,191 -1,3 1,5 3,5 3,0 5,-2 5,-5 15,-116 5,-234 5,-351 0,-59 3,-118 11,-177 8,-57 19,-113 21,-171 1,-31 -1,-62 -6,-92 -2,-7 -3,-14 -5,-20 2,0 3,1 5,2 0,0 1,0 1,0 44,21 72,65 72,114 0,0 0,0 0,0l0 0 0 700zm-538 0l-9 0c-2,-14 -5,-29 -9,-43 -6,8 -13,15 -20,22l0 0c-3,-2 -6,-4 -8,-5 1,-9 2,-19 3,-28 30,-23 59,-52 69,-88 2,0 3,-1 5,-1 -1,10 -2,19 -3,28 -5,39 -15,78 -28,115zm-54 -32c-4,-2 -7,-4 -10,-6 4,-3 8,-6 11,-8 0,4 -1,8 -1,12 0,1 0,2 0,2zm267 -424c-9,-18 -23,-35 -36,-49 -8,-9 -18,-18 -27,-27 0,-24 -1,-47 -4,-71 -1,-2 -2,-3 -4,-3 -2,0 -4,1 -5,3 -3,12 -7,25 -11,37 -2,-6 -3,-12 -3,-18 0,-42 44,-63 69,-90 19,-21 32,-44 38,-70 1,56 -2,113 -6,169 -3,40 -7,79 -11,119z"/>
   <path class="fil60" d="M1474 2032c-3,-2 -6,-4 -8,-6 0,0 0,-1 0,-2 0,-4 1,-8 1,-12 3,-3 6,-5 9,-7 0,0 1,-1 1,-1 -1,9 -2,19 -3,28z"/>
   <path class="fil60" d="M1949 2058c-2,0 -4,-2 -3,-5 7,-63 8,-127 7,-191 0,-57 -3,-114 -2,-171 0,-56 3,-113 11,-168 8,-57 19,-113 20,-170 1,-27 0,-55 -4,-82 -2,-11 -5,-23 -8,-34 4,2 7,3 10,5 2,6 3,13 5,20 5,30 7,61 6,92 -2,58 -13,114 -21,171 -8,59 -11,118 -11,177 0,117 10,235 -5,351 0,3 -2,5 -5,5z"/>
   <path class="fil60" d="M1838 2057c-3,0 -6,-2 -5,-5 13,-64 13,-129 12,-194 -2,-118 3,-236 16,-354 12,-101 35,-210 3,-309 1,0 2,0 2,1 3,1 6,2 8,3 14,47 16,97 14,146 -3,59 -14,119 -20,178 -7,59 -11,119 -13,179 -3,59 -2,118 -2,177 1,59 0,118 -12,175 0,2 -2,3 -3,3z"/>
   <path class="fil60" d="M1732 2047c-1,0 -3,-1 -3,-3 -10,-67 -14,-134 -12,-202 1,-48 4,-95 8,-142 3,-3 6,-7 9,-10 -10,117 -14,235 3,352 1,3 -2,5 -5,5zm8 -430c-2,-5 -4,-10 -7,-15 4,-40 8,-79 11,-119 4,-56 7,-113 6,-169 2,-10 4,-21 3,-32 0,-18 -3,-36 -4,-54 0,-1 -1,-1 -1,-2 2,0 4,-1 6,-1 3,29 4,59 5,89 1,101 -9,202 -19,303z"/>
   <path class="fil61" d="M1645 2058l-125 0c13,-37 23,-76 28,-115 1,-9 2,-18 3,-28 2,0 3,0 5,0 3,0 6,-1 9,-1 4,0 8,-1 10,-3 4,-2 5,-6 5,-10 0,-2 0,-3 0,-4 -1,-5 -4,-10 -7,-14l0 0c4,-7 8,-13 11,-21 1,-2 3,-5 4,-8 6,-16 10,-32 11,-48 7,-17 12,-35 16,-52 15,-7 32,-13 48,-20 -3,63 -6,125 -10,188 -1,25 -2,50 -4,75 -1,12 -1,24 -2,37 -1,6 -1,12 -1,19 0,2 -1,3 -1,5zm25 -532c-10,-10 -19,-22 -24,-34 4,-12 8,-25 11,-37 1,-2 3,-3 5,-3 2,0 3,1 4,3 3,24 4,47 4,71z"/>
   <path class="fil61" d="M1748 1226c0,-3 0,-5 0,-8 29,-9 57,-19 85,-32 1,-1 1,-1 2,-1 4,0 7,6 2,8 -27,13 -54,23 -83,32 -2,0 -4,1 -6,1z"/>
   <path class="fil62" d="M1502 2015c-6,8 -13,15 -20,22l0 0c-43,-25 -79,-62 -103,-106 8,-4 16,-8 25,-13 0,0 0,0 1,-1l4 0c49,3 98,2 147,-2 -11,36 -30,71 -54,100z"/>
   <path class="fil2" d="M1482 2037l0 0c7,-7 14,-14 20,-22 4,14 7,29 9,43l-729 0c3,-38 9,-75 15,-113 97,30 198,49 299,49 56,0 113,-7 167,-21 40,-10 79,-24 116,-42 24,44 60,81 103,106z"/>
   <path class="fil62" d="M1162 746c0,34 -10,69 -27,99 3,9 7,18 11,27 8,20 17,39 25,59 -27,74 -57,147 -91,218 -47,-52 -87,-112 -133,-165 0,-19 -1,-37 -2,-56 -1,-14 -2,-29 -4,-43 -34,-20 -63,-50 -79,-86l-1 0c-8,1 -17,-3 -24,-7 -13,-8 -25,-19 -30,-33 -2,-5 -2,-9 -3,-14 0,-10 3,-21 10,-29 4,-3 8,-6 13,-7 2,-1 3,-1 5,-1 5,1 11,3 16,5 6,-35 14,-68 22,-102 8,0 15,-1 22,-2 22,-3 44,-9 62,-21 18,-12 32,-28 39,-48 24,29 65,41 100,30 5,-2 9,-4 14,-7 7,12 13,24 19,36 3,7 6,14 8,20 5,12 8,23 11,35l1 0c4,-5 8,-9 13,-12 3,-2 5,-3 8,-3 9,-2 18,4 23,11 5,8 6,18 6,27 -1,26 -13,52 -33,69l-1 0z"/>
   <path class="fil63" d="M1129 846c-7,27 -30,75 -50,95 -6,6 -13,12 -21,13 -6,0 -11,-2 -16,-3 -26,-10 -73,-46 -89,-69 17,8 56,15 74,18 10,1 20,2 30,0 13,-4 23,-12 33,-21 9,-9 31,-23 39,-33z"/>
   <path class="fil62" d="M865 941c-1,1 -3,1 -5,1 -3,0 -8,-1 -10,-3 0,0 0,1 1,1 0,2 1,5 -1,7 -1,1 -2,1 -4,1 -8,1 -16,-2 -24,-5 -1,-1 -2,-2 -4,-2 -1,6 -3,12 -4,17 -1,3 -2,5 -1,7 0,3 2,5 3,7 7,11 8,26 4,39 -4,12 -11,23 -18,34 -7,-6 -17,-10 -26,-12 -30,-10 -61,-20 -93,-23 1,-33 1,-65 1,-98 0,-9 0,-18 5,-25 3,-4 7,-7 11,-10 2,-1 4,-2 7,-3 18,-8 37,-14 56,-17 13,-35 23,-70 30,-106 1,-9 3,-18 1,-27 4,6 6,14 6,21 0,7 0,14 -1,20 -4,31 -9,61 -17,91 5,0 11,1 15,3 9,4 16,10 22,16 8,8 16,16 23,24 2,3 5,6 8,9 6,8 13,17 16,26 0,2 1,5 -1,7z"/>
   <path class="fil63" d="M866 934c0,2 1,5 -1,7 -1,1 -3,1 -5,1 -3,0 -8,-1 -10,-3l0 0c0,-1 -1,-2 -1,-3l0 0c-5,-13 -14,-23 -24,-32 -11,-10 -23,-18 -33,-28 16,8 33,16 50,23 2,3 5,6 8,9 6,8 13,17 16,26z"/>
   <path class="fil63" d="M794 724c2,9 0,18 -1,27 -7,36 -17,71 -30,106 -19,3 -38,9 -56,17 -3,1 -5,2 -7,3 29,-53 57,-107 86,-161 0,-1 1,-1 1,-2 2,0 4,1 4,3 2,2 2,5 3,7z"/>
   <path class="fil63" d="M796 930c-5,7 -11,14 -17,21 -1,1 -2,2 -3,2 -1,0 -2,-2 -2,-3 -7,-14 -12,-28 -15,-43 12,8 24,16 37,23z"/>
   <path class="fil64" d="M1599 1806c-2,27 -11,54 -26,77 3,4 6,9 7,14 1,5 0,11 -5,14 -2,2 -6,3 -10,3 -3,0 -6,1 -9,1 -49,4 -98,5 -147,2l-4 0c-1,1 -1,1 -1,1 -9,5 -17,9 -25,13 -37,18 -76,32 -116,42 -54,14 -111,21 -167,21 -101,0 -202,-19 -299,-49 -5,-2 -11,-3 -17,-5 -10,-3 -21,-8 -25,-18 -3,-9 1,-19 7,-28 15,-25 35,-47 59,-65 -15,1 -25,-18 -21,-32 5,-14 18,-24 32,-30 -18,-13 -34,-28 -50,-44 -7,-6 -14,-15 -11,-23 4,-11 18,-13 24,-21 3,-5 4,-11 5,-17 7,-75 15,-149 25,-223 -32,39 -70,77 -109,108l0 0c-9,11 -19,19 -31,24 -19,9 -40,9 -60,7 -40,-4 -80,-21 -104,-53 -23,-33 -24,-83 6,-110 2,-2 5,-4 5,-7 1,-3 -1,-6 -2,-8 -8,-20 3,-44 22,-52 5,-2 10,-3 14,-7 3,-4 4,-10 3,-15 -2,-13 -8,-25 -11,-38 -4,-12 -2,-28 8,-36 6,-4 13,-5 18,-10 7,-6 9,-15 10,-24 8,-38 19,-76 35,-113 1,-3 2,-6 2,-9 1,-4 -2,-8 -3,-12 -6,-19 12,-41 31,-38 -7,-11 -12,-23 -15,-36 13,-1 26,-1 39,0 32,3 63,13 93,23 9,2 19,6 26,12 2,1 4,3 5,5 8,9 8,25 -2,31 -7,4 -16,3 -20,9 -2,3 -3,6 -3,9 -2,9 -3,18 -5,27 9,-5 18,-11 27,-17 6,-4 12,-8 15,-14 5,-8 5,-18 11,-25 5,-5 13,-6 19,-5 7,2 13,5 19,8 1,-8 4,-17 7,-25 1,-1 1,-2 1,-3 2,-3 4,-6 7,-8 3,-1 6,-1 10,-1 10,2 20,4 30,8 -5,-5 -10,-9 -15,-14 -6,-6 -12,-14 -15,-22 -3,-16 5,-31 15,-43 11,-14 23,-26 37,-37 1,19 2,37 2,56 43,50 81,105 124,155 3,4 6,7 9,10 2,-4 4,-9 6,-13 31,-67 60,-136 85,-205 -8,-20 -17,-39 -25,-59 27,2 53,8 77,18 6,3 12,6 14,12 1,4 -1,7 -2,11 -3,9 -7,17 -12,25 19,3 39,6 58,8 26,4 53,6 79,9 21,-7 42,-13 63,-19 4,-1 8,-2 11,0 5,3 5,10 3,16 -3,5 -6,11 -5,17 12,-4 26,1 35,10 9,9 15,20 21,32 12,24 24,49 34,75 21,52 35,107 47,163 22,99 38,200 49,301 9,86 13,176 -19,256z"/>
   <path class="fil65" d="M1426 1645c3,5 3,12 2,19 -4,48 -8,96 -13,144 0,6 -1,13 -5,17 -4,4 -10,5 -14,8 -7,6 -6,17 -2,24 5,8 13,13 21,17 -7,7 -15,14 -22,21 -2,2 -4,4 -5,7 -3,8 7,14 16,16 -9,5 -17,9 -25,13 -37,18 -76,32 -116,42 56,-271 96,-545 121,-820l1 0c-5,115 -3,230 5,345 1,17 4,36 17,47 -6,8 -14,18 -9,28 6,15 28,10 41,19 -13,10 -27,27 -20,42 2,3 5,7 7,11z"/>
   <path class="fil65" d="M1281 946c-22,26 -44,52 -65,78 -36,42 -72,84 -113,120l-2 -1c26,-37 48,-76 71,-115 15,-27 31,-54 46,-81 2,-3 3,-6 5,-9 19,3 39,6 58,8z"/>
   <path class="fil65" d="M1057 1145l-1 1c-62,-29 -123,-62 -181,-98l0 0 0 0 0 0 0 0 0 0 0 0 0 0 0 0 0 0 0 0 0 0 0 0 0 0 0 -1 0 0 0 0 0 0 0 0 0 0 0 0 0 0 0 0 0 0 0 0 0 0 1 0 0 0 0 0 0 0 0 0 0 0 0 0 0 0 0 0 0 0 0 0 0 0 0 0 0 0 0 0 0 0 0 0 0 0 0 0 0 0 0 0 0 0 0 0 0 0 0 0 0 0 0 0 0 0 0 0 0 0 0 -1 0 0 0 0 0 0 0 0 0 0 0 0 0 0 0 0 0 0 0 0 0 0 0 0 0 0 0 0 0 0 0 0 0 0 0 0 0 0 0 0 0 0 0 0 0 0 0 0 0 0 0 0 0 0 0 0 0 0 0 0 0 0 0 0 0 0 0 0 0 0 0 0 0 0 0 0 0 0 0 0 0 0 0 0 0 0 0 0 0 0 0 -1 0 0 0 0 0 0 0 0 0 0 0 0 0 0 0 0c2,-3 4,-6 7,-8 3,-1 6,-1 10,-1 10,2 20,4 30,8 42,36 94,62 134,101z"/>
   <path class="fil65" d="M961 1851c0,14 -14,24 -27,29 -25,9 -52,13 -78,12 -11,-1 -23,-3 -29,-12 0,-2 -1,-4 -1,-6 1,-2 3,-3 5,-4 14,-8 29,-16 44,-24 2,-1 4,-2 4,-4 0,-2 -1,-4 -2,-6 -11,-11 -31,-15 -36,-30 22,-7 44,-14 66,-20 -2,-9 -14,-11 -23,-14 -20,-7 -34,-27 -35,-47 0,-2 0,-5 2,-6 3,-3 7,-1 10,1 4,3 7,5 11,7 15,14 32,25 50,33 12,5 24,10 34,17 1,0 3,1 3,3 1,2 0,4 -1,5 -4,6 -10,10 -16,15 -5,5 -9,12 -6,19 1,3 4,5 7,7 9,6 17,15 18,25z"/>
   <path class="fil65" d="M862 1170l4 1c-16,89 -29,178 -41,268l-2 2 -1 2 -2 1 0 0 -1 2 -2 2 0 0 -1 2 0 0 -2 2 0 0 -2 2 0 0 -1 1 0 0 -2 2 0 0 -1 2 0 0 -2 2 0 0 -1 2 0 0 -2 1 0 0 -2 2 0 0 -1 2 0 0 -2 2 0 0 -2 1 0 0 -1 2 0 0 -2 2 0 0 -2 2 0 0 -1 2 0 0 -2 1 0 0 -1 2 -1 0 -1 2 0 0 -2 2 0 0 -2 1 0 0c-1,2 -2,3 -3,4l0 0c-20,20 -41,39 -62,56 2,-5 9,-10 12,-16 2,-5 4,-9 6,-14 3,-6 5,-13 7,-19l0 0c45,-108 85,-217 121,-328z"/>
   <path class="fil66" d="M649 1098l1 0 0 0 0 0 1 0 0 0c44,0 88,-1 132,-4l0 0 0 0 0 0 0 -1 0 0c0,-1 1,-2 2,-3l0 0 0 0 0 0 0 0c1,-2 3,-3 6,-4l0 0c-47,3 -93,4 -140,4 -7,0 -14,0 -21,0l0 1 1 0 0 0 0 0 0 0 0 0 0 1 0 0 0 0 0 0 0 0 0 1 0 0 0 0 0 0 0 0 0 0 0 0 0 0 0 1 0 0 0 0 0 0 0 0 0 0 0 1 0 0 0 0 0 0 0 0 0 0 0 1 0 0 0 0 0 0 0 0 0 0c0,0 0,0 0,0l0 0 0 0 0 0c0,1 0,1 0,2 6,0 12,0 18,0z"/>
   <path class="fil66" d="M594 1221l0 0 0 0 0 0 0 0 0 0 0 0 0 0 0 -1 0 0 0 0 0 0 0 0 0 0 0 0 0 0 0 0 0 0 0 0 0 0 0 -1 0 0 0 0 0 0 0 0 0 0 0 0 0 0 0 0 0 0 0 0 0 0 0 0 0 0 0 0 0 0 0 0 0 0 0 0 0 0 0 0 0 0 0 0 0 0 0 0 0 -1 0 0 0 0 0 0 0 0 0 0 0 0 1 -3 0 0 0 0 0 0 0 -2 0 0 0 0 0 0 0 0 0 0 0 0 0 0 1 -1c64,-24 125,-56 182,-95 0,0 1,0 1,0l0 0 0 0 0 0 0 0 0 1 0 0 0 0 0 0 0 0 0 0 0 0 0 0 0 0 0 1 0 0 0 0 0 0 0 0 0 0 -1 0 0 0 0 0 0 1 0 0 0 1 0 0 0 0 0 0 0 0 0 0 0 0 0 1 0 0 0 0 0 0 0 0 0 0 0 0 0 0 0 0 0 1 0 0 0 0 0 0 0 0 0 0 0 0 0 1 0 0 0 0 0 0 0 0 0 0 0 0 0 0 0 0 0 1 0 0 0 0 0 0 0 0 0 0 0 0 0 0 0 0 0 0 0 1 -1 0 0 0 0 0 0 0 0 0 0 0 1 0 0 0 0 0 0 0 0 0 0 0 0 0 0 0 0 0 0 0 0 0 0 0 0 0 1 0 0 -1 0 0 0 0 0 0 0 0 0 0 0 0 0 0 0 0 0 0 0 0 0 0 1 0 0 0 0 0 0 0 0 0 0 0 0 0 0 0 0 -1 0 0 0 0 0 0 0 0 1 0 0 0 0 0 0 0 0 0 0 0 0 0 0 0 0 0 0 0 0 0 1 0 0 0 0 0 0 -1 0 0 0 0 0 0 0 0 0 0 0 0 0 0 0 0 0 0 1 0 0 0 0 0 0 0 0 0 0 0 0 0 0 0 0 0 0 -1 0 0 0 0 1 0c-1,1 -1,2 -2,2 -17,12 -34,23 -51,33 -44,25 -90,47 -137,64zm183 -95l0 0z"/>
   <path class="fil66" d="M559 1294l0 0c0,-2 -1,-3 -1,-5 14,-2 27,-3 41,-5 60,-8 122,-24 170,-63 1,-1 2,-1 3,-1 3,0 6,4 3,7 -13,11 -28,20 -43,28 -53,27 -113,36 -172,41 0,0 0,-1 -1,-2z"/>
   <path class="fil67" d="M507 1448l0 0c1,-1 1,-1 1,-2l0 0 0 0c0,-1 1,-2 1,-3 14,-2 29,-4 43,-8 69,-18 130,-57 190,-95 1,0 1,0 2,0 3,0 5,5 2,7 -18,11 -35,22 -53,33 -58,34 -119,64 -186,71"/>
   <path class="fil67" d="M618 1577l0 0 -1 0 -1 0 0 0 0 0 0 0 0 0 -2 0 0 0 0 0 0 0 0 0 0 0 -1 0 0 -1 -1 0 0 0 0 0 0 0 0 0 -1 0c4,-4 9,-7 13,-11 44,-39 85,-83 111,-137 0,-1 2,-2 3,-2 2,0 5,3 4,6 -8,16 -16,30 -26,44 -26,38 -59,71 -95,102"/>
   <g>
    <path class="fil66" d="M772 1497l1 -1 0 0 0 0 -1 1 0 0zm1 -1l0 0 0 0 0 0zm0 0l1 -1 0 0 0 0 0 0 -1 1zm2 -2l0 0 0 0 -1 1 0 0 1 -1 0 0zm0 0l0 0 0 0 0 0 0 0zm0 0l1 -1 0 0 0 0 0 0 -1 1 0 0zm1 -1l0 0 0 0 0 0zm4 -4l0 0 0 0 0 0 0 0 0 0zm-4 3l0 1 0 -1zm-3 4l0 0 0 0 0 0zm7 -7l0 0 0 0zm-4 3l0 0 0 0zm-3 4l0 0 0 0z"/>
   </g>
   <path class="fil66" d="M808 1326c9,-73 9,-147 1,-220l0 0 0 0 0 -1 0 0 0 0 0 0 0 0 1 0 0 0 0 0 0 0 0 0 0 0 0 0 0 0 0 0 0 0 0 0 0 -1 1 0 0 0 0 0 0 0 0 0 0 0 0 0 0 0 0 0 1 0 0 0 0 -1 0 0 0 0 0 0 0 0 0 0 0 0 0 0 0 0 0 0 1 0 0 0 0 0 0 0 0 -1 0 0 0 0 0 0 0 0 1 0 0 0 0 0 0 0 0 -1 0 0 0 0 0 0 1 0 0 0 0 0 0 0c0,-1 1,-1 1,-2 3,29 6,58 6,87 1,37 0,73 -3,110 -4,10 -7,20 -11,30z"/>
   <path class="fil68" d="M772 1497c8,-26 15,-52 21,-78 6,-31 11,-62 15,-93 4,-10 7,-20 11,-30 -5,64 -17,127 -35,189l-1 0 0 1 0 0 -3 3 0 0 0 0 0 0 0 0c-1,1 -2,2 -4,3l0 1 0 0 0 0 0 0 0 0 -1 1 0 0 0 0 0 0 -1 1 0 0 -1 1 0 0 0 0 0 0 0 0 -1 1 0 0z"/>
   <path class="fil66" d="M864 1183c1,-4 1,-8 2,-12l-4 -1c-1,2 -1,4 -2,6 4,-35 4,-71 1,-106l1 0 0 0 0 0 0 0 0 0 0 0 0 0 0 0 1 0 0 1 0 0 0 0 0 0 0 0 0 0 0 0 0 0 0 0 0 0 0 0 0 0 0 0 1 0 0 0 0 0 0 0 0 0 0 0 0 0 0 0 0 0 0 0 0 0 0 0 0 1 1 0 0 0 0 0 0 0 0 0 0 0 0 0 0 0 0 0 0 0 0 0 0 0 0 0 1 0 0 0 0 0 0 0 0 0 0 0 0 0 0 0 0 0 0 0 0 1 0 0 0 0 1 0 0 0 0 0 0 0 0 0 0 0 0 0 0 0 0 0 0 0 0 0 0 0 0 0 0 0 1 0 0 0 0 0 0 0 0 0 0 0 0 0 0 0 0 0 0 0 0 0 0 0 0 0 0 0 0 0 0 0 0 0 0 -1 0 0 0 0 0 0 0 0 0 0 0 0 0 0 0 0 0 0 0 0 0 0 0 -1 0 0 0 0 0 0 0 0 0 0 0 0 0 0 0 0 0 0 0 0 0 0 0 0 0 -1 0 0 0 0 0 0 0 0 0 0 1 0 0 0 0 0 0 0 0 0 0 0 0 0 0 -1 0 0 0 0 0 0 0 0 0 0 0 0 0 0 0 0 0 0 0 0 0 0 0 0 0 -1 0 0 0 0 0 0 0 0 0 0 0 0 0 0 0 0 0 0 0 0 0 0 0 -1 0 0 0 0 0 0 0 0c3,37 2,75 -1,112 -1,2 -2,4 -4,4z"/>
   <path class="fil68" d="M863 1183c-2,0 -4,-1 -3,-4 0,-1 0,-2 0,-3 1,-2 1,-4 2,-6l4 1c-1,4 -1,8 -2,12 0,0 -1,0 -1,0z"/>
   <path class="fil66" d="M1385 1155c0,0 0,-1 0,-2l-1 0c0,1 0,2 0,2 -2,0 -4,-2 -3,-5 2,-17 6,-35 11,-52 12,-46 30,-89 55,-130l0 0 0 0 0 0 0 0 0 0 0 0 1 0 0 0 0 0 0 0 0 0 0 0 0 0 0 0 1 0 0 1 0 0 0 0 0 0 0 0 0 0 0 0 0 0 0 0 1 0 0 0 0 0 0 0 0 0 0 0 0 0 0 0 0 0 0 0 1 0 0 0 0 0 0 0 0 0 0 0 0 0 0 0 0 0 1 0 0 0 0 0 0 0 0 1 0 0 0 0 0 0 1 0 0 0 0 0 0 0 0 0 0 0 0 0 0 0 0 0 0 0 1 0 0 0 0 0 0 0 0 0 0 0 0 0 0 0 0 0 0 0 0 0c-1,3 -2,5 -3,7 -32,54 -53,114 -63,176 0,1 -1,2 -3,2z"/>
   <path class="fil68" d="M1385 1155c0,0 -1,0 -1,0 0,0 0,-1 0,-2l1 0c0,1 0,2 0,2 0,0 0,0 0,0z"/>
   <path class="fil66" d="M1384 1259c0,0 -1,0 -1,0 0,-3 0,-6 0,-9 10,-13 21,-26 33,-38 35,-37 75,-68 117,-98l0 0 0 0 0 0 0 0 0 0 0 0 0 0 0 0 0 1 0 0 0 0 0 0 0 0 0 0 0 0 0 0 0 1 0 0 1 0 0 0 0 0 0 0 0 0 0 0 0 1 0 0 0 0 0 0 0 0 0 0 0 0 0 1 0 0 0 0 0 0 0 0 0 0 0 0 0 0 0 0 0 1 1 0 0 2 0 0 0 0 0 0c-3,3 -7,6 -11,8 -50,38 -99,78 -137,128 0,1 -2,2 -3,2z"/>
   <path class="fil68" d="M1383 1259c-3,-1 -4,-3 -2,-6 0,-1 1,-2 2,-3 0,3 0,6 0,9z"/>
   <path class="fil66" d="M1393 1398c-3,0 -5,-5 -2,-7 15,-10 30,-18 45,-26 46,-23 96,-40 147,-48l1 2 0 0 0 0 1 6c-10,1 -19,3 -29,5 -57,13 -111,36 -161,67 0,1 -1,1 -2,1z"/>
   <path class="fil66" d="M1400 1526c-3,0 -5,-5 -2,-7 15,-10 31,-17 47,-22 20,-6 40,-8 60,-8 12,0 24,1 36,1 10,1 21,1 32,1 13,0 25,0 38,-2l1 7 0 0 0 0 0 1 0 0c-9,1 -17,2 -25,2 -5,0 -9,0 -13,0 -12,0 -24,0 -35,-1 -12,0 -23,-1 -35,-1 -4,0 -9,0 -13,0 -32,2 -62,11 -89,29 0,0 -1,0 -2,0z"/>
   <path class="fil66" d="M1620 1628c-60,0 -119,-7 -177,-20 -4,-2 -3,-8 1,-8 1,0 1,0 1,0 57,14 116,20 175,20l4 0 0 0 0 1 0 0 0 1 0 0 0 0 0 1 0 0 0 0 0 0 0 0 0 0 0 0 0 0 0 0 0 1 0 0 0 0 0 0 0 0 0 3 0 0 0 0 0 0 0 0 0 0 0 0 0 0 0 1 0 0 0 0c-2,0 -3,0 -4,0z"/>
   <path class="fil67" d="M1588 1736c-18,0 -36,-3 -53,-6 -17,-4 -34,-7 -50,-10 -9,-2 -18,-3 -27,-4 -4,0 -9,0 -13,0 0,0 0,0 0,0 0,0 0,0 0,0 -1,0 -1,0 -1,0 -1,0 -1,0 -2,0 -2,0 -6,0 -8,2 0,2 -2,2 -3,2 -3,0 -5,-3 -3,-5 4,-6 10,-7 17,-7 0,0 0,0 0,0 9,0 18,1 27,2 17,2 35,6 52,10 21,4 43,8 64,8 11,0 22,-1 32,-4l0 1 0 0c0,1 0,2 0,3l0 0 0 0 0 1m-1 3l0 0 0 1c-10,2 -20,3 -31,3"/>
   <path class="fil66" d="M1572 1863c-7,0 -13,0 -20,-1 -16,-3 -32,-6 -48,-9 -26,-5 -52,-10 -78,-10 -8,0 -15,1 -22,1 -1,0 -1,0 -1,0 0,0 0,0 0,0 1,-2 0,-5 -2,-6 0,-1 1,-1 3,-1 7,-1 15,-2 22,-2 25,0 50,5 74,9 17,4 33,7 49,9 8,1 15,2 23,2 5,0 10,0 16,-1l0 0 0 0 0 0 -1 1 0 0 0 0 0 0 0 0 0 0 0 1 0 0 0 0 0 0 0 0 0 0 0 0 0 1 0 0 -1 0 0 0 0 0 0 0 0 0 0 0 0 0 0 1 0 0 0 0 0 0 0 0 0 0 0 0 0 0 0 1 0 0 0 0 0 0 -1 0 0 0 0 0 0 0 0 0 0 1 0 0 0 0 0 0 0 0 0 0 0 0 0 0 0 1 0 0 0 0 0 0 0 0 0 0 -1 0 0 0 0 1 0 0 0 0 0 0 0 0 0 0c-4,1 -8,1 -12,1z"/>
   <path class="fil66" d="M1139 1230c-28,0 -55,-2 -83,-5 -33,-4 -66,-12 -100,-16 -9,-1 -18,-2 -27,-2 -22,0 -44,4 -63,16 -1,0 -1,0 -2,0 -4,0 -6,-5 -2,-7 20,-12 44,-16 67,-16 12,0 24,1 36,2 35,5 69,13 104,16 23,2 46,4 70,4 14,0 29,-1 43,-2 36,-2 72,-8 107,-11 10,-1 19,-2 28,-2 21,0 42,3 61,10 0,2 0,5 0,7 -20,-7 -40,-9 -60,-9 -16,0 -31,1 -46,3 -35,4 -70,10 -105,11 -10,0 -19,1 -28,1zm247 -2c0,0 -1,0 -1,-1 -1,0 -1,0 -2,0 0,-3 0,-6 0,-9 2,1 4,2 6,3 4,1 1,7 -3,7z"/>
   <path class="fil68" d="M1383 1227c-2,-1 -4,-2 -5,-3 0,-2 0,-5 0,-7 2,0 4,1 5,1 0,3 0,6 0,9z"/>
   <path class="fil66" d="M1383 1350c0,-2 0,-3 0,-5 1,1 1,3 0,5zm-19 -4c-28,-9 -58,-11 -88,-11 -3,0 -7,0 -11,0 -33,0 -66,3 -99,3 -1,0 -2,0 -3,0 -36,0 -72,-4 -108,-7 -35,-4 -71,-7 -107,-7 -35,0 -70,3 -104,13 -1,1 -1,1 -2,1 -1,0 -2,-1 -3,-2 0,-2 1,-4 1,-5 0,-1 1,-1 1,-1 35,-11 71,-14 107,-14 4,0 7,0 11,0 70,1 139,14 209,14 2,0 5,0 8,0 33,0 67,-3 101,-3 30,0 60,2 88,11 0,3 0,5 -1,8z"/>
   <path class="fil68" d="M1381 1351c-1,0 -1,0 -2,0 -5,-2 -10,-4 -15,-5 1,-3 1,-5 1,-8 6,2 11,3 16,5 1,1 2,1 2,2 0,2 0,3 0,5 0,1 -1,1 -2,1z"/>
   <path class="fil68" d="M839 1336c-1,-2 -1,-4 1,-5 0,1 -1,3 -1,5z"/>
   <path class="fil66" d="M1393 1498c0,0 0,0 0,0 -1,-1 -2,-1 -3,-1 0,-3 0,-5 0,-8 1,0 3,1 5,1 4,1 3,8 -2,8zm-47 -8c-26,-3 -52,-5 -79,-7 -74,-6 -148,-8 -222,-17 -37,-5 -72,-12 -108,-20 -28,-6 -57,-11 -86,-11 -8,0 -17,1 -25,2 0,0 0,0 0,0 -1,0 -1,0 -1,0 0,-3 1,-6 1,-8 9,-1 17,-2 26,-2 32,0 65,7 97,14 37,8 74,15 112,19 37,4 74,7 111,9 59,3 117,6 175,14 0,2 -1,5 -1,7z"/>
   <path class="fil68" d="M1390 1497c-15,-2 -29,-5 -44,-7 0,-2 1,-5 1,-7 14,1 28,4 43,6 0,3 0,5 0,8z"/>
   <path class="fil68" d="M825 1437c-4,-1 -4,-8 1,-8 0,0 0,0 0,0 0,2 -1,5 -1,8z"/>
   <path class="fil66" d="M1077 1605c-15,0 -30,-1 -45,-2 -67,-7 -134,-27 -202,-27 -8,0 -15,0 -22,0l0 0 0 0 0 0 0 0 0 -1 0 0 0 0 0 0 0 -1 1 -2 0 0 0 -1 0 0 0 0 0 0 0 0 0 0 0 -1 0 0 0 0 0 0 0 0 0 0 0 -1 0 0 0 0 0 0 0 0 0 0 0 0 0 0c7,-1 14,-1 20,-1 33,0 65,4 97,10 41,7 81,15 122,18 10,1 19,1 29,1 31,0 61,-3 92,-7 50,-7 101,-16 152,-16 4,0 9,0 13,0 0,3 -1,5 -1,8 -4,0 -8,0 -12,0 -17,0 -34,1 -51,2 -40,4 -79,11 -119,16 -25,3 -49,5 -74,5z"/>
   <path class="fil68" d="M1403 1592c0,0 0,0 -1,0 -22,-6 -46,-9 -69,-10 0,-3 1,-5 1,-8 24,1 47,4 70,10 5,1 4,8 -1,8z"/>
   <path class="fil66" d="M1214 1752c-71,0 -141,-10 -209,-30 -64,-19 -130,-47 -198,-47 -3,0 -7,0 -10,0 0,-1 0,-1 1,-2l0 0 0 0 0 0 0 0 0 -1 0 0 0 0 0 0 0 0 0 0 0 0 0 -1 0 0 0 0 0 0 0 0 0 0 0 0 0 0 0 0 0 0 0 -1 0 0 0 0 0 0 0 0 0 0 0 0 0 0 0 0 0 0 0 0 0 -1 1 0 0 0 0 0 0 0 0 0 0 0 0 0 0 0 0 -1 0 0 0 0 0 0 0 0 0 0 0 0 0 0 0 0 0 0 0 0 0 0 0 -1 0 0 0 0c2,0 5,0 7,0 29,0 58,5 85,12 42,11 83,26 125,38 43,12 88,20 132,24 22,2 43,3 64,3 32,0 64,-2 96,-6 -1,3 -1,6 -2,9 -12,1 -24,2 -35,3 -19,1 -38,2 -57,2zm208 -26c1,-1 1,-3 1,-5 1,2 1,4 -1,5z"/>
   <path class="fil68" d="M1306 1747c1,-3 1,-6 2,-9 37,-4 74,-10 111,-18 0,-1 1,-1 1,-1 1,0 2,1 3,2 0,2 0,4 -1,5 0,1 0,1 -1,1 -38,9 -76,15 -115,20z"/>
   <path class="fil66" d="M1115 1846c-14,0 -27,-1 -40,-5 -20,-5 -39,-13 -58,-20 -19,-6 -39,-11 -59,-11 -1,0 -1,0 -2,0 -7,0 -14,0 -21,1 1,-3 2,-6 4,-8 7,-1 13,-1 20,-1 6,0 13,0 19,1 20,3 39,10 58,17 19,7 37,14 57,17 7,1 14,2 20,2 14,0 28,-2 41,-5 35,-7 69,-18 105,-18 5,0 11,0 17,0 6,1 11,2 17,3 0,3 -1,5 -1,8 -12,-2 -23,-4 -35,-4 0,0 0,0 0,0 -42,0 -81,17 -122,22 -7,1 -14,1 -20,1zm-314 -34c-1,-1 -1,-2 -1,-3l0 0 0 -1 0 0c0,-1 0,-1 0,-2l0 0 0 0 0 -1 0 0 0 0 0 0 0 0 -1 -1 0 0 0 0 0 0 0 0 0 0 0 0 0 0 0 0 0 0 1 -1 0 0 0 0 0 0 0 0c14,8 30,12 46,12 3,3 7,5 10,8 -1,0 -3,0 -5,0 -18,0 -35,-3 -50,-11zm597 34c-2,0 -5,0 -7,0 0,-3 0,-5 1,-8 2,0 4,0 6,0 1,0 1,0 2,0 0,0 0,0 0,0 0,0 0,0 1,0 -2,3 -1,6 2,6 -1,1 -2,2 -3,2 -1,0 -1,0 -2,0z"/>
   <path class="fil68" d="M1391 1846c-34,-2 -66,-13 -99,-19 0,-3 1,-5 1,-8 33,6 65,18 99,19 -1,3 -1,5 -1,8z"/>
   <path class="fil68" d="M856 1823c-3,-3 -7,-5 -10,-8 1,0 2,0 3,0 22,0 45,-5 66,-9 8,-1 16,-2 24,-3 -2,2 -3,5 -4,8 -16,2 -31,6 -47,8 -10,2 -21,3 -32,4z"/>
   <path class="fil69" d="M1403 1844c-3,0 -4,-3 -2,-6 2,1 3,4 2,6z"/>
   <path class="fil66" d="M1109 1954c-36,0 -71,-2 -106,-7 -42,-6 -83,-16 -122,-32 -35,-14 -71,-33 -109,-37l0 0 0 0 0 0 0 0 0 0 0 0 0 0 0 0 0 0 0 0 0 0 1 0 0 0 0 0 0 -1 0 0 0 0 0 0 0 0 0 0 0 0 0 0 0 0 0 -1 1 0 0 0 0 0 0 0c0,-1 1,-1 1,-2l0 0 0 0 0 0 0 0 0 0 0 0 0 0 1 0 0 -1 0 0 0 0 0 0 0 0 0 0 0 0 0 0 0 0 0 0 0 0 0 0 0 0 0 0 0 0 0 0 0 0 0 0 0 0 0 -1 0 0 0 0 1 0 0 0 0 0 0 0 0 0 0 0 0 0 0 0 0 0 0 0 0 0 0 0 0 0 0 0 0 0 0 0 0 0 0 0 0 0 0 -1 0 0 0 0 0 0 0 0 0 0 0 0 0 0 1 0c20,3 39,9 59,17 1,0 2,1 4,2 17,7 34,15 52,21 69,27 142,35 216,35 11,0 21,0 32,0 42,-1 84,-5 127,-9 1,-1 2,-1 3,-1 -1,3 -2,6 -2,8 -4,1 -8,1 -12,2 -49,4 -99,8 -148,8z"/>
   <path class="fil68" d="M1269 1944c0,-2 1,-5 2,-8 19,-2 39,-4 58,-6 21,-3 41,-7 59,-18 0,0 1,0 2,0 3,0 5,5 2,7 -20,12 -42,16 -65,19 -19,2 -39,4 -58,6z"/>
   <path class="fil68" d="M841 1890c-2,-1 -3,-2 -4,-2 1,0 2,1 4,2z"/>
   <path class="fil66" d="M948 1091c-25,-3 -49,-8 -72,-17 -4,-2 -3,-8 1,-8 0,0 1,0 1,0 17,6 34,11 51,14 6,4 13,7 19,11z"/>
   <path class="fil68" d="M974 1092c-9,0 -17,0 -26,-1 -6,-4 -13,-7 -19,-11 15,3 30,4 45,4 0,0 0,0 1,0 0,0 0,0 0,0 5,0 5,8 0,8 -1,0 -1,0 -1,0z"/>
   <path class="fil66" d="M1214 1090c-18,0 -36,-1 -53,-3 2,-2 4,-5 6,-7 9,1 18,1 28,2 6,0 13,0 19,0 59,0 118,-10 176,-20 0,0 0,0 1,0 4,0 6,7 1,8 -19,3 -38,6 -57,9 -40,6 -81,11 -121,11zm-75 -6c-1,0 -1,0 -2,0 -5,-1 -3,-8 1,-8 0,0 1,0 1,0 1,0 3,1 4,1 -1,2 -2,5 -4,7z"/>
   <path class="fil68" d="M1161 1087c-8,-1 -15,-2 -22,-3 2,-2 3,-5 4,-7 8,1 16,2 24,3 -2,2 -4,5 -6,7z"/>
  </g>
  <g id="face" transform="translate(0.696000, 0.688672)">
   <path class="fil7" d="M1272 598c0,0 0,0 0,0 0,0 0,0 0,0l0 0zm0 0c22,0 43,-17 47,-38 -4,21 -25,38 -47,38z"/>
   <path class="fil70" d="M695 574l0 0 0 0 0 0zm0 0c-3,0 -5,-1 -7,-2 2,1 4,2 7,2zm-7 -2c0,0 0,0 0,0 0,0 0,0 0,0zm0 0c0,0 0,0 0,0 0,0 0,0 0,0zm0 -1c0,0 0,0 0,0 0,0 0,0 0,0zm33 -72l0 0c0,0 0,0 0,0 0,0 0,0 0,0zm0 0c-6,0 -12,-2 -17,-4 5,2 11,4 17,4zm-17 -4c-1,0 -1,0 -1,0 0,0 0,0 1,0zm-1 0c0,0 0,0 0,0 0,0 0,0 0,0zm30 0c0,0 0,0 0,0 0,0 0,0 0,0zm0 0c0,0 0,0 0,0 0,0 0,0 0,0z"/>
   <path class="fil7" d="M695 574c0,0 0,0 0,0 0,0 0,0 0,0l0 0zm0 0c0,0 0,0 0,0 5,0 8,-5 9,-10 3,-10 5,-22 5,-33 0,11 -2,23 -5,33 -1,5 -4,10 -9,10 0,0 0,0 0,0zm-7 -2c0,0 0,0 0,0 0,0 0,0 0,0zm0 0c0,0 0,0 0,0 0,0 0,0 0,0zm0 0c0,0 0,-1 0,-1 0,0 0,1 0,1zm33 -73c0,0 0,0 0,0 0,0 0,0 0,0l0 0zm0 0c4,0 8,-1 12,-4 -4,3 -8,4 -12,4zm-17 -4c0,0 0,0 0,0 0,0 0,0 0,0zm-1 0c0,0 0,0 0,0 0,0 0,0 0,0zm0 0c0,0 0,0 0,0l0 0c0,0 0,0 0,0zm30 0c0,0 0,0 0,0 0,0 0,0 0,0zm0 0c0,0 0,0 0,0 3,-3 5,-7 6,-11 3,-6 4,-13 4,-20 0,7 -1,14 -4,20 -1,4 -3,8 -6,11 0,0 0,0 0,0z"/>
   <path class="fil71" d="M941 885c0,0 57,34 104,33 46,0 90,-73 90,-73 17,-30 27,-65 27,-99l1 0c4,-4 9,-8 12,-13l-24 -85c-2,2 -3,4 -5,6l-1 0c-3,-12 -6,-23 -11,-35 -2,-6 -5,-13 -8,-20 -6,-12 -12,-24 -19,-36 -5,3 -9,5 -14,7 -35,11 -76,-1 -100,-30 -7,20 -21,36 -39,48 -18,12 -40,18 -62,21 -7,1 -14,2 -22,2 -8,34 -16,67 -22,102 -5,-2 -11,-4 -16,-5 -2,0 -3,0 -5,1 -5,1 -9,4 -13,7 -7,8 -10,19 -10,29 1,5 1,9 3,14 5,14 17,25 30,33 7,4 16,8 24,7l1 0c16,36 45,66 79,86z"/>
   <path class="fil72" d="M800 795l-30 -1c0,0 -41,-125 42,-202l23 9 -23 30c0,0 -30,25 -25,85 0,0 -11,29 13,79z"/>
   <path class="fil72" d="M1215 726l27 -11c0,0 -12,-126 -81,-160l-12 20c0,0 36,15 52,72 0,0 20,24 14,79z"/>
   <path class="fil73" d="M1172 567c-1,5 -1,9 -2,14 -2,21 -6,41 -11,61 -5,3 -9,7 -13,12l-1 0c-3,-12 -6,-23 -11,-35 -2,-6 -5,-13 -8,-20 -6,-12 -12,-24 -19,-36 -5,3 -9,5 -14,7 -35,11 -77,-1 -100,-30 -7,20 -21,36 -39,48 -18,12 -40,18 -62,21 -7,1 -14,2 -22,2 -8,34 -16,67 -22,102 -5,-2 -11,-4 -16,-5 -8,-15 -15,-31 -20,-47 -4,-10 -7,-22 -6,-33 1,-11 7,-23 17,-27l0 -1c-2,-1 -4,-2 -7,-4 -18,-13 -29,-35 -30,-58 -1,-7 0,-15 2,-23 3,-14 10,-28 19,-39 6,-8 14,-15 23,-20 21,-12 47,-12 71,-10 17,1 35,3 48,13 6,-5 12,-9 19,-13 27,-15 60,-18 89,-7 26,10 47,29 59,54 2,3 3,7 5,10 3,9 5,19 4,28l1 0c8,1 16,3 24,5 7,2 15,5 19,11 0,1 0,2 1,3 2,5 2,11 2,17z"/>
   <path class="fil15" d="M1170 550c2,5 2,11 2,17 -1,5 -1,9 -2,14 -13,12 -25,25 -36,38 -2,-6 -5,-13 -8,-20 13,-17 28,-34 44,-49z"/>
   <path class="fil74" d="M1107 563c-5,3 -9,5 -14,7 -35,11 -76,-1 -100,-30 0,0 -1,-1 -2,-2l-9 -7c10,-13 17,-27 21,-42 10,16 26,28 43,34 18,5 38,3 54,-7 8,-5 16,-13 16,-23 2,3 3,7 5,10 3,9 5,19 4,28 0,9 -3,17 -9,24 -2,3 -6,6 -9,8z"/>
   <path class="fil74" d="M870 611c-16,0 -32,-3 -47,-11 -2,-1 -4,-2 -7,-4 -18,-13 -29,-35 -30,-58 -1,-7 0,-15 2,-23 0,12 3,24 10,35 12,19 33,31 55,34 21,4 44,0 65,-7 25,-10 48,-26 64,-46l9 7c1,1 2,2 2,2 -7,20 -21,36 -39,48 -18,12 -40,18 -62,21 -7,1 -14,2 -22,2z"/>
   <path class="fil75" d="M886 486c14,-1 29,-4 41,-10 -26,21 -57,37 -90,38 -4,0 -8,0 -12,-2 -3,-1 -6,-5 -6,-9 0,-5 6,-9 12,-10 18,-6 37,-6 55,-7z"/>
   <path class="fil74" d="M1099 469c-34,22 -75,-8 -104,-25 -3,-1 -6,1 -6,3 -1,19 -11,35 -22,48 -11,13 -23,25 -38,35 -29,19 -69,28 -102,13 -17,-8 -31,-26 -25,-46 1,-5 -6,-7 -8,-2 -5,18 3,36 18,47 15,12 36,16 55,16 40,-1 76,-23 102,-53 13,-15 25,-32 27,-51 31,18 72,45 107,21 4,-2 0,-9 -4,-6z"/>
   <path class="fil15" d="M1151 539c-13,12 -25,25 -36,39 -1,2 0,4 1,5 3,2 5,1 6,-1 10,-13 22,-26 34,-37 4,-4 -2,-9 -5,-6z"/>
   <path class="fil75" d="M947 457c-18,14 -37,28 -58,39 -19,11 -45,22 -64,6 -4,-3 -10,2 -6,6 20,16 45,10 66,-1 24,-11 45,-27 66,-43 4,-3 0,-10 -4,-7z"/>
   <path class="fil76" d="M1140 635l14 141c0,5 5,9 9,9l11 0c5,0 9,-5 9,-11l-15 -145c-1,-6 -7,-10 -13,-8l-10 4c-3,1 -6,5 -5,10z"/>
   <path class="fil14" d="M1182 771l-6 -64 -8 -78c0,0 32,-2 44,43 1,6 3,12 3,20 7,67 -33,79 -33,79z"/>
   <path class="fil65" d="M1182 771l-6 -64c2,1 5,2 7,2 8,-1 14,-8 18,-14 4,-7 8,-15 11,-23 1,6 3,12 3,20 7,67 -33,79 -33,79z"/>
   <path class="fil72" d="M1153 634c0,-5 -8,-5 -8,0 3,47 7,93 12,139 1,5 9,5 8,0 -5,-46 -9,-92 -12,-139z"/>
   <path class="fil76" d="M840 684l34 138c1,5 -1,9 -6,11l-10 3c-5,2 -10,-1 -12,-6l-34 -142c-1,-6 3,-12 9,-12l11 0c4,1 7,4 8,8z"/>
   <path class="fil14" d="M845 826l-15 -62 -18 -76c0,0 -31,8 -27,55 0,6 1,13 3,20 16,66 57,63 57,63z"/>
   <path class="fil65" d="M845 826l-15 -62c-1,2 -4,3 -6,4 -8,2 -15,-3 -21,-7 -7,-6 -13,-12 -18,-18 0,6 1,13 3,20 16,66 57,63 57,63z"/>
   <path class="fil72" d="M828 687c-2,-4 6,-7 7,-2 13,45 25,90 35,135 1,5 -6,8 -7,3 -11,-45 -22,-91 -35,-136z"/>
   <path class="fil15" d="M945 643c-3,-5 -8,-6 -13,-4 -14,8 -27,18 -38,29 -4,4 -4,11 0,14 3,4 10,4 13,0 3,-2 6,-5 9,-7 1,-2 2,-3 4,-4 1,-1 1,-1 2,-2l1 0c6,-5 12,-9 19,-13 4,-2 6,-9 3,-13z"/>
   <path class="fil15" d="M1108 634c-13,-6 -27,-10 -41,-12 -6,-1 -11,1 -13,7 -1,4 2,11 7,12 15,2 28,6 42,12 5,1 11,-3 12,-7 1,-6 -2,-10 -7,-12z"/>
   <path class="fil15" d="M959 689c-2,0 -4,1 -5,3 -1,8 -4,19 -14,19 -9,1 -16,-7 -21,-14 -1,-2 -3,-3 -5,-2 -2,1 -3,4 -1,6 6,9 15,19 28,18 13,-1 19,-13 21,-25 0,-2 -1,-4 -3,-5z"/>
   <path class="fil15" d="M1102 674c-2,7 -5,17 -14,18 -8,0 -14,-9 -18,-15 -3,-5 -10,-1 -7,4 6,9 14,19 26,18 5,0 10,-3 14,-7 3,-4 5,-10 7,-16 1,-4 -6,-7 -8,-2z"/>
   <path class="fil6" d="M1083 792c-16,9 -34,15 -53,18 -19,3 -39,4 -58,-3 -4,-1 -6,6 -2,8 19,7 41,6 60,3 20,-3 40,-9 57,-19 5,-3 1,-10 -4,-7z"/>
   <path class="fil6" d="M1034 762c-4,1 -7,1 -11,2 -3,0 -5,1 -7,1 -1,0 -2,0 -3,0 0,0 -1,0 -2,1 0,-1 0,-1 0,-2 0,-1 0,-2 0,-3 0,-2 -1,-4 -1,-6 0,-4 -1,-8 -1,-12 -2,-16 -4,-32 -6,-48 0,-5 -8,-6 -8,0 3,19 5,38 7,58 0,4 1,9 1,14 1,3 2,6 6,6 4,1 9,0 13,-1 5,-1 10,-1 14,-3 5,-1 3,-8 -2,-7z"/>
   <path class="fil77" d="M948 779c0,16 -13,29 -29,29 -16,0 -30,-13 -30,-29 0,-17 14,-30 30,-30 16,0 29,13 29,30z"/>
   <path class="fil77" d="M1144 743c0,16 -13,29 -30,29 -16,0 -29,-13 -29,-29 0,-16 13,-30 29,-30 17,0 30,14 30,30z"/>
  </g>
 </g>
</svg>
