<?xml version="1.0" encoding="UTF-8"?>
<!DOCTYPE svg PUBLIC "-//W3C//DTD SVG 1.1//EN" "http://www.w3.org/Graphics/SVG/1.1/DTD/svg11.dtd">
<!-- Creator: CorelDRAW X7 -->
<svg xmlns="http://www.w3.org/2000/svg" xml:space="preserve" width="4.39633in" height="2.23232in" version="1.1" style="shape-rendering:geometricPrecision; text-rendering:geometricPrecision; image-rendering:optimizeQuality; fill-rule:evenodd; clip-rule:evenodd"
viewBox="0 0 9805 4979"
 xmlns:xlink="http://www.w3.org/1999/xlink">
 <defs>
  <style type="text/css">
   <![CDATA[
    .fil57 {fill:#FEFEFE;fill-rule:nonzero}
    .fil31 {fill:#E2E3E3;fill-rule:nonzero}
    .fil45 {fill:#DEB687;fill-rule:nonzero}
    .fil19 {fill:#D9DAD9;fill-rule:nonzero}
    .fil44 {fill:#CA9F6D;fill-rule:nonzero}
    .fil40 {fill:#C89A7C;fill-rule:nonzero}
    .fil15 {fill:#C8D2C6;fill-rule:nonzero}
    .fil51 {fill:#BFD7D4;fill-rule:nonzero}
    .fil46 {fill:#B38453;fill-rule:nonzero}
    .fil11 {fill:#843B38;fill-rule:nonzero}
    .fil16 {fill:#B2BCB1;fill-rule:nonzero}
    .fil8 {fill:#AEC8C5;fill-rule:nonzero}
    .fil7 {fill:#A6BCB5;fill-rule:nonzero}
    .fil50 {fill:#A7B9B3;fill-rule:nonzero}
    .fil39 {fill:#977962;fill-rule:nonzero}
    .fil54 {fill:#9FB8B7;fill-rule:nonzero}
    .fil47 {fill:#9CBAB7;fill-rule:nonzero}
    .fil37 {fill:#9BB4B0;fill-rule:nonzero}
    .fil55 {fill:#94ACA9;fill-rule:nonzero}
    .fil49 {fill:#92A9A6;fill-rule:nonzero}
    .fil6 {fill:#89AAA5;fill-rule:nonzero}
    .fil26 {fill:#826975;fill-rule:nonzero}
    .fil21 {fill:#715D68;fill-rule:nonzero}
    .fil38 {fill:#788888;fill-rule:nonzero}
    .fil56 {fill:#77928F;fill-rule:nonzero}
    .fil25 {fill:#634C59;fill-rule:nonzero}
    .fil48 {fill:#75928F;fill-rule:nonzero}
    .fil52 {fill:#748F8C;fill-rule:nonzero}
    .fil43 {fill:#737D88;fill-rule:nonzero}
    .fil10 {fill:#6B8582;fill-rule:nonzero}
    .fil5 {fill:#535556;fill-rule:nonzero}
    .fil3 {fill:#525254;fill-rule:nonzero}
    .fil53 {fill:#607773;fill-rule:nonzero}
    .fil14 {fill:#5B636D;fill-rule:nonzero}
    .fil58 {fill:#5E6571;fill-rule:nonzero}
    .fil2 {fill:#434442;fill-rule:nonzero}
    .fil36 {fill:#3F403E;fill-rule:nonzero}
    .fil22 {fill:#5A616D;fill-rule:nonzero}
    .fil59 {fill:#525863;fill-rule:nonzero}
    .fil12 {fill:#4D535C;fill-rule:nonzero}
    .fil41 {fill:#484F56;fill-rule:nonzero}
    .fil24 {fill:#464B54;fill-rule:nonzero}
    .fil20 {fill:#444A52;fill-rule:nonzero}
    .fil29 {fill:#4F6473;fill-rule:nonzero}
    .fil9 {fill:#40454C;fill-rule:nonzero}
    .fil17 {fill:#3B3F44;fill-rule:nonzero}
    .fil23 {fill:#3C4147;fill-rule:nonzero}
    .fil34 {fill:#495C68;fill-rule:nonzero}
    .fil42 {fill:#3A3E45;fill-rule:nonzero}
    .fil1 {fill:#383C43;fill-rule:nonzero}
    .fil4 {fill:#35393E;fill-rule:nonzero}
    .fil18 {fill:#34383C;fill-rule:nonzero}
    .fil13 {fill:#34383D;fill-rule:nonzero}
    .fil30 {fill:#2D2F33;fill-rule:nonzero}
    .fil0 {fill:#2F3136;fill-rule:nonzero}
    .fil27 {fill:#455567;fill-rule:nonzero}
    .fil32 {fill:#404E5D;fill-rule:nonzero}
    .fil35 {fill:#3B4955;fill-rule:nonzero}
    .fil28 {fill:#38434F;fill-rule:nonzero}
    .fil33 {fill:#353F48;fill-rule:nonzero}
   ]]>
  </style>
 </defs>
 <g id="Layer_x0020_1">
  <metadata id="CorelCorpID_0Corel-Layer"/>
  <g id="front-wheel">
   <path class="fil0" d="M8552 4234l-62 -68 41 -99 31 30 -10 137zm20 -266l-8 106 -26 -25 34 -81zm19 -23l-18 -1 -1 23 -17 -7 -30 75 -48 -47 -13 13 53 52 -40 98 -132 -145 -13 12 138 152 -113 277 16 6 110 -268 67 74 -16 209 18 1 14 -192 118 131 14 -12 -130 -144 11 -138 258 257 13 -13 -270 -268 11 -145z"/>
   <path class="fil0" d="M7710 3708l68 -62 99 41 -31 31 -136 -10zm266 20l-106 -8 25 -25 81 33zm23 20l1 -18 -23 -2 7 -16 -75 -31 47 -48 -12 -12 -53 52 -98 -40 146 -131 -12 -14 -152 138 -277 -114 -7 17 269 110 -75 67 -209 -16 -1 17 192 15 -131 118 12 13 144 -129 138 11 -257 258 13 13 267 -270 146 12z"/>
   <path class="fil0" d="M8214 3131l7 -100 24 24 -31 76zm18 -260l60 66 -40 100 -30 -30 10 -136zm34 180l40 -100 157 170 13 -12 -163 -176 109 -272 -16 -7 -106 264 -67 -72 15 -225 -17 -2 -14 209 -126 -136 -13 12 137 149 -9 137 -237 -243 -13 13 248 254 -9 130 18 1 0 -2 13 6 32 -80 65 67 13 -13 -70 -72z"/>
   <path class="fil0" d="M7800 3181l87 4 40 96 -40 0 -87 -100zm164 188l-61 -71 32 0 29 71zm3 30l13 -12 0 0 9 -4 -35 -85 84 0 0 -17 -91 0 -40 -95 199 9 1 -18 -208 -9 -112 -270 -16 7 109 262 -96 -4 -150 -171 -14 11 139 159 -177 -8 -1 17 194 9 88 101 -351 0 0 17 367 0 88 101z"/>
   <path class="fil0" d="M8635 3081l-71 27 72 -59 -1 32zm121 -132l-7 88 -96 37 1 -41 102 -84zm-216 179l6 -5 3 10 86 -33 -2 84 17 0 3 -91 95 -37 -15 209 18 1 16 -217 273 -105 -7 -17 -265 103 7 -97 175 -145 -11 -14 -162 135 13 -177 -18 -2 -15 194 -102 85 10 -350 -18 -1 -10 367 -108 89 11 14z"/>
   <path class="fil0" d="M9003 3451l-99 -38 48 -47 136 9 -85 76zm327 -61l1 -18 -199 -12 127 -115 -11 -13 -141 126 -138 -8 249 -245 -13 -13 -260 256 -149 -10 -1 18 133 9 -42 41 -70 -27 -6 17 62 24 -42 41 12 13 48 -47 99 38 -153 137 12 13 159 -143 293 114 7 -17 -285 -110 91 -83 217 14z"/>
   <path class="fil0" d="M8141 4007l93 -39 -93 78 0 -39zm-114 136l3 -89 93 -39 1 46 -97 82zm223 -189l-5 -10 -104 44 -2 -116 -17 1 1 123 -92 38 9 -236 -18 -1 -9 245 -265 113 7 16 257 -109 -3 96 -129 109 12 14 116 -99 -7 202 17 1 8 -218 98 -83 3 314 18 0 -3 -329 119 -101 -11 -14z"/>
   <path class="fil0" d="M8995 3925l-88 -7 -36 -94 46 1 78 100zm-166 -214l74 96 -38 -1 -36 -95zm1 -27l-14 10 -11 5 40 106 -115 -4 -1 18 123 4 35 93 -236 -19 -1 18 244 20 101 269 16 -6 -97 -262 95 8 103 133 14 -11 -93 -120 202 16 1 -18 -217 -17 -78 -101 313 10 1 -18 -328 -11 -97 -123z"/>
   <path class="fil1" d="M8387 4429c-480,0 -869,-389 -869,-868 0,-480 389,-869 869,-869 479,0 868,389 868,869 0,479 -389,868 -868,868zm0 -1857c-546,0 -989,443 -989,989 0,545 443,988 989,988 546,0 988,-443 988,-988 0,-546 -442,-989 -988,-989z"/>
   <path class="fil2" d="M8387 4549c-546,0 -989,-443 -989,-988 0,-546 443,-989 989,-989 546,0 988,443 988,989 0,545 -442,988 -988,988zm0 -2407c-784,0 -1419,635 -1419,1419 0,783 635,1418 1419,1418 783,0 1418,-635 1418,-1418 0,-784 -635,-1419 -1418,-1419z"/>
   <path class="fil3" d="M8387 4905c-743,0 -1345,-602 -1345,-1344 0,-743 602,-1345 1345,-1345 742,0 1344,602 1344,1345 0,742 -602,1344 -1344,1344zm0 -2763c-784,0 -1419,635 -1419,1419 0,783 635,1418 1419,1418 783,0 1418,-635 1418,-1418 0,-784 -635,-1419 -1418,-1419z"/>
   <path class="fil3" d="M8387 4549c-546,0 -989,-443 -989,-988 0,-546 443,-989 989,-989 546,0 988,443 988,989 0,545 -442,988 -988,988zm0 -2079c-602,0 -1090,489 -1090,1091 0,602 488,1090 1090,1090 602,0 1090,-488 1090,-1090 0,-602 -488,-1091 -1090,-1091z"/>
   <polygon class="fil4" points="8120,3246 8094,3192 8094,3192 8120,3246 8216,3201 8216,3201 "/>
   <path class="fil3" d="M8387 4815c220,0 436,-57 626,-167l-26 -26c-182,103 -389,158 -600,158 -673,0 -1220,-547 -1220,-1219 0,-211 55,-419 158,-601l-26 -26c-109,190 -167,406 -167,627 0,691 563,1254 1255,1254z"/>
  </g>
  <g id="back-wheel">
   <path class="fil0" d="M1600 4314l-68 -75 46 -111 34 34 -12 152zm23 -297l-9 119 -28 -28 37 -91zm22 -25l-20 -1 -2 25 -18 -7 -34 84 -54 -53 -14 14 59 59 -45 110 -147 -164 -14 14 153 170 -126 309 18 8 123 -301 74 83 -17 234 20 1 16 -215 132 147 15 -14 -145 -160 12 -155 289 287 14 -14 -301 -299 12 -162z"/>
   <path class="fil0" d="M661 3727l76 -69 111 46 -35 34 -152 -11zm297 22l-119 -9 28 -28 91 37zm25 22l2 -20 -26 -1 8 -19 -84 -34 53 -54 -14 -14 -59 60 -110 -45 163 -147 -13 -15 -171 153 -308 -127 -8 19 300 123 -83 74 -234 -17 -1 20 215 16 -147 132 14 14 160 -144 155 12 -287 288 14 14 299 -300 162 12z"/>
   <path class="fil0" d="M1224 3083l7 -112 27 27 -34 85zm19 -291l68 74 -45 112 -33 -34 10 -152zm38 202l45 -112 143 155 15 -13 -150 -163 122 -303 -18 -8 -119 295 -74 -80 17 -252 -20 -1 -16 232 -140 -152 -15 13 153 167 -10 153 -264 -271 -14 14 276 284 -9 145 20 2 0 -2 14 6 36 -89 73 74 14 -14 -79 -80z"/>
   <path class="fil0" d="M761 3139l98 4 44 107 -45 0 -97 -111zm183 209l-68 -78 36 0 32 78zm3 34l15 -13 0 -1 11 -4 -40 -94 94 0 0 -20 -102 0 -44 -106 222 10 1 -20 -231 -10 -126 -302 -19 8 123 293 -108 -5 -167 -191 -16 13 155 177 -198 -9 -1 20 218 10 98 112 -392 0 0 20 409 0 98 112z"/>
   <path class="fil0" d="M1694 3027l-79 30 80 -66 -1 36zm135 -147l-7 97 -108 42 1 -45 114 -94zm-235 194l0 0 4 11 95 -37 -2 94 20 0 3 -102 106 -41 -16 222 20 1 17 -231 305 -117 -8 -19 -296 115 8 -108 195 -162 -12 -16 -181 150 14 -197 -20 -2 -15 217 -115 95 11 -392 -20 0 -11 409 -115 95 13 15z"/>
   <path class="fil0" d="M2105 3440l-111 -42 53 -52 153 9 -95 85zm365 -68l1 -20 -222 -14 142 -128 -13 -15 -157 141 -154 -9 277 -273 -14 -14 -290 285 -154 -10 -2 20 137 9 -47 46 -78 -31 -7 19 70 27 -47 46 14 14 53 -52 110 42 -148 133 14 15 154 -139 327 126 8 -18 -318 -124 102 -91 242 15z"/>
   <path class="fil0" d="M1142 4062l104 -45 -104 88 0 -43zm-127 151l3 -99 104 -44 1 51 -108 92zm248 -211l-5 -12 -117 50 -1 -129 -20 0 2 137 -103 44 10 -264 -20 -1 -10 273 -296 126 8 18 287 -122 -4 108 -143 121 13 15 130 -109 -9 225 20 1 9 -244 109 -92 3 351 21 0 -5 -367 134 -113 -13 -16z"/>
   <path class="fil0" d="M2095 3969l-98 -8 -39 -105 51 2 86 111zm-184 -239l82 107 -43 -1 -39 -106zm1 -30l-16 12 -12 4 45 119 -130 -4 0 20 137 5 39 104 -264 -21 -1 20 273 21 112 302 19 -8 -109 -292 107 9 115 148 16 -12 -104 -134 225 18 1 -20 -243 -20 -87 -112 351 11 0 -20 -367 -12 -107 -138z"/>
   <path class="fil2" d="M1418 4549c-546,0 -988,-443 -988,-988 0,-546 442,-989 988,-989 546,0 989,443 989,989 0,545 -443,988 -989,988zm0 -2407c-783,0 -1418,635 -1418,1419 0,783 635,1418 1418,1418 784,0 1419,-635 1419,-1418 0,-784 -635,-1419 -1419,-1419z"/>
   <path class="fil3" d="M1419 4905c-742,0 -1344,-602 -1344,-1344 0,-743 602,-1345 1344,-1345 743,0 1345,602 1345,1345 0,742 -602,1344 -1345,1344zm0 -2763c-783,0 -1418,635 -1418,1419 0,783 635,1418 1418,1418 784,0 1419,-635 1419,-1418 0,-784 -635,-1419 -1419,-1419z"/>
   <path class="fil3" d="M1419 4549c-545,0 -988,-443 -988,-988 0,-546 443,-989 988,-989 546,0 989,443 989,989 0,545 -443,988 -989,988zm0 -2079c-602,0 -1090,489 -1090,1091 0,602 488,1090 1090,1090 602,0 1091,-488 1091,-1090 0,-602 -489,-1091 -1091,-1091z"/>
   <path class="fil3" d="M1419 4815c221,0 437,-57 627,-167l-26 -26c-182,103 -390,158 -601,158 -672,0 -1219,-547 -1219,-1219 0,-211 55,-419 158,-601l-26 -26c-110,190 -168,406 -168,627 0,691 563,1254 1255,1254z"/>
   <path class="fil1" d="M1418 4429c-479,0 -868,-389 -868,-868 0,-480 389,-869 868,-869 480,0 869,389 869,869 0,479 -389,868 -869,868zm0 -1857c-546,0 -988,443 -988,989 0,545 442,988 988,988 546,0 989,-443 989,-988 0,-546 -443,-989 -989,-989z"/>
   <path class="fil5" d="M2708 3397c-46,52 -154,32 -242,-45 -87,-77 -121,-181 -75,-234 46,-52 154,-32 242,44 87,77 121,182 75,235z"/>
  </g>
  <g id="_1861748719280">
   <path class="fil6" d="M8752 3946c-36,-35 -82,-88 -134,-57 -22,13 -27,39 -23,64 5,28 18,55 31,82 -72,37 -153,57 -239,57 -101,0 -194,-28 -275,-76 27,-43 67,-98 26,-142 -18,-19 -45,-18 -67,-8 -28,11 -54,32 -78,51 -86,-95 -138,-220 -138,-356 0,-19 1,-37 3,-55 47,7 103,12 124,-38 9,-24 -3,-48 -21,-64 -19,-18 -43,-31 -67,-43 65,-160 205,-281 376,-319 9,31 16,66 31,95 12,21 32,39 58,35 64,-10 63,-89 70,-139l0 -2c201,16 370,143 446,320 -28,16 -60,31 -83,53 -18,16 -31,40 -21,64 24,57 94,42 144,35 2,19 4,38 4,58 0,151 -65,288 -167,385zm-365 -1096c-392,0 -711,319 -711,711 0,392 319,710 711,710 392,0 710,-318 710,-710 0,-392 -318,-711 -710,-711z"/>
   <path class="fil7" d="M8387 4225c-367,0 -665,-298 -665,-664 0,-367 298,-665 665,-665 366,0 664,298 664,665 0,366 -298,664 -664,664zm0 -1375c-392,0 -711,319 -711,711 0,392 319,710 711,710 392,0 710,-318 710,-710 0,-392 -318,-711 -710,-711z"/>
   <path class="fil1" d="M8655 3541c-4,-57 -26,-110 -60,-152l30 -30c42,50 69,113 73,182l-43 0zm-65 196c35,-41 59,-92 65,-148l42 0c-6,68 -34,129 -77,178l-30 -30zm-181 92c55,-5 106,-26 147,-59l30 30c-49,41 -110,67 -177,72l0 -43zm-194 -61c41,34 91,56 146,61l0 42c-67,-5 -127,-32 -176,-73l30 -30zm-96 -179c6,55 28,106 62,146l-30 30c-41,-48 -69,-109 -75,-176l43 0zm58 -198c-33,42 -55,94 -59,150l-42 0c4,-68 30,-130 71,-180l30 30zm184 -99c-57,6 -109,29 -151,65l-30 -30c49,-43 112,-72 181,-77l0 42zm200 63c-42,-35 -94,-58 -152,-63l0 -43c69,5 132,33 182,76l-30 30zm-44 186c-3,-19 -10,-38 -21,-53l34 -34c18,25 31,55 34,87l-47 0zm-25 98c11,-15 19,-32 23,-50l48 0c-5,31 -18,60 -37,83l-34 -33zm-83 51c17,-3 34,-10 48,-19l34 34c-24,17 -52,29 -82,32l0 -47zm-95 -20c14,9 30,16 47,19l0 48c-30,-5 -57,-16 -81,-34l34 -33zm-55 -81c3,17 11,33 21,48l-34 33c-18,-23 -30,-51 -35,-81l48 0zm17 -99c-10,15 -16,33 -19,51l-47 0c3,-31 15,-60 32,-85l34 34zm85 -58c-19,4 -37,12 -52,23l-34 -33c24,-20 54,-33 86,-38l0 48zm102 22c-16,-12 -35,-20 -54,-23l0 -48c33,5 62,18 87,37l-33 34zm-76 -365c-260,0 -471,212 -471,472 0,259 211,471 471,471 260,0 471,-212 471,-471 0,-260 -211,-472 -471,-472z"/>
  </g>
  <g id="_1861748723056">
   <path class="fil0" d="M1672 3542c-4,-54 -25,-104 -58,-143l29 -29c40,47 65,107 69,172l-40 0zm-62 185c34,-38 56,-87 61,-140l40 0c-5,64 -32,123 -72,168l-29 -28zm-171 87c53,-4 100,-25 139,-56l29 29c-47,38 -104,63 -168,67l0 -40zm-182 -57c38,31 85,52 137,57l0 40c-63,-5 -120,-30 -166,-69l29 -28zm-91 -170c5,53 26,100 59,138l-29 28c-39,-45 -65,-102 -71,-166l41 0zm55 -186c-32,39 -52,88 -56,141l-40 0c4,-64 29,-123 67,-170l29 29zm173 -94c-54,6 -103,28 -142,61l-28 -28c46,-41 105,-67 170,-73l0 40zm189 60c-40,-34 -89,-55 -144,-60l0 -40c66,5 125,31 172,71l-28 29zm-42 175c-3,-18 -10,-35 -20,-50l32 -32c18,24 29,52 33,82l-45 0zm-23 92c10,-13 17,-29 21,-47l46 0c-5,30 -18,57 -35,79l-32 -32zm-79 49c17,-3 32,-9 46,-18l32 32c-23,16 -49,27 -78,30l0 -44zm-89 -19c13,8 28,15 44,18l0 45c-28,-4 -54,-15 -76,-32l32 -31zm-53 -77c4,17 11,32 20,45l-31 32c-17,-22 -29,-48 -34,-77l45 0zm17 -93c-9,14 -16,31 -18,48l-45 0c3,-29 14,-57 31,-80l32 32zm80 -55c-18,4 -35,11 -49,22l-32 -32c23,-18 51,-30 81,-35l0 45zm96 20c-15,-10 -32,-17 -51,-21l0 -44c31,3 60,16 83,34l-32 31zm-72 -343c-245,0 -444,199 -444,445 0,245 199,444 444,444 245,0 445,-199 445,-444 0,-246 -200,-445 -445,-445z"/>
   <path class="fil6" d="M1738 3898c-31,-31 -71,-77 -117,-50 -20,12 -24,35 -20,56 4,25 16,49 27,72 -63,32 -134,50 -210,50 -87,0 -170,-24 -240,-67 24,-37 58,-86 22,-124 -15,-17 -39,-15 -59,-7 -24,10 -46,28 -68,45 -74,-83 -120,-193 -120,-312 0,-16 1,-32 2,-48 42,6 90,10 108,-34 9,-21 -2,-41 -18,-56 -16,-15 -37,-27 -58,-38 57,-139 180,-245 329,-279 8,28 14,58 28,83 10,19 27,35 50,31 56,-8 55,-78 62,-122l0 -1c175,13 324,125 390,280 -25,14 -52,27 -73,46 -16,15 -26,35 -18,56 21,51 82,37 126,32 2,16 3,33 3,50 0,132 -56,252 -146,337zm-320 -960c-343,0 -622,279 -622,623 0,343 279,622 622,622 344,0 623,-279 623,-622 0,-344 -279,-623 -623,-623z"/>
   <path class="fil7" d="M1418 4136c-317,0 -576,-258 -576,-575 0,-318 259,-577 576,-577 318,0 576,259 576,577 0,317 -258,575 -576,575zm0 -1198c-343,0 -622,279 -622,623 0,343 279,622 622,622 344,0 623,-279 623,-622 0,-344 -279,-623 -623,-623z"/>
   <path class="fil1" d="M1641 3545c-3,-48 -22,-92 -50,-127l25 -24c35,41 57,93 61,151l-36 0zm-54 162c30,-34 49,-76 54,-123l35 0c-5,56 -28,107 -64,148l-25 -25zm-150 76c46,-4 88,-21 122,-49l25 25c-41,34 -91,56 -147,59l0 -35zm-161 -50c34,27 76,45 121,50l0 35c-55,-4 -105,-26 -146,-60l25 -25zm-80 -149c5,46 24,88 52,121l-25 25c-34,-40 -57,-90 -62,-146l35 0zm49 -164c-28,35 -46,78 -49,125l-36 0c4,-57 26,-109 60,-150l25 25zm152 -82c-47,5 -90,24 -125,54l-25 -25c41,-36 93,-59 150,-64l0 35zm166 52c-35,-29 -78,-48 -126,-52l0 -36c57,5 110,28 151,63l-25 25zm-37 155c-3,-17 -8,-32 -17,-45l28 -28c15,21 25,45 28,73l-39 0zm-20 80c9,-12 15,-26 19,-41l39 0c-4,26 -15,50 -30,69l-28 -28zm-69 43c14,-3 28,-8 40,-16l28 28c-20,15 -43,24 -68,27l0 -39zm-79 -17c12,8 25,13 39,16l0 40c-25,-4 -48,-14 -67,-28l28 -28zm-46 -67c3,15 9,28 18,39l-28 28c-15,-19 -25,-42 -29,-67l39 0zm15 -82c-8,13 -14,27 -16,43l-40 0c3,-27 13,-51 28,-71l28 28zm70 -48c-16,3 -31,10 -43,19l-28 -28c20,-16 44,-27 71,-31l0 40zm84 18c-13,-9 -28,-16 -44,-19l0 -39c27,3 52,14 72,30l-28 28zm-63 -302c-215,0 -390,175 -390,391 0,215 175,390 390,390 216,0 391,-175 391,-390 0,-216 -175,-391 -391,-391z"/>
   <path class="fil8" d="M1494 3553c0,42 -33,75 -75,75 -41,0 -74,-33 -74,-75 0,-41 33,-74 74,-74 42,0 75,33 75,74z"/>
   <path class="fil6" d="M1473 3553c0,30 -24,54 -54,54 -29,0 -53,-24 -53,-54 0,-29 24,-53 53,-53 30,0 54,24 54,53z"/>
  </g>
  <g id="_1861748723280">
   <polygon class="fil0" points="4376,3861 1421,3977 1418,3906 4373,3791 "/>
   <polygon class="fil9" points="5992,847 5540,847 5540,717 5992,689 "/>
   <path class="fil8" d="M5995 689l-456 28c-7,1 -12,-5 -12,-11l0 -58c0,-6 4,-11 10,-12l457 -27c6,-1 12,5 12,11l0 58c0,6 -5,11 -11,11z"/>
   <polygon class="fil0" points="4861,3872 4276,3872 4276,3938 4427,3938 4427,3977 4484,3977 4484,3938 4562,3938 4562,3977 4619,3977 4619,3938 4861,3938 4861,3977 5057,3977 5057,3872 "/>
   <path class="fil10" d="M6675 3337c-8,-141 -99,-276 -191,-329 -57,-32 -150,-52 -216,-55l-205 -13 38 184c107,-6 229,26 229,26 62,33 99,81 121,132 46,106 24,230 -51,319l-462 489c-172,223 -491,171 -491,171l-1719 -187c-304,-25 -476,-191 -476,-191l-548 -559c-95,-95 -157,-138 -210,-151 -53,-12 -108,15 -128,65 -51,128 113,276 113,276l507 482c215,254 497,275 497,275 0,0 1577,208 1919,232 124,9 252,2 371,-35 109,-33 191,-100 274,-177 142,-134 256,-297 379,-448 283,-348 249,-506 249,-506z"/>
   <polygon class="fil0" points="3642,1903 3979,1903 3979,1730 3642,1730 "/>
   <path class="fil11" d="M7124 498l-282 125 19 42 281 -125c38,-17 82,0 99,38l59 135 42 -19 -59 -135c-27,-60 -98,-88 -159,-61z"/>
   <polygon class="fil9" points="5827,2880 6106,3089 6607,2419 6329,2210 "/>
   <path class="fil12" d="M6692 2334l-304 -228c-11,-8 -26,-6 -35,5l-61 83c-9,11 -7,27 4,35l305 228c10,8 26,6 34,-5l62 -83c9,-11 6,-27 -5,-35z"/>
   <path class="fil12" d="M6157 3043l-300 -225c-4,-3 -10,-1 -14,4l-8 10c-4,5 -3,11 1,14l300 225c4,3 10,1 14,-4l7 -10c4,-5 4,-12 0,-14z"/>
   <path class="fil12" d="M6194 2993l-300 -225c-4,-3 -10,-1 -14,4l-8 10c-3,5 -3,11 1,15l300 224c4,3 11,2 14,-3l8 -10c4,-5 3,-12 -1,-15z"/>
   <path class="fil12" d="M6232 2943l-301 -224c-4,-4 -10,-2 -14,3l-7 10c-4,5 -4,12 0,15l301 225c3,3 10,1 13,-4l8 -10c4,-5 4,-12 0,-15z"/>
   <path class="fil12" d="M6269 2893l-300 -224c-4,-3 -11,-2 -15,3l-7 10c-4,6 -4,12 0,15l301 225c3,3 10,1 14,-4l7 -10c4,-5 4,-12 0,-15z"/>
   <path class="fil12" d="M6306 2844l-300 -225c-4,-3 -10,-1 -14,4l-8 10c-4,5 -3,11 0,14l301 225c4,3 10,2 14,-4l7 -10c4,-5 4,-11 0,-14z"/>
   <path class="fil12" d="M6343 2794l-300 -225c-4,-3 -10,-1 -14,4l-8 10c-3,5 -3,12 1,15l300 224c4,3 10,2 14,-3l8 -10c4,-6 3,-12 -1,-15z"/>
   <path class="fil12" d="M6381 2744l-301 -225c-4,-3 -10,-1 -14,4l-7 10c-4,5 -4,12 0,15l300 225c4,3 11,1 14,-4l8 -10c4,-5 4,-12 0,-15z"/>
   <path class="fil12" d="M6418 2695l-301 -225c-3,-3 -10,-1 -13,4l-8 9c-4,6 -4,12 0,15l300 225c4,3 11,1 14,-4l8 -10c4,-5 4,-12 0,-14z"/>
   <path class="fil12" d="M6455 2645l-300 -225c-4,-3 -10,-1 -14,4l-8 10c-4,5 -3,11 1,14l300 225c4,3 10,1 14,-4l7 -10c4,-5 4,-11 0,-14z"/>
   <path class="fil12" d="M6492 2595l-300 -225c-4,-3 -10,-1 -14,4l-8 10c-3,5 -3,12 1,15l300 225c4,3 10,1 14,-4l8 -10c3,-5 3,-12 -1,-15z"/>
   <path class="fil12" d="M6530 2545l-301 -224c-4,-4 -10,-2 -14,4l-7 9c-4,5 -4,12 0,15l300 225c4,3 11,1 14,-4l8 -10c3,-5 3,-12 0,-15z"/>
   <path class="fil12" d="M6567 2496l-301 -225c-3,-3 -10,-1 -14,4l-7 10c-4,5 -4,11 0,14l301 225c3,3 10,1 14,-4l7 -10c4,-5 4,-11 0,-14z"/>
   <polygon class="fil1" points="2557,2116 3359,2116 3359,1983 2557,1983 "/>
   <polygon class="fil1" points="5116,2592 5793,2592 5793,2423 5116,2423 "/>
   <polygon class="fil0" points="5596,3231 5936,3231 5936,1903 5596,1903 "/>
   <polygon class="fil0" points="6401,1147 6850,1147 6850,812 6401,812 "/>
   <polygon class="fil0" points="7099,1584 6471,1764 6419,1584 7047,1404 "/>
   <polygon class="fil0" points="5145,3231 5485,3231 5485,1903 5145,1903 "/>
   <path class="fil1" d="M5279 2649l-1583 0c-32,0 -60,-22 -68,-53l-111 -453 1762 0 0 506z"/>
   <path class="fil1" d="M5279 3703l-1637 0 0 -903c0,-34 27,-61 61,-61l1576 0 0 964z"/>
   <polygon class="fil11" points="6553,1273 7256,1273 7256,1207 6553,1207 "/>
   <polygon class="fil11" points="6553,1393 7256,1393 7256,1327 6553,1327 "/>
   <polygon class="fil11" points="5433,2303 6287,2303 6287,2236 5433,2236 "/>
   <polygon class="fil11" points="3242,3115 3734,2226 3792,2258 3300,3147 "/>
   <polygon class="fil0" points="3171,3437 2939,3403 3167,1856 3399,1890 "/>
   <path class="fil8" d="M3353 2347l-274 -40c-17,-2 -32,10 -35,27l-2 16c-3,17 9,33 26,35l273 40c17,3 33,-9 36,-26l2 -16c2,-17 -9,-33 -26,-36z"/>
   <path class="fil8" d="M3332 2489l-274 -40c-17,-3 -32,9 -35,26l-2 16c-3,17 9,33 26,36l273 40c17,3 33,-9 36,-26l2 -17c3,-17 -9,-33 -26,-35z"/>
   <path class="fil8" d="M3311 2631l-273 -41c-17,-2 -33,10 -36,27l-2 16c-3,17 9,33 26,35l274 41c17,2 32,-10 35,-27l2 -16c3,-17 -9,-33 -26,-35z"/>
   <path class="fil8" d="M3290 2772l-273 -40c-17,-3 -33,9 -36,26l-2 16c-2,18 9,33 26,36l274 40c17,3 32,-9 35,-26l2 -16c3,-18 -9,-33 -26,-36z"/>
   <path class="fil8" d="M3269 2914l-273 -40c-17,-3 -33,9 -35,26l-3 16c-2,17 9,33 26,36l274 40c17,2 33,-10 35,-27l3 -16c2,-17 -10,-33 -27,-35z"/>
   <path class="fil8" d="M3248 3055l-273 -40c-17,-3 -33,9 -35,26l-3 17c-2,17 10,32 27,35l273 40c17,3 33,-9 35,-26l3 -16c2,-17 -10,-33 -27,-36z"/>
   <path class="fil8" d="M3228 3197l-274 -41c-17,-2 -33,10 -35,27l-3 16c-2,17 10,33 27,36l273 40c17,2 33,-9 36,-27l2 -16c3,-17 -9,-33 -26,-35z"/>
   <path class="fil9" d="M7625 500l0 904c0,0 -564,-38 -564,-517 0,0 -19,-372 564,-387z"/>
   <path class="fil12" d="M7625 500c0,0 126,51 146,122l0 669c0,0 -37,94 -146,113l0 -904z"/>
   <path class="fil13" d="M7625 622l0 660c0,0 -564,-28 -564,-378 0,0 -19,-271 564,-282z"/>
   <polygon class="fil14" points="7625,786 7771,786 7771,674 7625,618 "/>
   <polygon class="fil14" points="7625,1100 7771,1100 7771,1037 7625,1037 "/>
   <polygon class="fil14" points="7625,1304 7771,1248 7771,1136 7625,1136 "/>
   <path class="fil9" d="M7625 812l0 279c0,0 -564,-12 -564,-159 0,0 -19,-115 564,-120z"/>
   <path class="fil0" d="M3369 3154l-58 243 -125 0 0 312 475 41 368 57c25,4 47,-13 50,-37l83 -616 -793 0z"/>
   <polygon class="fil0" points="4199,3401 4122,3884 5301,3884 5402,3401 "/>
   <polygon class="fil9" points="5500,3929 3749,3543 3779,3409 5529,3796 "/>
   <polygon class="fil15" points="3228,1983 4801,2514 5124,2461 5863,1948 "/>
   <path class="fil16" d="M5488 2171l-2075 -170 -56 -18c0,0 0,0 0,0l2405 0 -274 188z"/>
   <polygon class="fil9" points="5239,4022 5993,4151 6193,2980 5438,2852 "/>
   <path class="fil12" d="M6039 4062l-814 -139c-10,-2 -20,4 -22,13l-3 17c-1,9 6,18 17,20l813 138c11,2 21,-4 22,-12l3 -18c2,-9 -6,-17 -16,-19z"/>
   <path class="fil12" d="M6053 3975l-813 -139c-11,-2 -20,4 -22,13l-3 17c-2,9 6,18 17,20l813 138c11,2 20,-3 22,-12l3 -18c2,-9 -6,-17 -17,-19z"/>
   <path class="fil12" d="M6068 3888l-813 -139c-11,-2 -21,4 -22,13l-3 17c-2,9 6,18 16,20l814 139c10,1 20,-4 22,-13l3 -18c2,-9 -6,-17 -17,-19z"/>
   <path class="fil12" d="M6083 3801l-813 -139c-11,-2 -21,4 -22,13l-3 17c-2,9 6,18 17,20l812 139c11,1 21,-4 23,-13l3 -18c1,-9 -6,-17 -17,-19z"/>
   <path class="fil12" d="M6098 3714l-813 -139c-11,-2 -21,4 -22,13l-4 17c-1,9 6,18 17,20l813 139c11,1 21,-4 22,-13l3 -18c2,-9 -6,-17 -16,-19z"/>
   <path class="fil12" d="M6113 3627l-813 -139c-11,-2 -21,4 -23,13l-3 17c-1,9 6,18 17,20l813 139c11,1 21,-4 22,-13l3 -18c2,-9 -6,-17 -16,-19z"/>
   <path class="fil12" d="M6127 3540l-813 -139c-10,-2 -20,4 -22,13l-3 18c-1,8 6,17 17,19l813 139c11,2 21,-4 22,-13l3 -18c2,-8 -6,-17 -17,-19z"/>
   <path class="fil12" d="M6142 3453l-813 -139c-10,-2 -21,4 -22,13l-3 18c-1,9 6,17 17,19l813 139c11,2 21,-4 22,-13l3 -18c2,-8 -6,-17 -17,-19z"/>
   <path class="fil12" d="M6157 3366l-813 -138c-11,-2 -21,3 -22,12l-3 18c-2,9 6,17 17,19l813 139c10,2 20,-4 22,-13l3 -17c1,-9 -6,-18 -17,-20z"/>
   <path class="fil12" d="M6172 3279l-813 -138c-11,-2 -21,4 -22,12l-3 18c-2,9 6,17 17,19l812 139c11,2 21,-4 23,-13l3 -17c1,-9 -6,-18 -17,-20z"/>
   <path class="fil12" d="M6187 3192l-813 -138c-11,-2 -21,4 -23,12l-2 18c-2,9 6,17 16,19l813 139c11,2 21,-4 23,-13l2 -17c2,-9 -6,-18 -16,-20z"/>
   <path class="fil12" d="M6202 3105l-813 -138c-11,-2 -21,4 -23,12l-3 18c-1,9 6,17 17,19l813 139c11,2 21,-4 23,-13l2 -17c2,-9 -6,-18 -16,-20z"/>
   <polygon class="fil9" points="6705,821 6317,922 6283,790 6670,689 "/>
   <polygon class="fil9" points="6957,1174 6156,1983 6059,1886 6860,1078 "/>
   <polygon class="fil9" points="6014,1976 3818,3487 3741,3374 5937,1863 "/>
   <polygon class="fil9" points="3781,3556 3062,1914 3188,1859 3906,3501 "/>
   <polygon class="fil9" points="4988,2666 3142,2056 3185,1926 5031,2536 "/>
   <polygon class="fil9" points="6688,1983 3228,1983 3228,1846 6688,1846 "/>
   <path class="fil17" d="M6506 1983l-350 0 0 0 -152 0 -242 0 -2405 0c9,-21 13,-44 13,-69 0,0 0,0 0,0l3214 1 -78 68z"/>
   <path class="fil9" d="M1022 1694l-4 70c-3,37 25,68 61,71l1984 131 9 -137 -2050 -135z"/>
   <polygon class="fil9" points="7203,1549 6083,2542 5992,2439 7112,1446 "/>
   <polygon class="fil0" points="7232,1614 6068,2647 6038,2613 7202,1580 "/>
   <polygon class="fil9" points="6188,1902 6005,2514 5874,2475 6056,1863 "/>
   <polygon class="fil9" points="7149,1127 6938,1226 6876,1094 7086,994 "/>
   <path class="fil9" d="M7282 260l-98 -209c-11,-23 -40,-33 -64,-22l-343 162c-24,11 -34,40 -24,64l99 208c11,24 39,34 64,22l343 -162c24,-11 34,-39 23,-63z"/>
   <polygon class="fil12" points="7213,68 6747,288 6716,220 7181,0 "/>
   <polygon class="fil9" points="7313,1458 7054,1580 6968,1399 7227,1277 "/>
   <polygon class="fil9" points="6915,667 6694,772 6641,659 6862,554 "/>
   <polygon class="fil0" points="6996,783 6786,882 6718,738 6928,638 "/>
   <polygon class="fil9" points="7683,2241 7535,2311 7165,1528 7313,1458 "/>
   <polygon class="fil12" points="7035,392 6793,506 6717,345 6959,231 "/>
   <polygon class="fil0" points="7015,452 6851,529 6832,488 6995,411 "/>
   <path class="fil8" d="M7848 2052l-69 -145c-2,-5 -7,-6 -12,-4l-274 129c-4,2 -6,8 -4,12l68 145c3,4 8,6 12,4l274 -129c5,-2 7,-8 5,-12z"/>
   <path class="fil9" d="M3370 1914c0,102 -82,185 -184,185 -101,0 -184,-83 -184,-185 0,-101 83,-184 184,-184 102,0 184,83 184,184z"/>
   <path class="fil17" d="M3186 2047c-73,0 -132,-59 -132,-133 0,-73 59,-133 132,-133 73,0 133,60 133,133 0,74 -60,133 -133,133z"/>
   <path class="fil9" d="M6097 2575c0,91 -74,165 -166,165 -91,0 -165,-74 -165,-165 0,-92 74,-166 165,-166 92,0 166,74 166,166z"/>
   <path class="fil12" d="M5086 2331l-85 0c-21,0 -38,17 -38,38l0 290c0,21 17,38 38,38l85 0c21,0 38,-17 38,-38l0 -290c0,-21 -17,-38 -38,-38z"/>
   <path class="fil12" d="M4843 2331l-85 0c-21,0 -38,17 -38,38l0 290c0,21 17,38 38,38l85 0c21,0 38,-17 38,-38l0 -290c0,-21 -17,-38 -38,-38z"/>
   <polygon class="fil12" points="4272,2961 4873,3102 4956,2746 4355,2605 "/>
   <polygon class="fil18" points="4924,2885 4942,2807 4942,2807 "/>
   <polygon class="fil19" points="4324,2739 4324,2739 4332,2703 "/>
   <polygon class="fil18" points="4317,2770 4317,2769 4324,2739 4324,2739 "/>
   <polygon class="fil20" points="4918,2910 4317,2770 4324,2739 4332,2703 4341,2666 4942,2807 4924,2885 "/>
   <polygon class="fil18" points="4873,3102 4504,3015 4873,3102 4897,2999 4897,2999 "/>
   <polygon class="fil20" points="4873,3102 4504,3015 4324,2973 4272,2961 4296,2858 4897,2999 "/>
   <polygon class="fil9" points="4881,2697 4963,2697 4963,2385 4881,2385 "/>
   <path class="fil12" d="M4583 3306l-338 0c-13,0 -23,11 -23,24l0 142c0,13 10,24 23,24l338 0c14,0 24,-11 24,-24l0 -142c0,-13 -10,-24 -24,-24z"/>
   <path class="fil12" d="M4854 3306l-185 0c-13,0 -23,11 -23,24l0 142c0,13 10,24 23,24l185 0c13,0 23,-11 23,-24l0 -142c0,-13 -10,-24 -23,-24z"/>
   <path class="fil0" d="M3370 2277l27 -22c18,-15 41,-23 64,-20l320 32 -485 -160 74 170z"/>
   <polygon class="fil21" points="4268,2991 3771,2840 3852,2490 4363,2578 "/>
   <polygon class="fil12" points="7724,1923 7537,2012 6840,535 7027,447 "/>
   <polygon class="fil22" points="7724,1923 7630,1967 6933,491 7027,447 "/>
   <path class="fil11" d="M7722 2632l-599 -1289 -42 20 600 1289c27,59 42,124 42,189l0 363 46 0 0 -363c0,-72 -16,-144 -47,-209z"/>
   <polygon class="fil12" points="7192,1452 7023,1532 6604,644 6773,565 "/>
   <polygon class="fil23" points="7023,1532 7021,1527 7023,1532 7029,1529 7029,1529 "/>
   <polygon class="fil23" points="7029,1529 7029,1529 7108,1492 7108,1492 "/>
   <polygon class="fil24" points="7023,1532 7021,1527 6888,1245 6825,1113 6690,825 6630,699 6604,644 6689,605 7108,1492 7029,1529 "/>
   <polygon class="fil25" points="4275,2960 3777,2814 3846,2517 4356,2609 "/>
   <polygon class="fil21" points="4282,2929 3783,2788 3839,2543 4349,2640 "/>
   <polygon class="fil25" points="4289,2899 3789,2764 3833,2569 4342,2669 "/>
   <polygon class="fil21" points="4297,2866 3795,2736 3827,2597 4334,2702 "/>
   <polygon class="fil25" points="4304,2835 3801,2710 3821,2623 4327,2733 "/>
   <polygon class="fil21" points="4310,2805 3807,2685 3815,2649 4320,2763 "/>
   <polygon class="fil26" points="4151,2955 4185,2965 4276,2563 4242,2557 "/>
   <polygon class="fil26" points="3824,2856 3858,2866 3940,2505 3905,2499 "/>
   <path class="fil27" d="M6641 958c-30,-173 -183,-200 -183,-200 -238,-29 -755,-46 -755,-46 -1256,38 -1737,641 -1804,749 -5,9 -9,18 -12,27l-81 299c-11,59 105,60 105,60l2583 0c204,0 213,-196 213,-196l-66 -693z"/>
   <path class="fil28" d="M6494 1847c128,0 180,-77 200,-135 10,-28 13,-59 11,-89l-29 -297 -327 521 145 0z"/>
   <path class="fil29" d="M5680 848c0,0 539,16 786,46 0,0 147,25 186,180l-11 -116c-30,-173 -183,-200 -183,-200 -238,-29 -755,-46 -755,-46 -1256,38 -1737,641 -1804,749 -5,9 -9,18 -12,27l-2 8c195,-207 724,-617 1795,-648z"/>
   <path class="fil28" d="M6635 1795l-2829 0c-1,51 105,52 105,52l2583 0c64,0 109,-19 141,-46l0 -6z"/>
   <path class="fil30" d="M6707 1651l-2 -22c0,0 0,0 0,0l2 22z"/>
   <polygon class="fil31" points="6693,1506 6688,1447 6688,1446 6693,1506 "/>
   <polygon class="fil30" points="6698,1555 6693,1506 6693,1506 "/>
   <polygon class="fil23" points="6688,1447 6679,1350 6679,1350 6688,1446 "/>
   <path class="fil32" d="M6494 1847c0,0 0,0 0,0 0,0 0,0 0,0zm-2583 0c0,0 -105,-1 -105,-52 0,-2 0,-5 0,-8l81 -299 -2 8c39,-42 93,-92 162,-146l2614 0 -279 445 -2576 0c-1,51 105,52 105,52zm2724 -46l0 0c31,-27 49,-60 59,-89 10,-26 13,-55 11,-83l2 22c0,0 -4,92 -72,150z"/>
   <path class="fil33" d="M6635 1801l0 -6 -253 0 279 -445 18 0 9 97 5 59 5 49 7 74c0,0 0,0 0,0 2,28 -1,57 -11,83 -10,29 -28,62 -59,89z"/>
   <path class="fil34" d="M3885 1496l2 -8c3,-9 7,-18 12,-27 13,-21 42,-61 89,-111l59 0c-69,54 -123,104 -162,146z"/>
   <path class="fil32" d="M6495 1847c0,0 0,0 0,0 0,0 0,0 0,0z"/>
   <path class="fil32" d="M6496 1847c0,0 0,0 1,0 -1,0 -1,0 -1,0z"/>
   <path class="fil32" d="M6497 1847c0,0 0,0 0,0 0,0 0,0 0,0z"/>
   <path class="fil32" d="M6498 1847c0,0 0,0 0,0 0,0 0,0 0,0z"/>
   <path class="fil32" d="M6498 1847c1,0 1,0 1,0 0,0 -1,0 -1,0z"/>
   <path class="fil33" d="M6494 1847l-2583 0 0 0c0,0 -106,-1 -105,-52l2829 0 0 6c-31,26 -74,45 -136,46l0 0c0,0 0,0 -1,0l0 0c0,0 0,0 0,0l0 0c0,0 0,0 0,0l0 0c0,0 0,0 -1,0l0 0c0,0 0,0 0,0l0 0c0,0 0,0 0,0l0 0c-1,0 -1,0 -1,0l0 0c0,0 0,0 0,0l0 0c0,0 0,0 -1,0l0 0c0,0 0,0 0,0l0 0c0,0 0,0 0,0l0 0c0,0 -1,0 -1,0l0 0c0,0 0,0 0,0l0 0z"/>
   <path class="fil35" d="M4038 1730c0,0 -95,-39 -16,-152 0,0 411,-548 1242,-608 0,0 165,-8 171,142 0,0 13,283 -125,427 0,0 -66,91 -268,118 0,0 -630,74 -1004,73z"/>
   <path class="fil28" d="M5435 1112c-6,-150 -171,-142 -171,-142 -715,52 -1119,465 -1218,579 145,-151 536,-489 1178,-535 0,0 165,-8 171,142 0,0 11,255 -106,404 14,-13 21,-21 21,-21 138,-144 125,-427 125,-427z"/>
   <g>
    <path class="fil27" d="M8908 2153c-962,-249 -1590,337 -1752,514 -16,16 -2,43 21,41l214 -24c145,-112 392,-250 392,-250 42,-16 77,-26 108,-30 85,-13 168,31 205,108l256 666c9,19 33,27 52,17l62 -31c19,-8 27,-30 19,-49l-233 -696c-4,-43 10,-72 28,-92 20,-22 50,-35 81,-36 134,-8 278,9 344,19 25,3 49,-3 69,-18l141 -104c13,-10 9,-30 -7,-35z"/>
    <path class="fil35" d="M8481 3102l-41 20c-20,10 -43,1 -52,-18l-256 -665c-37,-77 -120,-121 -205,-109 -31,5 -67,14 -108,31 0,0 -248,137 -392,249l-215 24c-7,1 -14,-2 -19,-6 -14,14 -26,27 -37,39 -16,16 -2,43 21,41l214 -24c145,-112 392,-250 392,-250 42,-16 77,-26 108,-30 85,-13 168,31 205,108l256 666c9,19 33,27 52,17l62 -31c19,-8 27,-30 19,-49l-4 -13z"/>
    <path class="fil29" d="M8908 2154c-429,-112 -792,-57 -1076,54 264,-81 585,-109 956,-13 15,4 19,25 6,34l-105 78c6,1 11,2 16,3 25,3 49,-3 69,-18l141 -104c13,-10 9,-30 -7,-34z"/>
    <polygon class="fil8" points="7952,2407 7765,2495 8120,3246 8307,3158 "/>
    <polygon class="fil36" points="7765,2495 7861,2450 7861,2450 "/>
    <polygon class="fil37" points="8120,3246 8094,3192 8010,3013 7990,2971 7870,2718 7826,2625 7765,2495 7861,2450 8216,3201 "/>
    <polygon class="fil12" points="7824,2073 7589,2184 7741,2507 7976,2396 "/>
    <path class="fil12" d="M8446 3700l4 -2c64,-30 91,-106 61,-170l-180 -381 -235 111 180 381c30,64 106,91 170,61z"/>
    <polygon class="fil22" points="7824,2073 7712,2125 7865,2448 7976,2396 "/>
    <polygon class="fil12" points="8480,3655 7899,3811 7882,3745 8462,3588 "/>
    <polygon class="fil12" points="8356,3401 7921,3270 7941,3204 8376,3335 "/>
    <path class="fil38" d="M8453 3108c0,25 -20,45 -44,45 -25,0 -45,-20 -45,-45 0,-25 20,-44 45,-44 24,0 44,19 44,44z"/>
    <path class="fil8" d="M8483 3573c0,51 -41,93 -93,93 -51,0 -92,-42 -92,-93 0,-51 41,-93 92,-93 52,0 93,42 93,93z"/>
    <path class="fil6" d="M8457 3573c0,37 -30,67 -67,67 -36,0 -66,-30 -66,-67 0,-37 30,-67 66,-67 37,0 67,30 67,67z"/>
    <g>
     <polygon class="fil39" points="8007,3202 7878,3815 7600,3756 7730,3144 "/>
     <path class="fil39" d="M7908 3311l121 26c10,1 19,-4 21,-14l19 -90c2,-9 -4,-19 -13,-21l-122 -25 -26 124z"/>
     <path class="fil39" d="M7984 3550c10,2 19,-4 21,-13l19 -90c2,-9 -4,-19 -13,-21l-122 -25 -27 124 122 25z"/>
     <path class="fil39" d="M7926 3825c10,2 19,-4 21,-13l19 -90c2,-10 -4,-19 -14,-21l-121 -25 -27 124 122 25z"/>
     <path class="fil40" d="M7675 3131l-44 208c-2,12 5,23 17,25l193 41c12,3 23,-5 26,-16l43 -209c3,-11 -5,-22 -16,-25l-193 -41c-12,-2 -23,5 -26,17z"/>
     <path class="fil40" d="M7634 3472l-60 287c-3,11 4,23 16,25l164 35c11,2 23,-5 25,-17l61 -286c2,-12 -5,-23 -17,-25l-164 -35c-11,-2 -23,5 -25,16z"/>
    </g>
   </g>
   <g>
    <path class="fil11" d="M2152 2926l-308 0 0 46 308 0c41,0 74,34 74,75l0 147 46 0 0 -147c0,-67 -54,-121 -120,-121z"/>
    <g>
     <polygon class="fil39" points="1858,3135 1285,3047 1324,2787 1898,2875 "/>
     <path class="fil39" d="M1753 3048l-18 114c-1,9 5,17 14,19l84 13c9,1 17,-5 18,-14l18 -114 -116 -18z"/>
     <path class="fil39" d="M1535 3132c-2,8 4,17 14,18l83 13c9,1 18,-5 19,-14l17 -113 -115 -18 -18 114z"/>
     <path class="fil39" d="M1278 3092c-2,9 4,17 13,19l84 12c9,2 17,-4 19,-13l17 -114 -116 -18 -17 114z"/>
     <path class="fil40" d="M1907 2824l-195 -30c-11,-2 -21,6 -22,17l-28 181c-2,11 6,21 16,22l195 30c11,2 21,-6 23,-16l28 -181c2,-11 -6,-21 -17,-23z"/>
     <path class="fil40" d="M1589 2803l-268 -41c-11,-1 -21,6 -23,17l-23 153c-2,11 6,21 17,23l268 41c10,2 20,-6 22,-17l24 -153c1,-11 -6,-21 -17,-23z"/>
    </g>
   </g>
   <polygon class="fil9" points="3611,3470 2342,1902 2448,1816 3717,3384 "/>
   <polygon class="fil41" points="3664,3427 2449,1925 2542,1931 3717,3384 "/>
   <path class="fil9" d="M3934 3434c0,102 -83,184 -185,184 -101,0 -184,-82 -184,-184 0,-102 83,-184 184,-184 102,0 185,82 185,184z"/>
   <path class="fil42" d="M6668 419c0,0 90,-42 169,-29 0,0 86,14 106,100 0,0 21,104 -49,172l-3 102c0,7 -3,15 -8,20 -10,11 -28,32 -53,56l-240 212c-20,18 -25,37 -25,65 0,11 0,23 1,32 1,8 -9,23 -14,29 -6,6 -15,10 -26,-1 0,0 -45,-73 -2,-131l236 -209c0,0 68,-84 43,-134l-135 -284z"/>
   <path class="fil43" d="M6863 585c0,99 -79,180 -179,180 -99,0 -179,-79 -180,-178 0,-99 80,-180 179,-180 99,-1 180,79 180,178z"/>
   <path class="fil12" d="M6684 706c-66,0 -120,-54 -120,-119 0,-67 53,-120 119,-121 66,0 120,53 120,119 0,66 -53,120 -119,121zm-1 -273c-85,1 -153,69 -152,154 0,84 69,152 153,152 84,-1 152,-69 152,-154 0,-84 -69,-152 -153,-152z"/>
   <path class="fil42" d="M6225 833l414 -309c0,0 68,-23 99,36 0,0 25,47 7,85l-370 347 -150 -159z"/>
   <path class="fil43" d="M6414 908c0,61 -49,110 -110,110 -60,1 -110,-48 -110,-109 0,-60 49,-110 109,-110 61,0 110,49 111,109z"/>
   <path class="fil12" d="M6304 965c-31,1 -57,-25 -57,-56 0,-31 25,-57 56,-57 32,0 57,25 58,57 0,31 -26,56 -57,56zm-1 -139c-45,1 -82,38 -81,83 0,45 37,82 82,82 46,0 82,-37 82,-83 0,-45 -37,-82 -83,-82z"/>
   <path class="fil12" d="M6304 881c-16,0 -28,12 -28,28 0,15 12,28 28,28 15,0 28,-13 28,-28 0,-16 -13,-28 -28,-28z"/>
   <path class="fil44" d="M3752 1489l0 0c-146,-42 -256,-4 -256,-4 -118,-40 -254,-10 -254,-10l0 0c-112,-40 -242,-16 -243,-16 -133,-46 -234,-25 -235,-25 -92,-56 -247,-40 -247,-40 -113,-62 -240,-65 -240,-65l-110 -105c-38,-36 -90,-54 -141,-48 -212,23 -771,121 -1004,517l2304 153 466 0 95 -358c-55,-17 -134,1 -135,1z"/>
   <path class="fil45" d="M2068 1220l118 132c0,0 135,4 255,80 1,0 166,-19 263,50l0 0c1,0 109,-27 251,31 1,0 139,-30 258,21 0,0 144,-38 270,12 0,0 118,-47 273,5 0,0 61,-17 116,-8l15 -55c-56,-17 -135,1 -135,1 -146,-42 -256,-4 -257,-4 -118,-40 -253,-10 -254,-10 -112,-40 -241,-16 -242,-16 -133,-46 -235,-25 -236,-25 -91,-56 -246,-40 -247,-40 -113,-62 -239,-65 -239,-65l-111 -105c-38,-36 -89,-54 -141,-48 -4,0 -8,1 -12,1 20,10 39,25 55,43z"/>
   <path class="fil46" d="M3792 1846l23 -87c-899,12 -2292,-154 -2689,-203 -39,41 -74,87 -104,137l2304 153 466 0z"/>
   <polygon class="fil14" points="7145,100 7097,123 7064,55 7113,32 "/>
   <polygon class="fil14" points="7074,134 7037,151 7005,83 7042,66 "/>
   <polygon class="fil14" points="6858,236 6797,265 6765,197 6826,168 "/>
   <path class="fil8" d="M3536 3796l-26 -88 284 -34 -258 122zm373 -194l-273 22 0 -50 -210 -58 -351 100 0 44 44 33 127 -28 177 205 16 32 477 -226c0,0 62,-54 -7,-74z"/>
   <path class="fil6" d="M6599 3217c-9,-141 -100,-277 -192,-329 -57,-33 -150,-52 -216,-56l-204 -12 38 184c106,-7 228,25 228,25 63,33 100,82 122,132 46,107 24,231 -52,319l-393 489c-172,223 -491,171 -491,171l-1718 -186c-304,-25 -476,-191 -476,-191l-538 -558c-96,-94 -154,-126 -207,-139 -53,-12 -123,4 -143,55 -50,128 115,272 115,272l506 483c216,254 498,274 498,274 0,0 1577,209 1919,233 250,17 440,-75 524,-126 28,-17 53,-39 74,-65l379 -463c246,-298 227,-512 227,-512z"/>
   <path class="fil47" d="M2396 3090c54,13 112,44 207,139l538 558c0,0 172,165 476,191l1718 186c0,0 136,22 278,-25 -98,14 -174,1 -174,1l-1718 -186c-304,-25 -476,-191 -476,-191l-538 -558c-96,-94 -154,-126 -207,-139 -39,-8 -87,-2 -117,22 4,0 9,1 13,2z"/>
   <path class="fil47" d="M6599 3217c-9,-141 -100,-277 -192,-329 -57,-33 -150,-52 -216,-56l-204 -12 6 30 94 6c66,4 159,23 216,55 92,53 183,189 192,330 0,0 19,213 -227,511l-379 464c-21,26 -46,48 -74,65 -44,26 -117,64 -213,92 147,-24 258,-80 317,-116 28,-17 53,-39 74,-65l379 -463c246,-298 227,-512 227,-512z"/>
   <polygon class="fil48" points="3049,3559 2844,3748 2869,3771 3075,3587 "/>
   <polygon class="fil48" points="2899,3800 2923,3824 3128,3641 3101,3614 "/>
   <path class="fil48" d="M3882 3972l-46 225c11,2 22,3 34,5l50 -226 -38 -4z"/>
   <path class="fil48" d="M3911 4207c11,2 23,3 34,5l50 -228 -37 -4 -47 227z"/>
   <polygon class="fil48" points="5951,3943 6103,4058 6125,4032 5974,3915 "/>
   <polygon class="fil48" points="5998,3885 6151,3999 6172,3973 6021,3856 "/>
   <path class="fil48" d="M6396 3240c2,13 2,25 2,38l197 4c2,-13 3,-24 3,-34l-202 -8z"/>
   <path class="fil48" d="M6389 3353l190 4c3,-11 6,-23 8,-33l-191 -8c-1,12 -4,25 -7,37z"/>
   <path class="fil48" d="M6239 3026c9,2 14,3 14,3 7,4 14,8 20,12l95 -171c-10,-4 -21,-8 -33,-12l-96 168z"/>
   <path class="fil48" d="M6259 2840l-98 171c14,2 27,5 39,7l94 -171c-11,-2 -23,-5 -35,-7z"/>
   <path class="fil8" d="M4836 2743c0,0 215,-229 332,-282 0,0 336,24 610,140l41 71 187 92c0,0 104,248 112,390 0,0 -108,157 -257,319 0,0 -469,46 -876,-79 0,0 -154,-265 -183,-357 0,0 -12,-145 34,-294z"/>
   <path class="fil49" d="M4933 3302c29,54 51,92 51,92 407,125 876,79 876,79 39,-42 75,-83 107,-122 -162,7 -601,16 -1034,-49z"/>
   <path class="fil15" d="M4802 3037c2,4 3,8 5,13l1232 210c50,-64 79,-106 79,-106 -2,-40 -12,-88 -25,-137 -515,-133 -1257,-274 -1257,-274 -46,149 -34,294 -34,294z"/>
   <path class="fil50" d="M4836 2743c-3,7 -5,15 -7,23l1271 278c-2,-7 -4,-16 -6,-24l-9 -4c-515,-133 -1249,-273 -1249,-273z"/>
   <path class="fil50" d="M6058 3236l-1257 -215c1,10 1,16 1,16 2,4 3,8 5,13l1232 210c7,-8 13,-16 19,-24z"/>
   <path class="fil51" d="M5905 2973l181 20c-33,-117 -80,-229 -80,-229l-187 -92 -41 -71c-274,-116 -610,-140 -610,-140 -24,10 -51,28 -79,49 338,54 609,151 609,151l207 312z"/>
   <path class="fil6" d="M5023 2914c0,50 -40,90 -90,90 -50,0 -90,-40 -90,-90 0,-50 40,-90 90,-90 50,0 90,40 90,90z"/>
   <path class="fil52" d="M4997 2914c0,36 -28,65 -64,65 -36,0 -65,-29 -65,-65 0,-36 29,-65 65,-65 36,0 64,29 64,65z"/>
   <path class="fil53" d="M4918 2977c5,1 10,2 15,2 5,0 10,-1 14,-2l0 -126c-4,-1 -9,-2 -14,-2 -5,0 -10,1 -15,2l0 126z"/>
   <path class="fil6" d="M5887 3087c0,49 -40,90 -90,90 -49,0 -90,-41 -90,-90 0,-50 41,-90 90,-90 50,0 90,40 90,90z"/>
   <path class="fil52" d="M5862 3087c0,35 -29,64 -65,64 -36,0 -65,-29 -65,-64 0,-36 29,-65 65,-65 36,0 65,29 65,65z"/>
   <path class="fil53" d="M5783 3150c4,1 9,1 14,1 5,0 10,0 15,-1l0 -126c-5,-2 -10,-2 -15,-2 -5,0 -10,0 -14,2l0 126z"/>
   <path class="fil54" d="M6006 2764l-185 -91c30,91 101,318 108,460 0,0 -95,164 -231,348 99,-2 163,-8 163,-8 149,-162 257,-319 257,-319 -8,-142 -112,-390 -112,-390z"/>
   <path class="fil6" d="M3919 3645c0,19 -15,35 -34,35 -19,0 -35,-16 -35,-35 0,-18 16,-34 35,-34 19,0 34,16 34,34z"/>
   <path class="fil52" d="M3909 3645c0,14 -11,25 -24,25 -14,0 -25,-11 -25,-25 0,-13 11,-24 25,-24 13,0 24,11 24,24z"/>
   <path class="fil6" d="M3476 3583c0,24 -19,43 -42,43 -24,0 -43,-19 -43,-43 0,-23 19,-42 43,-42 23,0 42,19 42,42z"/>
   <path class="fil52" d="M3465 3583c0,17 -14,31 -31,31 -18,0 -31,-14 -31,-31 0,-17 13,-30 31,-30 17,0 31,13 31,30z"/>
   <path class="fil8" d="M3876 3434c0,70 -57,126 -127,126 -70,0 -126,-56 -126,-126 0,-70 56,-127 126,-127 70,0 127,57 127,127z"/>
   <path class="fil6" d="M3838 3434c0,49 -40,88 -89,88 -49,0 -88,-39 -88,-88 0,-49 39,-88 88,-88 49,0 89,39 89,88z"/>
   <path class="fil55" d="M3750 3522c0,0 0,0 0,0 0,0 0,0 0,0zm0 0c0,0 0,0 0,0 0,0 0,0 0,0zm1 0c0,0 0,0 0,0 0,0 0,0 0,0zm0 0l0 0 0 0zm0 0c0,0 0,0 0,0 0,0 0,0 0,0zm1 0c0,0 0,0 0,0 0,0 0,0 0,0zm0 0c0,0 0,0 0,0 0,0 0,0 0,0zm0 0l0 0 0 0zm1 0c0,0 0,0 0,0 0,0 0,0 0,0zm0 0c0,0 0,0 0,0 0,0 0,0 0,0zm1 0l0 0c0,0 0,0 0,0zm0 0l0 0 0 0zm-93 -88c0,-1 0,-1 0,-1 0,0 0,0 0,1zm0 -1l0 0 0 0zm0 0c0,0 0,0 0,0 0,0 0,0 0,0zm0 -1l0 0 0 0z"/>
   <path class="fil56" d="M3749 3522c-49,0 -88,-39 -88,-88 0,0 0,0 0,0 0,-1 0,-1 0,-1 0,0 0,0 0,0l0 0c0,0 0,0 0,0 0,0 0,0 0,0 0,-1 0,-1 0,-1l0 0c0,-18 6,-34 15,-48l147 99c-15,22 -40,38 -69,39l0 0c0,0 0,0 0,0l0 0c0,0 -1,0 -1,0 0,0 0,0 0,0 0,0 0,0 0,0 0,0 0,0 0,0 0,0 -1,0 -1,0l0 0c0,0 0,0 0,0 0,0 0,0 0,0 0,0 0,0 0,0 0,0 0,0 0,0 0,0 -1,0 -1,0 0,0 0,0 0,0 0,0 0,0 0,0l0 0c0,0 0,0 0,0 0,0 0,0 0,0 -1,0 -1,0 -1,0 0,0 0,0 0,0 0,0 0,0 0,0 0,0 0,0 0,0 0,0 0,0 -1,0l0 0z"/>
   <path class="fil8" d="M6058 2575c0,70 -57,126 -127,126 -70,0 -126,-56 -126,-126 0,-70 56,-127 126,-127 70,0 127,57 127,127z"/>
   <path class="fil6" d="M6020 2575c0,48 -40,88 -89,88 -48,0 -88,-40 -88,-88 0,-49 40,-89 88,-89 49,0 89,40 89,89z"/>
   <path class="fil55" d="M5932 2663c0,0 0,0 0,0 0,0 0,0 0,0zm0 0c0,0 0,0 0,0 0,0 0,0 0,0zm0 0c0,0 0,0 0,0 0,0 0,0 0,0zm49 -15c10,-7 18,-15 24,-25l0 0c-6,10 -14,18 -24,25zm-138 -74c0,0 0,0 0,0 0,0 0,0 0,0z"/>
   <path class="fil56" d="M5931 2663c-48,0 -88,-40 -88,-88 0,0 0,-1 0,-1 0,0 0,0 0,0 0,-18 6,-35 16,-49l146 98c-6,10 -14,18 -24,25 -14,9 -31,15 -49,15 0,0 0,0 0,0 0,0 0,0 0,0 0,0 0,0 0,0 0,0 0,0 0,0 0,0 0,0 0,0 0,0 0,0 -1,0l0 0z"/>
   <path class="fil57" d="M5827 1290c0,27 -12,37 -30,37 -19,0 -31,-10 -31,-37l0 -68c0,-27 12,-36 31,-36 18,0 30,9 30,36l0 68zm-30 -159c-58,0 -90,35 -90,95l0 69c0,55 22,86 65,86 27,0 45,-12 55,-33l0 69c0,36 -12,46 -32,46 -19,0 -31,-10 -31,-37l0 -14 -56 0 0 10c0,60 30,95 88,95 61,0 90,-35 90,-98l0 -193c0,-60 -31,-95 -89,-95z"/>
   <path class="fil57" d="M6040 1290c0,27 -11,37 -31,37 -18,0 -30,-10 -30,-37l0 -68c0,-27 12,-36 30,-36 20,0 31,9 31,36l0 68zm-31 -159c-57,0 -89,35 -89,95l0 69c0,55 22,86 65,86 27,0 45,-12 55,-33l0 69c0,36 -11,46 -32,46 -20,0 -31,-10 -31,-37l0 -14 -56 0 0 10c0,60 30,95 88,95 62,0 91,-35 91,-98l0 -193c0,-60 -32,-95 -91,-95z"/>
   <path class="fil57" d="M5903 1627c-169,0 -305,-137 -305,-305 0,-168 136,-304 305,-304 168,0 304,136 304,304 0,168 -136,305 -304,305zm0 -635c-183,0 -331,148 -331,330 0,183 148,331 331,331 182,0 330,-148 330,-331 0,-182 -148,-330 -330,-330z"/>
   <path class="fil12" d="M5007 3992l316 61 -36 97 -280 -158zm-138 -8l508 287 30 -30 215 -216 142 42 51 -33 18 -53 -401 -137 -240 48 -4 56 -305 -47c-79,17 -14,83 -14,83z"/>
   <path class="fil6" d="M5383 3912c-1,23 16,44 40,45 23,2 43,-16 45,-39 2,-24 -16,-44 -39,-46 -24,-1 -44,16 -46,40z"/>
   <path class="fil52" d="M5395 3913c-1,17 12,31 28,32 17,2 32,-11 33,-28 1,-17 -11,-32 -28,-33 -17,-1 -32,12 -33,29z"/>
   <path class="fil6" d="M5321 4180c-2,24 16,44 39,46 24,2 45,-16 46,-40 2,-23 -16,-43 -39,-45 -24,-2 -44,16 -46,39z"/>
   <path class="fil52" d="M5333 4181c-1,17 12,32 29,33 16,1 31,-12 32,-28 2,-17 -11,-32 -28,-33 -17,-1 -32,11 -33,28z"/>
   <path class="fil58" d="M5630 4051c-5,70 47,130 117,135 70,5 130,-47 135,-117 5,-69 -47,-130 -117,-135 -70,-5 -130,47 -135,117z"/>
   <path class="fil6" d="M5668 4054c-4,49 33,91 82,94 48,4 91,-33 94,-81 4,-49 -33,-91 -82,-95 -48,-3 -91,33 -94,82z"/>
   <path class="fil59" d="M5756 4149l0 0c0,0 1,0 1,0 0,0 -1,0 -1,0zm0 0c-2,0 -4,0 -6,-1 2,1 4,1 6,1zm-6 -1c-31,-2 -57,-19 -71,-44l0 0c14,24 40,42 71,44zm94 -79c0,-1 0,-1 0,-1 0,0 0,0 0,1zm0 -2l0 0c1,-16 -2,-31 -8,-45 6,14 9,29 8,45l0 0z"/>
   <path class="fil56" d="M5756 4149l0 0c-2,0 -4,0 -6,-1 0,0 0,0 0,0l0 0c0,0 0,0 0,0 -31,-2 -57,-20 -71,-44l153 -88c2,2 3,4 4,6 6,14 9,29 8,45l0 0c0,0 0,0 0,1 0,0 0,0 0,1 -4,45 -43,80 -87,80 0,0 -1,0 -1,0z"/>
   <g>
    <polygon class="fil0" points="1142,3709 3294,3709 3294,3397 1142,3397 "/>
    <polygon class="fil9" points="1142,3641 3294,3641 3294,3466 1142,3466 "/>
    <polygon class="fil0" points="3680,3324 1615,3324 1615,3040 3556,3040 "/>
    <polygon class="fil0" points="4369,3238 1414,3123 1412,3193 4367,3309 "/>
    <polygon class="fil0" points="1655,3316 1437,3397 1142,3397 1615,3216 "/>
   </g>
  </g>
 </g>
</svg>
