<?xml version="1.0" encoding="UTF-8"?>
<!DOCTYPE svg PUBLIC "-//W3C//DTD SVG 1.1//EN" "http://www.w3.org/Graphics/SVG/1.1/DTD/svg11.dtd">
<!-- Creator: CorelDRAW X7 -->
<svg xmlns="http://www.w3.org/2000/svg" xml:space="preserve" width="4.73213in" height="4.74796in" version="1.1" style="shape-rendering:geometricPrecision; text-rendering:geometricPrecision; image-rendering:optimizeQuality; fill-rule:evenodd; clip-rule:evenodd"
viewBox="0 0 196 197"
 xmlns:xlink="http://www.w3.org/1999/xlink">
 <defs>
  <style type="text/css">
   <![CDATA[
    .fil0 {fill:#5EA943}
    .fil2 {fill:#AED3A0}
    .fil1 {fill:#FEFFFE}
   ]]>
  </style>
 </defs>
 <g id="Layer_x0020_1">
  <metadata id="CorelCorpID_0Corel-Layer"/>
  <g id="_2269462226560">
   <rect class="fil0" width="196" height="197" rx="15" ry="15"/>
   <path class="fil1" d="M0 38l10 10c10,10 19,19 29,29 5,5 37,35 39,39 1,5 -4,11 -9,9 -4,-2 -42,-42 -49,-48 -3,-4 -17,-18 -20,-18l0 38 7 6c3,2 4,5 7,7 10,10 31,33 39,39 3,3 28,15 34,19 7,4 28,17 37,13 1,-7 -7,-19 -10,-25 -4,-8 -21,-42 -25,-46l-35 -36c-6,-6 -12,-11 -18,-17 -10,-10 -21,-22 -31,-31 -2,-1 -3,-3 -5,-4l0 16z"/>
   <path class="fil2" d="M170 1l-55 0c3,39 17,72 24,106l8 -1c1,-3 5,-20 6,-25 8,-28 15,-50 17,-80z"/>
   <path class="fil0" d="M0 59c3,0 17,14 20,18 7,6 45,46 49,48 5,2 10,-4 9,-9 -2,-4 -34,-34 -39,-39 -10,-10 -19,-19 -29,-29l-10 -10 0 21z"/>
   <path class="fil2" d="M92 1l-18 0c3,16 17,43 25,56 6,10 25,42 34,47 -1,-4 -5,-9 -7,-12 -2,-4 -4,-8 -6,-12 -10,-23 -23,-54 -28,-79z"/>
   <path class="fil2" d="M192 4c-5,22 -18,59 -27,77l-12 23c4,-4 8,-8 13,-14 7,-10 15,-22 21,-34 2,-3 7,-13 9,-16l0 -25c0,-4 -1,-8 -4,-11z"/>
   <polygon class="fil2" points="129,143 158,143 163,119 124,119 "/>
   <path class="fil2" d="M65 1l-6 0c3,16 20,42 28,55 3,4 5,8 8,12l24 28c1,2 3,3 4,5 -2,-4 -5,-8 -8,-11 -17,-24 -42,-61 -50,-89z"/>
   <path class="fil2" d="M196 51c-2,2 -5,9 -7,12 -3,4 -5,7 -8,12 -6,8 -12,16 -17,24 2,-1 6,-7 9,-9 3,-4 5,-7 8,-10l12 -16c1,-1 1,-2 2,-3l1 -2 0 -8z"/>
  </g>
 </g>
</svg>
