<?xml version="1.0" encoding="UTF-8"?>
<!DOCTYPE svg PUBLIC "-//W3C//DTD SVG 1.1//EN" "http://www.w3.org/Graphics/SVG/1.1/DTD/svg11.dtd">
<!-- Creator: CorelDRAW X7 -->
<svg xmlns="http://www.w3.org/2000/svg" xml:space="preserve" width="8.84892in" height="9.89017in" version="1.1" style="shape-rendering:geometricPrecision; text-rendering:geometricPrecision; image-rendering:optimizeQuality; fill-rule:evenodd; clip-rule:evenodd"
viewBox="0 0 840 939"
 xmlns:xlink="http://www.w3.org/1999/xlink">
 <defs>
  <style type="text/css">
   <![CDATA[
    .fil0 {fill:#0277BC}
    .fil1 {fill:#029AE5}
    .fil2 {fill:#EDEDED}
   ]]>
  </style>
 </defs>
 <g id="Layer_x0020_1">
  <metadata id="CorelCorpID_0Corel-Layer"/>
  <g id="_2269462495712">
   <path class="fil0" d="M419 744l-194 -64 -8 -136 100 0 2 61 101 35 0 -145 -109 -1 -5 -98 114 0 114 0 -114 0 0 -99 -220 -1 -7 -98 227 -1 0 -122 338 -1 -61 710 -276 79 -2 -119zm-416 -710l2 27 3 28 0 16 5 44 2 33c3,6 4,31 4,40 1,7 3,14 1,21 3,5 3,22 4,29 0,5 1,11 0,16 4,5 4,30 5,38 1,7 2,16 1,22 3,7 3,21 3,30l3 25 2 28 3 47c3,5 3,25 4,32 0,6 2,14 0,20 4,6 4,25 4,33l3 26 2 26 0 15c4,5 4,31 5,39l1 20 3 31c1,10 5,40 4,47 3,6 3,24 3,32l1 22 3 19 43 13 26 8c8,1 24,5 29,9 6,0 44,10 50,13 8,2 24,5 29,9 5,0 19,3 23,6 6,1 19,4 23,7l4 1c7,1 25,5 29,9 5,0 19,3 23,6l54 15c4,1 9,3 12,3 5,0 7,-2 13,-2 5,-4 46,-15 55,-16 5,-3 18,-6 23,-6 5,-4 22,-8 29,-9l5 -1c5,-4 16,-6 23,-7 3,-3 18,-6 23,-6 6,-5 19,-7 28,-9 7,-3 43,-13 49,-13 4,-4 24,-8 30,-9l27 -8 8 -2c5,-2 10,-4 15,-4 5,-4 14,-3 19,-7l2 -14 2 -25 7 -69 -1 -5 5 -36 1 -22c0,-8 1,-36 4,-41l0 -13c1,-8 0,-22 4,-28 -2,-7 0,-16 1,-24 0,-8 0,-27 4,-33 -2,-6 0,-14 1,-21 0,-7 0,-26 3,-31l4 -47 4 -43 0 -11c1,-8 1,-26 4,-31 -1,-6 0,-14 1,-20 0,-8 1,-33 4,-38 -1,-5 0,-11 1,-16 0,-8 0,-25 3,-30 -1,-7 0,-15 1,-21 1,-10 0,-30 4,-37 -2,-7 2,-29 3,-37 0,-9 1,-33 4,-39l1 -19 2 -28 3 -27 2 -34 -840 0 3 34z"/>
   <polygon class="fil1" points="193,198 421,198 645,198 615,680 423,742 419,744 421,863 697,784 758,74 420,75 420,197 "/>
   <polygon class="fil2" points="419,744 423,742 423,640 420,640 319,605 317,544 217,544 225,680 "/>
   <polygon class="fil2" points="420,297 542,297 420,294 421,198 193,198 200,296 "/>
   <polygon class="fil1" points="420,640 423,640 522,606 529,495 420,495 "/>
   <polygon class="fil1" points="534,396 535,388 542,297 420,297 420,396 "/>
   <polygon class="fil2" points="420,495 529,495 527,492 420,492 420,396 306,396 311,494 "/>
  </g>
 </g>
</svg>
