<?xml version="1.0" encoding="UTF-8"?>
<!DOCTYPE svg PUBLIC "-//W3C//DTD SVG 1.1//EN" "http://www.w3.org/Graphics/SVG/1.1/DTD/svg11.dtd">
<!-- Creator: CorelDRAW X7 -->
<svg xmlns="http://www.w3.org/2000/svg" xml:space="preserve" width="4.74887in" height="4.73838in" version="1.1" style="shape-rendering:geometricPrecision; text-rendering:geometricPrecision; image-rendering:optimizeQuality; fill-rule:evenodd; clip-rule:evenodd"
viewBox="0 0 220 220"
 xmlns:xlink="http://www.w3.org/1999/xlink">
 <defs>
  <style type="text/css">
   <![CDATA[
    .fil1 {fill:#373435}
    .fil0 {fill:#A9D0EA}
   ]]>
  </style>
 </defs>
 <g id="Layer_x0020_1">
  <metadata id="CorelCorpID_0Corel-Layer"/>
  <g id="_2269462231968">
   <rect class="fil0" width="220" height="220" rx="18" ry="18"/>
   <rect class="fil1" x="9" y="9" width="202" height="202" rx="16" ry="16"/>
   <g>
    <path class="fil0" d="M127 161l0 -70c0,-1 0,0 1,-1 5,-2 12,-3 17,-4 2,-1 5,-1 6,-1 1,0 9,-2 11,-1 1,1 1,15 0,15 0,0 -8,1 -10,1 -3,0 -5,1 -8,1 0,13 0,27 0,40 0,6 0,13 0,19 0,2 -1,2 -3,2l-10 0c-2,0 -3,0 -4,-1z"/>
    <path class="fil0" d="M58 161l0 -98c0,-5 0,-5 2,-5 2,0 13,0 14,0 1,2 1,9 1,11l0 33c0,15 -1,30 0,44l36 0c3,0 2,0 1,8 0,2 -1,7 -2,8 -1,0 -15,0 -18,0 -1,0 -32,0 -33,0 -1,0 -1,0 -1,-1z"/>
   </g>
  </g>
 </g>
</svg>
