<?xml version="1.0" encoding="UTF-8"?>
<!DOCTYPE svg PUBLIC "-//W3C//DTD SVG 1.1//EN" "http://www.w3.org/Graphics/SVG/1.1/DTD/svg11.dtd">
<!-- Creator: CorelDRAW X7 -->
<svg xmlns="http://www.w3.org/2000/svg" xml:space="preserve" width="6.02699in" height="5.85573in" version="1.1" style="shape-rendering:geometricPrecision; text-rendering:geometricPrecision; image-rendering:optimizeQuality; fill-rule:evenodd; clip-rule:evenodd"
viewBox="0 0 791 769"
 xmlns:xlink="http://www.w3.org/1999/xlink">
 <defs>
  <style type="text/css">
   <![CDATA[
    .str1 {stroke:#616366;stroke-width:0.455801}
    .str0 {stroke:#3A3B3C;stroke-width:0.911601}
    .fil14 {fill:none;fill-rule:nonzero}
    .fil4 {fill:#FEFEFE;fill-rule:nonzero}
    .fil12 {fill:#EEEFF0;fill-rule:nonzero}
    .fil5 {fill:#ECEDEE;fill-rule:nonzero}
    .fil0 {fill:#DFD37B;fill-rule:nonzero}
    .fil1 {fill:#C6B66F;fill-rule:nonzero}
    .fil11 {fill:#818286;fill-rule:nonzero}
    .fil6 {fill:#6B6D71;fill-rule:nonzero}
    .fil9 {fill:#616366;fill-rule:nonzero}
    .fil2 {fill:#56585A;fill-rule:nonzero}
    .fil10 {fill:#4D4F52;fill-rule:nonzero}
    .fil7 {fill:#4B4D4F;fill-rule:nonzero}
    .fil8 {fill:#424446;fill-rule:nonzero}
    .fil3 {fill:#3A3B3C;fill-rule:nonzero}
    .fil13 {fill:#343536;fill-rule:nonzero}
   ]]>
  </style>
 </defs>
 <g id="Layer_x0020_1">
  <metadata id="CorelCorpID_0Corel-Layer"/>
  <g id="music3">
   <path class="fil0" d="M474 2c-2,-2 -6,-2 -8,-2 -3,1 -10,4 -8,8 2,3 8,2 10,1 3,-1 9,-4 6,-7z"/>
   <polygon class="fil0" points="458,6 457,35 460,35 459,8 "/>
   <path class="fil0" d="M445 8c-1,-1 -5,-1 -8,-1 -3,1 -10,4 -7,8 2,3 7,2 10,1 3,-1 8,-4 5,-8z"/>
   <polygon class="fil0" points="429,13 429,42 431,42 431,15 "/>
   <path class="fil0" d="M420 16c-2,-2 -6,-2 -8,-1 -3,0 -10,3 -8,8 2,3 8,2 11,1 2,-1 8,-5 5,-8z"/>
   <polygon class="fil0" points="404,21 403,49 406,49 405,23 "/>
   <polygon class="fil0" points="460,38 404,53 404,46 460,31 "/>
  </g>
  <g id="music1">
   <path class="fil0" d="M3 355c-1,1 -2,1 -3,1 0,-1 0,-2 0,-3 2,1 2,-1 4,-1 3,0 1,3 0,5 -1,1 -3,6 -4,8 0,-2 0,-3 0,-4 1,-3 2,-5 3,-6z"/>
   <path class="fil0" d="M7 347c-2,0 -4,1 -6,0 0,-2 0,-4 0,-7 2,1 2,4 4,4 1,1 2,-1 3,-1 3,0 1,3 0,5 -1,2 -4,9 -4,9 0,0 -1,0 -2,0 3,-6 4,-9 5,-10z"/>
   <path class="fil0" d="M24 236c2,0 5,0 7,-1 3,-1 9,-5 6,-9 -2,-2 -6,-2 -9,-1 -1,4 -2,7 -4,11z"/>
   <path class="fil0" d="M38 228l-3 -18c-1,1 -1,2 -2,3l3 13 2 2z"/>
  </g>
  <g id="music4">
   <path class="fil0" d="M633 176c1,2 4,2 7,2 3,0 11,-1 9,-6 -1,-3 -7,-4 -10,-3 -3,0 -9,3 -6,7z"/>
   <polygon class="fil0" points="649,174 655,146 652,145 648,172 "/>
   <path class="fil0" d="M746 190c-1,0 -2,0 -3,0 -2,1 -9,6 -6,10 3,2 8,1 11,-1 0,0 1,-1 2,-2 -1,-2 -3,-5 -4,-7z"/>
   <polygon class="fil0" points="736,198 741,226 743,226 738,199 "/>
   <path class="fil0" d="M724 202c-2,-2 -5,-1 -8,0 -2,1 -9,5 -6,9 2,2 8,1 10,-1 3,-1 8,-5 4,-8z"/>
   <polygon class="fil0" points="709,209 714,237 716,237 711,210 "/>
   <polygon class="fil0" points="743,228 714,241 713,234 742,222 "/>
   <path class="fil0" d="M553 176c-1,-2 -7,-2 -8,0 2,0 5,-1 5,1 0,2 -3,4 -4,5l0 1c0,1 0,2 0,3 1,-1 3,-2 4,-3 2,-2 4,-5 3,-7z"/>
   <polygon class="fil0" points="546,186 546,163 544,163 544,185 "/>
  </g>
  <g id="music2">
   <path class="fil0" d="M282 49c2,1 6,1 8,0 3,-2 9,-6 6,-10 -3,-2 -8,0 -10,1 -3,2 -8,6 -4,9z"/>
   <polygon class="fil0" points="297,41 290,8 287,9 295,39 "/>
   <path class="fil0" d="M298 28c2,-1 5,-4 4,-7 -1,-2 -3,-4 -5,-5 -6,-4 -7,-7 -7,-8 0,2 0,5 0,7 1,2 4,3 6,4 4,2 3,6 2,9z"/>
   <path class="fil0" d="M300 39c2,-1 5,-4 4,-7 0,-3 -2,-5 -4,-6 -6,-3 -8,-6 -8,-7 0,2 0,5 1,7 0,2 3,3 5,4 4,1 3,6 2,9z"/>
   <polygon class="fil0" points="137,153 149,153 149,149 136,148 "/>
   <polygon class="fil0" points="218,87 220,87 220,106 218,106 "/>
   <polygon class="fil0" points="222,87 221,105 223,105 224,87 "/>
   <polygon class="fil0" points="216,93 225,90 224,93 216,96 "/>
   <polygon class="fil0" points="216,100 224,97 224,101 217,103 "/>
  </g>
  <g id="_1860234594832">
   <path class="fil0" d="M1 403l787 -77c2,16 3,31 3,47 0,219 -177,396 -395,396 -209,0 -379,-161 -395,-366z"/>
   <path class="fil1" d="M108 520l55 24 106 121 168 23 102 54c121,-47 212,-151 242,-279l-218 -3 -97 38 -341 9 -17 13z"/>
   <path class="fil2" d="M503 577l-28 7 0 -122 28 -7 0 122zm-21 -339c-31,2 -70,2 -113,-6l92 -66 21 72zm49 367l6 -2 0 -15 -17 -9 0 -128 34 -8 1 19c0,0 7,9 16,-1l1 -22 105 -26 8 165c0,0 7,9 16,-1l4 -171 11 -2 18 -3 1 -43 -61 -29 -2 -56 -116 -46c0,0 -23,7 -60,10l-23 -79 89 -64 -5 -14 -57 -1c0,0 -47,29 -177,41 -130,13 -258,131 -258,131l7 12 -13 3 0 76 41 30 8 146c0,0 7,9 16,-1l3 -126 38 28 18 35 75 46 8 163c0,0 7,9 16,0l4 -155 10 -3 161 -39 0 122 -12 3 -1 15 19 16 21 -5 7 -2 11 -3 10 -2 10 -3 9 -2z"/>
   <path class="fil3" d="M546 286l9 176c0,0 7,9 16,-1l5 -181 -30 6z"/>
   <polygon class="fil4" points="290,455 703,362 705,379 291,473 "/>
   <polygon class="fil5" points="704,362 656,339 243,422 290,455 "/>
   <path class="fil3" d="M676 402l9 176c0,0 7,9 16,-1l5 -181 -30 6z"/>
   <path class="fil3" d="M257 488l9 175c0,0 7,9 16,0l4 -181 -29 6z"/>
   <path class="fil3" d="M99 342l9 176c0,0 7,9 16,-1l4 -180 -29 5z"/>
   <polygon class="fil2" points="445,606 463,622 463,606 445,591 "/>
   <polygon class="fil6" points="463,606 537,588 537,603 463,622 "/>
   <polygon class="fil7" points="445,591 512,575 537,588 463,606 "/>
   <polygon class="fil8" points="457,459 457,595 464,601 475,597 475,456 "/>
   <polygon class="fil8" points="503,449 503,585 509,591 520,588 520,447 "/>
   <path class="fil3" d="M602 268l-45 -23 -1 -18c0,0 -110,34 -249,-11l-125 108 60 46 373 -87 -13 -15z"/>
   <polygon class="fil8" points="501,252 470,148 458,158 488,258 "/>
   <polygon class="fil2" points="655,279 672,273 556,227 557,245 "/>
   <polygon class="fil7" points="716,385 703,377 283,472 294,482 "/>
   <polygon class="fil2" points="291,482 716,385 716,404 296,505 "/>
   <polygon class="fil8" points="561,273 589,268 530,244 551,240 655,279 576,298 "/>
   <polygon class="fil7" points="237,363 655,279 657,341 238,424 "/>
   <polygon class="fil8" points="204,314 237,337 290,325 323,346 237,363 190,338 "/>
   <polygon class="fil9" points="222,422 238,417 237,363 220,365 "/>
   <polygon class="fil2" points="220,365 59,266 72,263 237,363 "/>
   <polygon class="fil6" points="59,266 59,342 165,419 183,454 275,511 273,458 222,422 220,365 "/>
   <polygon class="fil10" points="65,251 205,332 208,345 72,263 "/>
   <polygon class="fil9" points="208,345 562,94 557,80 205,332 "/>
   <path class="fil11" d="M65 251c0,0 128,-118 258,-131 130,-12 177,-41 177,-41l57 1 -352 252 -140 -81z"/>
   <polygon class="fil9" points="323,346 305,285 564,234 580,294 "/>
   <polygon class="fil7" points="323,346 316,343 300,289 305,285 "/>
   <polygon class="fil9" points="655,279 672,273 674,329 656,334 "/>
   <polygon class="fil2" points="656,334 716,362 735,358 674,329 "/>
   <polygon class="fil9" points="716,404 734,401 735,358 716,362 "/>
   <polygon class="fil6" points="716,385 703,377 703,362 657,341 656,334 716,362 "/>
   <path class="fil12" d="M501 608c1,6 6,16 12,18 5,2 17,-1 13,-8 -2,-3 -7,-2 -9,-4 -7,-4 -9,-10 -9,-10 0,0 -7,1 -7,4z"/>
   <path class="fil12" d="M528 599c-4,0 -7,2 -7,2 0,0 0,17 16,16 3,0 5,-2 5,-5 1,-4 -2,-5 -6,-6 -4,-1 -8,-2 -8,-7z"/>
   <polygon class="fil2" points="238,417 294,453 273,458 222,422 "/>
   <polygon class="fil9" points="296,505 294,453 273,458 275,511 "/>
   <polygon class="fil13" points="289,434 288,439 257,420 257,416 "/>
   <polygon class="fil7" points="293,433 289,434 288,439 293,438 "/>
   <polygon class="fil3" points="293,433 263,415 257,416 289,434 "/>
   <polygon class="fil13" points="304,430 304,434 273,416 273,412 "/>
   <polygon class="fil7" points="308,429 304,430 304,434 308,433 "/>
   <polygon class="fil3" points="308,429 279,411 273,412 304,430 "/>
   <polygon class="fil13" points="400,409 400,413 372,396 372,392 "/>
   <polygon class="fil7" points="404,408 400,409 400,413 405,412 "/>
   <polygon class="fil3" points="404,408 377,391 372,392 400,409 "/>
   <polygon class="fil13" points="415,405 415,409 387,393 387,389 "/>
   <polygon class="fil7" points="419,404 415,405 415,409 420,409 "/>
   <polygon class="fil3" points="419,404 392,388 387,389 415,405 "/>
   <polygon class="fil13" points="343,422 343,426 313,408 313,404 "/>
   <polygon class="fil7" points="347,421 343,422 343,426 348,425 "/>
   <polygon class="fil3" points="347,421 318,403 313,404 343,422 "/>
   <polygon class="fil13" points="358,418 358,422 329,405 329,401 "/>
   <polygon class="fil7" points="362,417 358,418 358,422 362,421 "/>
   <polygon class="fil3" points="362,417 335,400 329,401 358,418 "/>
   <polygon class="fil13" points="374,415 374,418 346,402 346,398 "/>
   <polygon class="fil7" points="378,413 374,415 374,418 379,418 "/>
   <polygon class="fil3" points="378,413 351,397 346,398 374,415 "/>
   <polygon class="fil13" points="444,400 444,404 417,387 417,384 "/>
   <polygon class="fil7" points="448,399 444,400 444,404 448,403 "/>
   <polygon class="fil3" points="448,399 422,383 417,384 444,400 "/>
   <polygon class="fil13" points="458,396 458,400 432,385 432,381 "/>
   <polygon class="fil7" points="462,395 458,396 458,400 462,399 "/>
   <polygon class="fil3" points="462,395 437,380 432,381 458,396 "/>
   <polygon class="fil13" points="472,393 472,397 447,382 447,378 "/>
   <polygon class="fil7" points="476,392 472,393 472,397 476,396 "/>
   <polygon class="fil3" points="476,392 452,377 447,378 472,393 "/>
   <polygon class="fil13" points="500,388 500,391 474,376 474,372 "/>
   <polygon class="fil7" points="504,386 500,388 500,391 504,390 "/>
   <polygon class="fil3" points="504,386 479,371 474,372 500,388 "/>
   <polygon class="fil13" points="514,385 514,388 488,373 488,369 "/>
   <polygon class="fil7" points="518,384 514,385 514,388 518,387 "/>
   <polygon class="fil3" points="518,384 493,368 488,369 514,385 "/>
   <polygon class="fil13" points="541,379 541,383 515,368 515,365 "/>
   <polygon class="fil7" points="545,378 541,379 541,383 545,382 "/>
   <polygon class="fil3" points="545,378 520,364 515,365 541,379 "/>
   <polygon class="fil13" points="553,376 553,380 529,365 529,362 "/>
   <polygon class="fil7" points="557,375 553,376 553,380 557,379 "/>
   <polygon class="fil3" points="557,375 534,361 529,362 553,376 "/>
   <polygon class="fil13" points="567,373 567,377 543,363 543,360 "/>
   <polygon class="fil7" points="570,373 567,373 567,377 571,376 "/>
   <polygon class="fil3" points="570,373 548,359 543,360 567,373 "/>
   <polygon class="fil13" points="596,367 595,370 570,355 570,352 "/>
   <polygon class="fil7" points="599,366 596,367 595,370 599,369 "/>
   <polygon class="fil3" points="599,366 575,351 570,352 596,367 "/>
   <polygon class="fil13" points="609,364 609,367 584,353 584,349 "/>
   <polygon class="fil7" points="612,363 609,364 609,367 613,367 "/>
   <polygon class="fil3" points="612,363 588,348 584,349 609,364 "/>
   <polygon class="fil13" points="634,359 634,362 610,348 610,345 "/>
   <polygon class="fil7" points="638,358 634,359 634,362 638,362 "/>
   <polygon class="fil3" points="638,358 615,344 610,345 634,359 "/>
   <polygon class="fil13" points="646,356 646,359 623,346 623,343 "/>
   <polygon class="fil7" points="650,355 646,356 646,359 650,359 "/>
   <polygon class="fil3" points="650,355 628,342 623,343 646,356 "/>
   <polygon class="fil13" points="659,353 659,356 637,343 637,340 "/>
   <polygon class="fil7" points="663,352 659,353 659,356 663,356 "/>
   <polygon class="fil3" points="663,352 641,339 637,340 659,353 "/>
   <path class="fil12" d="M480 612c2,-2 7,-2 7,-2 0,0 13,13 5,22 -4,4 -12,3 -13,-3 -1,-7 11,-10 1,-17z"/>
   <path class="fil4" d="M491 629c0,2 -3,3 -5,2 -1,-1 -2,-3 -2,-5 1,-2 5,-5 7,-5 2,1 1,5 0,8z"/>
   <path class="fil4" d="M521 621c0,2 -3,3 -6,2 -4,0 -6,-4 -6,-5 0,-2 4,-2 7,-1 3,0 5,2 5,4z"/>
   <path class="fil4" d="M539 612c0,2 -2,3 -5,3 -3,0 -5,-1 -5,-3 0,-2 1,-4 4,-4 2,0 6,2 6,4z"/>
   <path class="fil3" d="M426 363c-1,0 -2,0 -2,-1 -1,0 -1,-1 -2,-1 0,0 0,-1 -1,-2 0,0 0,-1 0,-2 0,-1 0,-1 0,-1 0,-1 0,-2 1,-2 0,-1 1,-2 2,-3 1,-1 3,-1 4,-1 1,-1 2,-1 3,-1 1,0 2,0 3,1 2,0 3,1 3,1 2,1 3,2 6,3 1,1 3,2 5,3 1,0 2,1 4,1l1 0 0 0c1,-1 2,-1 3,-1 1,-1 1,-1 1,-1 1,0 1,-1 2,-1 0,-1 1,-2 1,-3 0,0 0,-1 0,-2 0,0 0,0 0,0 0,-1 0,-2 0,-2 -1,-1 -1,-1 -2,-2 0,-1 -1,-1 -1,-1 -1,0 -2,-1 -3,-1l0 0c-1,0 -1,0 -2,1 -1,0 -1,0 -1,0l0 0c0,0 0,0 0,0 1,-1 2,-1 4,-1l0 0c1,0 2,0 2,0 0,1 1,1 1,1 1,1 2,1 2,2 0,0 0,1 1,1 0,0 0,1 0,2l0 1c0,0 0,0 0,1 -1,1 -1,3 -2,3 0,1 -1,1 -2,2 -1,0 -1,1 -1,1 -1,0 -2,0 -3,0l-2 0c0,0 -1,0 -3,0 -2,-1 -4,-2 -5,-3 -3,-2 -4,-3 -5,-3 -1,-1 -3,-1 -4,-2 -1,0 -2,0 -3,0 -1,0 -1,0 -2,0 0,0 -2,0 -3,1 -1,1 -2,2 -2,2 -1,1 -1,1 -1,2 -1,1 -1,2 -1,2 0,1 1,2 1,3 0,0 1,1 1,1 1,1 3,2 5,2 1,0 2,0 2,0 1,0 1,0 2,-1 1,0 2,-1 3,-2 0,-1 0,-1 0,-2 0,-1 0,-1 0,-1 0,-1 -1,-2 -1,-2 0,0 -1,-1 -2,-1 0,0 -1,0 -2,-1 0,0 -1,1 -1,1 -1,0 -2,1 -2,2l0 0c0,1 1,1 1,1 1,0 1,1 1,1 0,0 0,0 0,1 0,0 -1,0 -1,0l0 0c-1,0 -1,0 -1,0 0,0 0,0 -1,-1 0,0 -1,-1 -1,-2l0 0c0,-1 1,-1 1,-2 0,0 1,-1 1,-1 1,0 1,0 2,0 1,0 1,0 2,0 0,0 1,0 2,1 1,0 1,1 2,1 0,1 1,2 1,3l-1 0c0,1 0,2 0,3 -1,1 -1,1 -2,1 0,1 -1,1 -2,1 0,1 -1,1 -3,1 -1,0 -2,0 -3,-1z"/>
   <path class="fil14 str0" d="M426 363c-1,0 -2,0 -2,-1 -1,0 -1,-1 -2,-1 0,0 0,-1 -1,-2 0,0 0,-1 0,-2 0,-1 0,-1 0,-1 0,-1 0,-2 1,-2 0,-1 1,-2 2,-3 1,-1 3,-1 4,-1 1,-1 2,-1 3,-1 1,0 2,0 3,1 2,0 3,1 3,1 2,1 3,2 6,3 1,1 3,2 5,3 1,0 2,1 4,1l1 0 0 0c1,-1 2,-1 3,-1 1,-1 1,-1 1,-1 1,0 1,-1 2,-1 0,-1 1,-2 1,-3 0,0 0,-1 0,-2 0,0 0,0 0,0 0,-1 0,-2 0,-2 -1,-1 -1,-1 -2,-2 0,-1 -1,-1 -1,-1 -1,0 -2,-1 -3,-1l0 0c-1,0 -1,0 -2,1 -1,0 -1,0 -1,0l0 0c0,0 0,0 0,0 1,-1 2,-1 4,-1l0 0c1,0 2,0 2,0 0,1 1,1 1,1 1,1 2,1 2,2 0,0 0,1 1,1 0,0 0,1 0,2l0 1c0,0 0,0 0,1 -1,1 -1,3 -2,3 0,1 -1,1 -2,2 -1,0 -1,1 -1,1 -1,0 -2,0 -3,0l-2 0c0,0 -1,0 -3,0 -2,-1 -4,-2 -5,-3 -3,-2 -4,-3 -5,-3 -1,-1 -3,-1 -4,-2 -1,0 -2,0 -3,0 -1,0 -1,0 -2,0 0,0 -2,0 -3,1 -1,1 -2,2 -2,2 -1,1 -1,1 -1,2 -1,1 -1,2 -1,2 0,1 1,2 1,3 0,0 1,1 1,1 1,1 3,2 5,2 1,0 2,0 2,0 1,0 1,0 2,-1 1,0 2,-1 3,-2 0,-1 0,-1 0,-2 0,-1 0,-1 0,-1 0,-1 -1,-2 -1,-2 0,0 -1,-1 -2,-1 0,0 -1,0 -2,-1 0,0 -1,1 -1,1 -1,0 -2,1 -2,2l0 0c0,1 1,1 1,1 1,0 1,1 1,1 0,0 0,0 0,1 0,0 -1,0 -1,0l0 0c-1,0 -1,0 -1,0 0,0 0,0 -1,-1 0,0 -1,-1 -1,-2l0 0c0,-1 1,-1 1,-2 0,0 1,-1 1,-1 1,0 1,0 2,0 1,0 1,0 2,0 0,0 1,0 2,1 1,0 1,1 2,1 0,1 1,2 1,3l-1 0c0,1 0,2 0,3 -1,1 -1,1 -2,1 0,1 -1,1 -2,1 0,1 -1,1 -3,1 -1,0 -2,0 -3,-1z"/>
   <path class="fil3" d="M503 351c-1,0 -2,1 -2,0 -2,0 -3,0 -3,0 0,0 0,0 -1,-1 -1,-1 -1,-1 -2,-2l0 0c0,-1 0,-2 0,-3 1,0 1,-1 2,-2 0,0 1,-1 1,-1 1,0 1,0 2,0 0,-1 1,-1 2,0 0,0 0,0 1,0 1,1 1,1 1,2l0 0c0,1 0,1 0,2 -1,0 -1,1 -1,1 0,0 0,0 0,0l-1 0c0,0 0,0 -1,0 0,-1 0,-1 0,-1 0,0 0,0 1,-1 0,0 0,0 0,-1l0 0c0,-1 -1,-2 -1,-2 -1,0 -2,0 -2,0 -1,1 -1,1 -2,1 0,1 -1,1 -1,1 0,1 0,2 -1,2 0,1 1,1 1,2 0,0 0,1 0,1 1,1 2,2 3,2 1,0 2,0 2,0 0,0 1,0 2,0 2,-1 3,-2 4,-4 1,0 1,0 1,-1 0,0 0,-1 0,-2 0,-1 0,-1 -1,-2 0,0 -1,-1 -2,-2 0,0 0,0 -1,-1 -2,0 -3,0 -4,0 0,0 -1,0 -1,0 -1,0 -2,0 -3,1 -1,1 -2,2 -3,3 -1,0 -2,1 -4,3 -1,1 -2,2 -4,4 -1,0 -2,1 -3,1l-1 0c-1,0 -2,1 -3,1 0,0 -1,-1 -2,-1 -1,0 -1,0 -2,-1 0,0 -1,-1 -2,-3 0,0 0,0 0,0l0 -1c-1,-1 -1,-2 -1,-2 0,0 1,-1 1,-1 0,-1 0,-1 1,-2 0,-1 1,-1 1,-1 0,0 0,-1 1,-1l1 0c1,0 3,0 3,0 1,0 1,0 1,0l0 0c0,0 -1,0 -2,0 0,0 -1,0 -1,0l0 0c-2,0 -3,1 -3,1 0,1 -1,1 -1,2 -1,0 -1,1 -1,1 0,1 0,2 0,2 0,0 0,0 0,1 0,0 1,1 1,2 0,0 1,1 2,2 0,0 1,0 1,0 0,1 1,1 2,1 0,0 1,0 2,0l1 0 0 0c2,-1 3,-1 4,-2 1,-1 3,-2 4,-4 2,-1 3,-3 4,-3 0,-1 1,-2 3,-3 1,0 2,0 2,0 1,-1 2,-1 3,-1 1,0 3,0 4,1 1,0 2,1 3,2 0,0 0,1 1,1 0,0 0,1 0,2 0,0 0,1 0,1 0,1 0,2 0,2 0,1 -1,1 -1,2 -1,0 -1,1 -2,1 -1,1 -2,1 -3,1z"/>
   <path class="fil14 str0" d="M503 351c-1,0 -2,1 -2,0 -2,0 -3,0 -3,0 0,0 0,0 -1,-1 -1,-1 -1,-1 -2,-2l0 0c0,-1 0,-2 0,-3 1,0 1,-1 2,-2 0,0 1,-1 1,-1 1,0 1,0 2,0 0,-1 1,-1 2,0 0,0 0,0 1,0 1,1 1,1 1,2l0 0c0,1 0,1 0,2 -1,0 -1,1 -1,1 0,0 0,0 0,0l-1 0c0,0 0,0 -1,0 0,-1 0,-1 0,-1 0,0 0,0 1,-1 0,0 0,0 0,-1l0 0c0,-1 -1,-2 -1,-2 -1,0 -2,0 -2,0 -1,1 -1,1 -2,1 0,1 -1,1 -1,1 0,1 0,2 -1,2 0,1 1,1 1,2 0,0 0,1 0,1 1,1 2,2 3,2 1,0 2,0 2,0 0,0 1,0 2,0 2,-1 3,-2 4,-4 1,0 1,0 1,-1 0,0 0,-1 0,-2 0,-1 0,-1 -1,-2 0,0 -1,-1 -2,-2 0,0 0,0 -1,-1 -2,0 -3,0 -4,0 0,0 -1,0 -1,0 -1,0 -2,0 -3,1 -1,1 -2,2 -3,3 -1,0 -2,1 -4,3 -1,1 -2,2 -4,4 -1,0 -2,1 -3,1l-1 0c-1,0 -2,1 -3,1 0,0 -1,-1 -2,-1 -1,0 -1,0 -2,-1 0,0 -1,-1 -2,-3 0,0 0,0 0,0l0 -1c-1,-1 -1,-2 -1,-2 0,0 1,-1 1,-1 0,-1 0,-1 1,-2 0,-1 1,-1 1,-1 0,0 0,-1 1,-1l1 0c1,0 3,0 3,0 1,0 1,0 1,0l0 0c0,0 -1,0 -2,0 0,0 -1,0 -1,0l0 0c-2,0 -3,1 -3,1 0,1 -1,1 -1,2 -1,0 -1,1 -1,1 0,1 0,2 0,2 0,0 0,0 0,1 0,0 1,1 1,2 0,0 1,1 2,2 0,0 1,0 1,0 0,1 1,1 2,1 0,0 1,0 2,0l1 0 0 0c2,-1 3,-1 4,-2 1,-1 3,-2 4,-4 2,-1 3,-3 4,-3 0,-1 1,-2 3,-3 1,0 2,0 2,0 1,-1 2,-1 3,-1 1,0 3,0 4,1 1,0 2,1 3,2 0,0 0,1 1,1 0,0 0,1 0,2 0,0 0,1 0,1 0,1 0,2 0,2 0,1 -1,1 -1,2 -1,0 -1,1 -2,1 -1,1 -2,1 -3,1z"/>
   <polygon class="fil5" points="396,331 371,261 427,251 453,320 "/>
   <line class="fil14 str1" x1="379" y1="267" x2="423" y2= "258" />
   <line class="fil14 str1" x1="379" y1="268" x2="424" y2= "259" />
   <line class="fil14 str1" x1="380" y1="269" x2="424" y2= "261" />
   <line class="fil14 str1" x1="380" y1="271" x2="425" y2= "262" />
   <line class="fil14 str1" x1="381" y1="272" x2="425" y2= "263" />
   <line class="fil14 str1" x1="383" y1="277" x2="427" y2= "269" />
   <line class="fil14 str1" x1="384" y1="279" x2="428" y2= "270" />
   <line class="fil14 str1" x1="384" y1="280" x2="429" y2= "271" />
   <line class="fil14 str1" x1="385" y1="281" x2="429" y2= "272" />
   <line class="fil14 str1" x1="385" y1="282" x2="429" y2= "273" />
   <line class="fil14 str1" x1="387" y1="288" x2="432" y2= "279" />
   <line class="fil14 str1" x1="388" y1="289" x2="432" y2= "280" />
   <line class="fil14 str1" x1="389" y1="290" x2="433" y2= "282" />
   <line class="fil14 str1" x1="389" y1="292" x2="433" y2= "283" />
   <line class="fil14 str1" x1="390" y1="293" x2="434" y2= "284" />
   <line class="fil14 str1" x1="392" y1="298" x2="436" y2= "290" />
   <line class="fil14 str1" x1="392" y1="300" x2="437" y2= "291" />
   <line class="fil14 str1" x1="393" y1="301" x2="437" y2= "292" />
   <line class="fil14 str1" x1="393" y1="302" x2="438" y2= "293" />
   <line class="fil14 str1" x1="394" y1="303" x2="438" y2= "294" />
   <line class="fil14 str1" x1="398" y1="319" x2="443" y2= "311" />
   <line class="fil14 str1" x1="399" y1="320" x2="444" y2= "312" />
   <line class="fil14 str1" x1="400" y1="322" x2="444" y2= "313" />
   <line class="fil14 str1" x1="400" y1="323" x2="445" y2= "314" />
   <line class="fil14 str1" x1="401" y1="324" x2="445" y2= "315" />
   <line class="fil14 str1" x1="395" y1="309" x2="439" y2= "300" />
   <line class="fil14 str1" x1="395" y1="310" x2="440" y2= "301" />
   <line class="fil14 str1" x1="396" y1="311" x2="440" y2= "302" />
   <line class="fil14 str1" x1="396" y1="312" x2="441" y2= "304" />
   <line class="fil14 str1" x1="397" y1="314" x2="441" y2= "305" />
   <polygon class="fil5" points="475,315 449,246 506,235 532,304 "/>
   <line class="fil14 str1" x1="457" y1="251" x2="501" y2= "242" />
   <line class="fil14 str1" x1="458" y1="252" x2="502" y2= "243" />
   <line class="fil14 str1" x1="458" y1="253" x2="503" y2= "245" />
   <line class="fil14 str1" x1="459" y1="255" x2="503" y2= "246" />
   <line class="fil14 str1" x1="459" y1="256" x2="504" y2= "247" />
   <line class="fil14 str1" x1="461" y1="262" x2="506" y2= "253" />
   <line class="fil14 str1" x1="462" y1="263" x2="506" y2= "254" />
   <line class="fil14 str1" x1="463" y1="264" x2="507" y2= "255" />
   <line class="fil14 str1" x1="463" y1="265" x2="507" y2= "256" />
   <line class="fil14 str1" x1="464" y1="266" x2="508" y2= "258" />
   <line class="fil14 str1" x1="466" y1="272" x2="510" y2= "263" />
   <line class="fil14 str1" x1="466" y1="273" x2="511" y2= "264" />
   <line class="fil14 str1" x1="467" y1="274" x2="511" y2= "266" />
   <line class="fil14 str1" x1="467" y1="276" x2="512" y2= "267" />
   <line class="fil14 str1" x1="468" y1="277" x2="512" y2= "268" />
   <line class="fil14 str1" x1="470" y1="282" x2="514" y2= "274" />
   <line class="fil14 str1" x1="471" y1="284" x2="515" y2= "275" />
   <line class="fil14 str1" x1="471" y1="285" x2="516" y2= "276" />
   <line class="fil14 str1" x1="472" y1="286" x2="516" y2= "277" />
   <line class="fil14 str1" x1="472" y1="287" x2="517" y2= "278" />
   <line class="fil14 str1" x1="477" y1="303" x2="521" y2= "295" />
   <line class="fil14 str1" x1="478" y1="305" x2="522" y2= "296" />
   <line class="fil14 str1" x1="478" y1="306" x2="523" y2= "297" />
   <line class="fil14 str1" x1="479" y1="307" x2="523" y2= "298" />
   <line class="fil14 str1" x1="479" y1="308" x2="523" y2= "299" />
   <line class="fil14 str1" x1="473" y1="293" x2="517" y2= "284" />
   <line class="fil14 str1" x1="474" y1="294" x2="518" y2= "285" />
   <line class="fil14 str1" x1="474" y1="295" x2="519" y2= "287" />
   <line class="fil14 str1" x1="475" y1="297" x2="519" y2= "288" />
   <line class="fil14 str1" x1="475" y1="298" x2="520" y2= "289" />
   <path class="fil3" d="M427 571l6 118c0,0 5,6 11,-1l3 -121 -20 4z"/>
   <path class="fil3" d="M621 530l6 118c0,0 5,6 11,-1l3 -121 -20 4z"/>
   <path class="fil3" d="M376 533l6 118c0,0 5,6 11,0l3 -122 -20 4z"/>
   <path class="fil3" d="M562 499l6 118c0,0 5,6 11,-1l3 -121 -20 4z"/>
   <polygon class="fil6" points="367,523 367,544 418,586 420,567 "/>
   <polygon class="fil2" points="655,505 654,525 418,586 420,567 "/>
   <polygon class="fil7" points="367,523 420,567 655,505 609,468 "/>
  </g>
 </g>
</svg>
