<?xml version="1.0" encoding="UTF-8"?>
<!DOCTYPE svg PUBLIC "-//W3C//DTD SVG 1.1//EN" "http://www.w3.org/Graphics/SVG/1.1/DTD/svg11.dtd">
<!-- Creator: CorelDRAW X7 -->
<svg xmlns="http://www.w3.org/2000/svg" xml:space="preserve" width="4.01942in" height="5.46105in" version="1.1" style="shape-rendering:geometricPrecision; text-rendering:geometricPrecision; image-rendering:optimizeQuality; fill-rule:evenodd; clip-rule:evenodd"
viewBox="0 0 226 307"
 xmlns:xlink="http://www.w3.org/1999/xlink">
 <defs>
  <style type="text/css">
   <![CDATA[
    .str0 {stroke:#373435;stroke-width:0.390855}
    .fil0 {fill:none}
   ]]>
  </style>
   <clipPath id="id0">
    <path d="M86 1c-47,4 -48,25 -63,76 -8,30 -7,36 -19,67 -8,19 -5,59 27,59 27,0 40,17 38,43 -3,27 -67,44 38,59 19,3 69,5 86,-8 39,-30 40,-94 21,-135 -29,-67 28,-109 -59,-146 -5,-2 -14,-3 -24,-6 -22,-6 -20,-12 -45,-9z"/>
   </clipPath>
 </defs>
 <g id="Layer_x0020_1">
  <metadata id="CorelCorpID_0Corel-Layer"/>
  <g style="clip-path:url(#id0)">
   <image id="FB_IMG_1565440045007.jpg" x="-52" y="-73" width="318" height="384" xlink:href="profile_Images\profile_ImgID1.png"/>
  </g>
  <path class="fil0 str0" d="M86 1c-47,4 -48,25 -63,76 -8,30 -7,36 -19,67 -8,19 -5,59 27,59 27,0 40,17 38,43 -3,27 -67,44 38,59 19,3 69,5 86,-8 39,-30 40,-94 21,-135 -29,-67 28,-109 -59,-146 -5,-2 -14,-3 -24,-6 -22,-6 -20,-12 -45,-9z"/>
 </g>
</svg>
