<?xml version="1.0" encoding="UTF-8"?>
<!DOCTYPE svg PUBLIC "-//W3C//DTD SVG 1.1//EN" "http://www.w3.org/Graphics/SVG/1.1/DTD/svg11.dtd">
<!-- Creator: CorelDRAW X7 -->
<svg xmlns="http://www.w3.org/2000/svg" xml:space="preserve" width="4.74887in" height="4.73838in" version="1.1" style="shape-rendering:geometricPrecision; text-rendering:geometricPrecision; image-rendering:optimizeQuality; fill-rule:evenodd; clip-rule:evenodd"
viewBox="0 0 198 197"
 xmlns:xlink="http://www.w3.org/1999/xlink">
 <defs>
  <style type="text/css">
   <![CDATA[
    .fil0 {fill:#3E4095}
    .fil1 {fill:#3A8FCF}
    .fil2 {fill:#FAFAFE}
   ]]>
  </style>
 </defs>
 <g id="Layer_x0020_1">
  <metadata id="CorelCorpID_0Corel-Layer"/>
  <g id="_2269355004544">
   <rect class="fil0" width="198" height="197" rx="16" ry="16"/>
   <rect class="fil1" x="8" y="8" width="181" height="181" rx="15" ry="15"/>
   <g>
    <path class="fil2" d="M97 34c-31,4 -55,36 -57,67 -2,36 25,68 61,62 19,-3 30,-13 39,-23 21,-22 25,-65 2,-90 -6,-5 -10,-9 -18,-13 -9,-3 -17,-4 -27,-3z"/>
    <path class="fil1" d="M76 113c-8,2 -15,10 -15,20 -1,23 34,18 35,-5 0,-11 -9,-18 -20,-15z"/>
    <path class="fil1" d="M124 58c-8,2 -15,9 -15,19 -1,22 34,19 35,-4 1,-11 -9,-19 -20,-15z"/>
    <path class="fil1" d="M122 103c-9,2 -16,9 -16,19 -1,11 8,17 19,15 22,-6 21,-40 -3,-34z"/>
    <path class="fil1" d="M97 89c-11,4 -11,23 4,19 4,-1 8,-6 8,-11 0,-6 -6,-10 -12,-8z"/>
   </g>
  </g>
 </g>
</svg>
