<?xml version="1.0" encoding="UTF-8"?>
<!DOCTYPE svg PUBLIC "-//W3C//DTD SVG 1.1//EN" "http://www.w3.org/Graphics/SVG/1.1/DTD/svg11.dtd">
<!-- Creator: CorelDRAW X7 -->
<svg xmlns="http://www.w3.org/2000/svg" xml:space="preserve" width="4.74887in" height="4.73838in" version="1.1" style="shape-rendering:geometricPrecision; text-rendering:geometricPrecision; image-rendering:optimizeQuality; fill-rule:evenodd; clip-rule:evenodd"
viewBox="0 0 198 197"
 xmlns:xlink="http://www.w3.org/1999/xlink">
 <defs>
  <style type="text/css">
   <![CDATA[
    .fil1 {fill:#292072}
    .fil0 {fill:#8FC6FD}
   ]]>
  </style>
 </defs>
 <g id="Layer_x0020_1">
  <metadata id="CorelCorpID_0Corel-Layer"/>
  <g id="_2269462233056">
   <path class="fil0" d="M16 0l166 0c9,0 16,7 16,16l0 165c0,9 -7,16 -16,16l-166 0c-9,0 -16,-7 -16,-16l0 -165c0,-9 7,-16 16,-16z"/>
   <path class="fil1" d="M23 8l152 0c8,0 15,7 15,15l0 152c0,8 -7,14 -15,14l-152 0c-8,0 -15,-6 -15,-14l0 -152c0,-8 7,-15 15,-15z"/>
   <path class="fil0" d="M71 106l-14 0 0 22c0,3 -1,5 -2,7 -2,1 -4,2 -6,2 -2,0 -4,-1 -6,-2 -1,-2 -2,-4 -2,-7l0 -58c0,-4 1,-6 3,-8 1,-1 4,-2 7,-2l20 0c6,0 10,1 13,2 3,0 6,2 8,4 3,2 4,4 5,7 2,3 2,6 2,10 0,8 -2,13 -7,17 -5,4 -12,6 -21,6zm-4 -34l-10 0 0 23 10 0c4,0 7,0 9,-1 3,-1 4,-2 6,-4 1,-2 2,-4 2,-7 0,-3 -1,-6 -3,-8 -3,-2 -7,-3 -14,-3zm89 47c0,4 0,7 -2,10 -2,3 -5,5 -9,6 -3,2 -8,2 -13,2 -5,0 -10,-1 -13,-2 -4,-2 -7,-4 -8,-6 -2,-2 -3,-5 -3,-7 0,-1 1,-3 2,-4 1,-1 2,-1 4,-1 1,0 3,0 3,1 1,0 2,1 3,3 1,2 3,4 5,5 2,2 5,2 8,2 3,0 5,0 7,-2 2,-1 3,-2 3,-4 0,-3 -1,-4 -3,-5 -2,-2 -5,-3 -9,-4 -5,-1 -9,-2 -12,-4 -3,-1 -6,-3 -8,-5 -1,-2 -2,-5 -2,-8 0,-3 1,-5 2,-8 2,-2 4,-4 8,-6 3,-1 7,-2 12,-2 3,0 7,0 9,1 3,1 6,2 8,3 2,1 3,3 4,4 1,2 2,3 2,5 0,1 -1,3 -2,4 -1,1 -3,1 -5,1 -1,0 -2,0 -3,-1 -1,-1 -2,-2 -4,-4 -1,-1 -2,-2 -3,-3 -2,-1 -4,-1 -6,-1 -3,0 -5,0 -7,1 -1,2 -2,3 -2,5 0,1 0,2 2,3 1,1 3,2 5,3 2,0 5,1 8,2 5,1 8,2 11,4 3,1 5,3 6,5 2,2 2,4 2,7z"/>
  </g>
 </g>
</svg>
