<?xml version="1.0" encoding="UTF-8"?>
<!DOCTYPE svg PUBLIC "-//W3C//DTD SVG 1.1//EN" "http://www.w3.org/Graphics/SVG/1.1/DTD/svg11.dtd">
<!-- Creator: CorelDRAW X7 -->
<svg xmlns="http://www.w3.org/2000/svg" xml:space="preserve" width="10.2944in" height="11.8329in" version="1.1" style="shape-rendering:geometricPrecision; text-rendering:geometricPrecision; image-rendering:optimizeQuality; fill-rule:evenodd; clip-rule:evenodd"
viewBox="0 0 1916 2202"
 xmlns:xlink="http://www.w3.org/1999/xlink">
 <defs>
  <style type="text/css">
   <![CDATA[
    .fil62 {fill:#FFF9EC;fill-rule:nonzero}
    .fil41 {fill:#FFF7D6;fill-rule:nonzero}
    .fil22 {fill:#FFF5CD;fill-rule:nonzero}
    .fil25 {fill:#FEDFB6;fill-rule:nonzero}
    .fil63 {fill:#FFD98E;fill-rule:nonzero}
    .fil1 {fill:#FFD67B;fill-rule:nonzero}
    .fil16 {fill:#FDCEA6;fill-rule:nonzero}
    .fil3 {fill:#FECB74;fill-rule:nonzero}
    .fil52 {fill:#F8BDCA;fill-rule:nonzero}
    .fil59 {fill:#F9AF92;fill-rule:nonzero}
    .fil55 {fill:#F79D82;fill-rule:nonzero}
    .fil53 {fill:#F38396;fill-rule:nonzero}
    .fil5 {fill:#FBF2BC;fill-rule:nonzero}
    .fil42 {fill:#FBECCD;fill-rule:nonzero}
    .fil6 {fill:#FBE6B4;fill-rule:nonzero}
    .fil45 {fill:#FBE6A9;fill-rule:nonzero}
    .fil44 {fill:#F3D3BA;fill-rule:nonzero}
    .fil7 {fill:#F2C799;fill-rule:nonzero}
    .fil40 {fill:#F0DABE;fill-rule:nonzero}
    .fil39 {fill:#EBD2DA;fill-rule:nonzero}
    .fil19 {fill:#EBE7DB;fill-rule:nonzero}
    .fil30 {fill:#E8CED7;fill-rule:nonzero}
    .fil23 {fill:#DFD6BF;fill-rule:nonzero}
    .fil29 {fill:#DCBDC6;fill-rule:nonzero}
    .fil20 {fill:#D7CCB3;fill-rule:nonzero}
    .fil50 {fill:#D5AAA8;fill-rule:nonzero}
    .fil58 {fill:#CF7F68;fill-rule:nonzero}
    .fil21 {fill:#D2CBB6;fill-rule:nonzero}
    .fil0 {fill:#CDAAD0;fill-rule:nonzero}
    .fil43 {fill:#CBB391;fill-rule:nonzero}
    .fil27 {fill:#C5A5AD;fill-rule:nonzero}
    .fil33 {fill:#C09085;fill-rule:nonzero}
    .fil51 {fill:#B6E1E4;fill-rule:nonzero}
    .fil49 {fill:#B78885;fill-rule:nonzero}
    .fil34 {fill:#B07F6F;fill-rule:nonzero}
    .fil56 {fill:#A26250;fill-rule:nonzero}
    .fil57 {fill:#884C3F;fill-rule:nonzero}
    .fil28 {fill:#AB8591;fill-rule:nonzero}
    .fil4 {fill:#A0D9D8;fill-rule:nonzero}
    .fil54 {fill:#9DD8D8;fill-rule:nonzero}
    .fil47 {fill:#926866;fill-rule:nonzero}
    .fil8 {fill:#9F928B;fill-rule:nonzero}
    .fil48 {fill:#87615D;fill-rule:nonzero}
    .fil13 {fill:#897770;fill-rule:nonzero}
    .fil46 {fill:#664846;fill-rule:nonzero}
    .fil9 {fill:#877771;fill-rule:nonzero}
    .fil32 {fill:#614541;fill-rule:nonzero}
    .fil36 {fill:#523C39;fill-rule:nonzero}
    .fil11 {fill:#72645C;fill-rule:nonzero}
    .fil60 {fill:#67554F;fill-rule:nonzero}
    .fil61 {fill:#54413D;fill-rule:nonzero}
    .fil12 {fill:#61524C;fill-rule:nonzero}
    .fil31 {fill:#7D9696;fill-rule:nonzero}
    .fil10 {fill:#635652;fill-rule:nonzero}
    .fil24 {fill:#7B9998;fill-rule:nonzero}
    .fil38 {fill:#686361;fill-rule:nonzero}
    .fil2 {fill:#504741;fill-rule:nonzero}
    .fil26 {fill:#718685;fill-rule:nonzero}
    .fil37 {fill:#585051;fill-rule:nonzero}
    .fil35 {fill:#413A3A;fill-rule:nonzero}
    .fil14 {fill:#677B7A;fill-rule:nonzero}
    .fil15 {fill:#596466;fill-rule:nonzero}
    .fil17 {fill:#484D4E;fill-rule:nonzero}
    .fil18 {fill:#3E4142;fill-rule:nonzero}
   ]]>

      #setting1 {
      animation: setting 2s infinite linear;
      transform-origin: center;
      transform-box:fill-box;
    
    }
         #setting2 {
      animation: setting 2s infinite linear;
      transform-origin: center;
      transform-box:fill-box;
    
    }
         #setting3 {
      animation: setting 2s infinite linear;
      transform-origin: center;
      transform-box:fill-box;
    
    }
    @keyframes setting {
      from {
        transform: rotatez(0deg)
      }
      to {
        transform: rotatez(360deg)
      }
    }
             #SS1 {
      animation: SSS 0.5s infinite alternate;
      transform-origin: center;
      transform-box:fill-box;
       }
             #SS2 {
      animation: SSS .75s infinite alternate;
      transform-origin: center;
      transform-box:fill-box;
       }
             #SS3 {
      animation: SSS 1s infinite alternate;
      transform-origin: center;
      transform-box:fill-box;
       }              
           @keyframes SSS {
      100% {
        transform: translate(0px,-30px);
      }
    }
        #line1 {
    stroke-dasharray: 30;
    animation: offset 1.5s infinite linear;
    transform-origin: center;
    transform-box:fill-box;
    }
        @keyframes offset {
      to {
        stroke-dashoffset: 100;
      }
    }
        #money {
      animation: money 2s infinite alternate;
    
    }
    @keyframes money {
      100% {
        transform: translate(0px,-200px);
      }
    }
  </style>
 </defs>
 <g id="Layer_x0020_1">
  <metadata id="CorelCorpID_0Corel-Layer"/>
  <g id="_2100120506880">
   <path class="fil0" d="M571 812l-3 5c-10,-5 -19,-12 -28,-18l4 -5c9,6 18,12 27,18zm-78 -60c8,8 16,15 25,22l-4 5c-9,-7 -17,-14 -26,-22l5 -5zm135 91l-2 6c-10,-4 -20,-10 -30,-15l3 -6c10,6 20,11 29,15zm-182 -137c8,8 15,16 23,24l-5 4c-7,-7 -15,-15 -22,-24l4 -4zm243 161l-2 6c-10,-3 -21,-7 -31,-11l2 -6c11,4 21,8 31,11zm-284 -212c6,9 13,18 20,26l-5 4c-7,-8 -14,-17 -21,-26l6 -4zm-38 -53c6,9 12,18 18,27l-5 4c-6,-9 -12,-19 -18,-28l5 -3zm386 281l-2 7c-10,-2 -21,-5 -32,-7l2 -7c10,3 21,5 32,7zm-404 -311l1 2 -5 3 -1 -1 5 -4zm469 319l-1 7c-11,-1 -22,-2 -33,-3l1 -7c11,2 22,3 33,3zm65 1l0 6c-11,1 -22,1 -33,1l0 -7c11,0 22,0 33,0zm65 -8l1 6c-11,2 -22,4 -33,5l-1 -6c11,-2 22,-3 33,-5zm63 -16l2 6c-3,1 -14,5 -32,10l-1 -7c17,-4 28,-8 31,-9z"/>
   <path class="fil1" d="M277 1474l-7 1c-2,-10 -3,-21 -4,-32l6 -1c2,11 3,22 5,32zm-8 -98c0,11 0,22 1,33l-7 1c0,-11 -1,-22 -1,-33l7 -1zm23 162l-7 2c-3,-11 -6,-22 -8,-32l6 -2c3,11 6,21 9,32zm-19 -227c-1,11 -2,22 -3,33l-6 -1c0,-10 1,-22 2,-33l7 1zm42 288l-6 2c-5,-10 -9,-20 -13,-30l6 -3c4,11 8,21 13,31zm-31 -353c-3,11 -5,22 -6,32l-7 -1c2,-10 4,-21 6,-32l7 1zm16 -64c-4,10 -6,21 -9,32l-7 -2c3,-10 6,-21 9,-32l7 2zm46 474l-6 3c-6,-9 -11,-18 -17,-28l6 -3c5,9 11,19 17,28zm-36 -507l-1 1 -6 -2 1 -1 6 2zm74 560l-5 4c-7,-8 -14,-17 -21,-26l6 -4c6,9 13,18 20,26zm44 48l-4 5c-8,-8 -16,-16 -24,-24l5 -4c8,8 15,16 23,23zm50 43l-4 5c-8,-7 -17,-14 -26,-21l5 -5c8,7 17,14 25,21zm56 35l-3 6c-3,-2 -14,-7 -29,-17l4 -6c15,10 25,16 28,17z"/>
   <path class="fil1" d="M859 1943l-2 6c-12,0 -23,-2 -34,-3l2 -6c11,1 23,2 34,3zm-98 -15c10,2 21,4 32,6l-3 7c-11,-2 -22,-5 -33,-7l4 -6zm167 16l-2 6c-11,1 -23,1 -35,1l2 -7c12,0 23,0 35,0zm-229 -35c10,4 20,7 30,10l-3 6c-10,-3 -21,-6 -31,-10l4 -6zm300 27l-1 7c-12,2 -24,3 -36,4l1 -6c12,-1 24,-3 36,-5zm-357 -51c9,4 19,8 28,12l-4 6c-10,-4 -19,-8 -29,-13l5 -5zm-54 -30c9,6 18,11 26,15l-4 6c-9,-5 -18,-10 -27,-15l5 -6zm482 66l0 6c-12,4 -24,7 -36,9l0 -6c12,-3 24,-5 36,-9zm-509 -83l2 1 -6 5 -1 0 5 -6zm580 61l1 5c-12,5 -24,9 -36,13l-1 -6c12,-4 24,-8 36,-12zm69 -30l2 5c-11,6 -23,11 -35,16l-2 -5c12,-5 23,-11 35,-16zm67 -36l3 5c-11,6 -23,13 -34,19l-2 -5c11,-7 22,-13 33,-19zm62 -43l4 4c-3,2 -13,11 -31,23l-3 -5c17,-12 27,-20 30,-22z"/>
   <path class="fil1" d="M1559 1503l7 2c-5,10 -10,21 -16,31l-6 -1c5,-11 10,-21 15,-32zm-51 93c6,-10 13,-20 19,-30l6 1c-6,11 -13,21 -19,31l-6 -2zm75 -156l7 0c-3,11 -7,22 -11,33l-7 -1c4,-11 8,-21 11,-32zm-118 215c8,-10 15,-19 22,-29l6 2c-7,10 -15,20 -22,30l-6 -3zm134 -279l8 0c-2,10 -5,21 -7,32l-7 0c2,-10 5,-21 6,-32zm-181 336c8,-10 16,-19 24,-28l5 3c-8,9 -16,19 -24,28l-5 -3zm-53 54c10,-9 18,-18 27,-27l5 3c-9,9 -18,18 -27,27l-5 -3zm241 -453l8 -1c-1,11 -2,21 -3,32l-7 1c1,-11 2,-21 2,-32zm-269 480l1 -2 5 4 -2 1 -4 -3zm268 -541l7 -2c1,10 2,20 2,31l-7 1c-1,-10 -1,-20 -2,-30zm-11 -59l7 -3c3,10 5,20 7,30l-8 2c-1,-10 -3,-19 -6,-29zm-19 -55l7 -4c4,9 8,18 11,28l-7 3c-3,-9 -7,-19 -11,-27zm-27 -51l6 -5c2,3 8,11 16,25l-7 4c-8,-14 -14,-22 -15,-24z"/>
   <g>
    <path class="fil0" d="M405 27c11,-3 22,-6 32,-9l2 7c-11,2 -21,6 -32,9l-2 -7z"/>
    <path class="fil0" d="M343 51c10,-4 21,-9 31,-12l2 6c-10,4 -20,8 -30,13l-3 -7z"/>
    <path class="fil0" d="M470 10c10,-2 21,-4 32,-5l1 7c-11,1 -21,3 -32,5l-1 -7z"/>
    <path class="fil0" d="M284 81c9,-5 19,-11 29,-15l3 6c-10,5 -19,10 -29,15l-3 -6z"/>
    <path class="fil0" d="M601 8l0 -7c11,0 23,1 33,3l0 7c-11,-2 -22,-3 -33,-3z"/>
    <path class="fil0" d="M790 56l3 -6c10,5 20,10 30,15l-3 6c-10,-5 -20,-10 -30,-15z"/>
    <path class="fil0" d="M535 1c11,0 22,-1 33,-1l0 7c-10,0 -21,0 -32,1l-1 -7z"/>
    <path class="fil0" d="M666 16l1 -7c11,2 22,4 33,7l-2 7c-11,-3 -21,-5 -32,-7z"/>
    <path class="fil0" d="M729 32l2 -7c11,4 21,8 32,12l-3 6c-10,-4 -20,-8 -31,-11z"/>
   </g>
   <g>
    <path class="fil0" d="M1155 27c10,-3 21,-6 31,-9l2 7c-10,2 -21,6 -31,9l-2 -7z"/>
    <path class="fil0" d="M1219 10c11,-2 22,-4 32,-5l1 7c-10,1 -21,3 -32,5l-1 -7z"/>
    <path class="fil0" d="M1092 51c11,-4 21,-9 31,-12l3 6c-11,4 -21,8 -31,13l-3 -7z"/>
    <path class="fil0" d="M1033 81c10,-5 20,-11 29,-15l3 6c-9,5 -19,10 -29,15l-3 -6z"/>
    <path class="fil0" d="M1415 16l1 -7c11,2 22,4 33,7l-2 7c-10,-3 -21,-5 -32,-7z"/>
    <path class="fil0" d="M1540 56l2 -6c10,5 20,10 30,15l-3 6c-10,-5 -19,-10 -29,-15z"/>
    <path class="fil0" d="M1479 32l2 -7c10,4 21,8 31,12l-2 6c-11,-4 -21,-8 -31,-11z"/>
    <path class="fil0" d="M1284 1c11,0 23,-1 34,-1l0 7c-11,0 -22,0 -33,1l-1 -7z"/>
    <path class="fil0" d="M1350 8l1 -7c11,0 22,1 33,3l-1 7c-11,-2 -22,-3 -33,-3z"/>
   </g>
   <path class="fil2" d="M1429 2189c0,-8 10,-13 -605,-13 -615,0 -605,5 -605,13 0,7 -10,13 605,13 615,0 605,-6 605,-13z"/>
   <g id="money">
   <path class="fil3" d="M1734 1423l5 -21c2,-7 8,-11 15,-9l11 3 3 -11 19 5 -3 11 23 6 -3 12 -8 11 -30 -8 -1 5 22 24c6,7 6,11 4,19l-5 22c-2,7 -8,11 -16,9l-11 -2 -2 10 -19 -5 2 -10 -23 -6 6 -25 35 9 2 -6 -22 -25c-6,-6 -6,-10 -4,-18z"/>
   <path class="fil3" d="M333 1879l0 -21c-1,-7 4,-13 12,-13l11 0 0 -11 19 -1 1 11 23 -1 1 13 -5 13 -30 1 0 4 28 18c7,4 9,8 9,16l1 23c0,8 -5,13 -13,13l-11 1 0 10 -19 1 0 -11 -24 1 -1 -25 36 -1 -1 -7 -28 -17c-7,-5 -8,-9 -9,-17z"/>
   <path class="fil3" d="M1352 1506l-6 -30c-3,-11 2,-20 11,-22l14 -4 -3 -16 24 -6 3 15 30 -8 4 18 -2 20 -38 10 1 7 40 16c10,4 13,10 16,22l7 32c3,11 -2,20 -11,22l-14 4 3 15 -24 7 -3 -15 -30 8 -8 -36 44 -12 -2 -9 -40 -17c-10,-4 -13,-10 -16,-21z"/>
   </g>
   <path class="fil4" d="M313 439c-142,0 -262,-85 -299,-202 -9,28 -14,58 -14,89 0,160 130,290 290,290 161,0 291,-130 291,-290 0,-8 -1,-15 -1,-22 -55,81 -154,135 -267,135z"/>
   <g>
    <polygon class="fil5" points="398,964 478,1067 336,1184 244,1096 "/>
    <path class="fil6" d="M357 1102c-20,16 -21,50 -35,69l-78 -75 154 -132 73 95c-28,2 -75,11 -114,43z"/>
    <polygon class="fil7" points="398,964 369,1095 244,1096 "/>
    <polygon class="fil5" points="398,964 365,1091 244,1096 "/>
    <polygon class="fil7" points="244,1096 244,1096 337,1181 475,1067 398,967 328,1024 398,964 478,1067 336,1184 "/>
    <polygon class="fil7" points="243,1094 328,1024 244,1096 "/>
    <path class="fil5" d="M465 1060c-11,1 -47,5 -71,9 -10,2 15,-82 15,-82l56 73z"/>
    <path class="fil5" d="M254 1101c10,-2 65,3 83,2 7,0 -14,63 -14,63l-69 -65z"/>
   </g>
   <path class="fil8" d="M917 2151c0,-19 -16,-35 -35,-35 -20,0 -36,16 -36,35 0,20 16,36 36,36 19,0 35,-16 35,-36z"/>
   <path class="fil9" d="M905 2151c0,-13 -10,-23 -23,-23 -13,0 -24,10 -24,23 0,14 11,24 24,24 13,0 23,-10 23,-24z"/>
   <polygon class="fil9" points="875,2156 888,2156 888,2096 875,2096 "/>
   <path class="fil10" d="M900 2151c0,-9 -8,-17 -18,-17 -10,0 -18,8 -18,17 0,10 8,18 18,18 10,0 18,-8 18,-18z"/>
   <path class="fil8" d="M891 2151c0,-5 -4,-9 -9,-9 -5,0 -10,4 -10,9 0,6 5,10 10,10 5,0 9,-4 9,-10z"/>
   <path class="fil8" d="M1217 2151c0,-19 -16,-35 -36,-35 -19,0 -35,16 -35,35 0,20 16,36 35,36 20,0 36,-16 36,-36z"/>
   <path class="fil9" d="M1205 2151c0,-13 -10,-23 -24,-23 -13,0 -23,10 -23,23 0,14 10,24 23,24 14,0 24,-10 24,-24z"/>
   <polygon class="fil9" points="1175,2156 1188,2156 1188,2104 1175,2104 "/>
   <path class="fil10" d="M1199 2151c0,-9 -8,-17 -18,-17 -9,0 -17,8 -17,17 0,10 8,18 17,18 10,0 18,-8 18,-18z"/>
   <path class="fil8" d="M1191 2151c0,-5 -4,-9 -10,-9 -5,0 -9,4 -9,9 0,6 4,10 9,10 6,0 10,-4 10,-10z"/>
   <path class="fil8" d="M639 2151c0,-19 -16,-35 -35,-35 -20,0 -36,16 -36,35 0,20 16,36 36,36 19,0 35,-16 35,-36z"/>
   <path class="fil9" d="M627 2151c0,-13 -10,-23 -23,-23 -13,0 -24,10 -24,23 0,14 11,24 24,24 13,0 23,-10 23,-24z"/>
   <polygon class="fil9" points="597,2156 610,2156 610,2104 597,2104 "/>
   <path class="fil10" d="M622 2151c0,-9 -8,-17 -18,-17 -10,0 -18,8 -18,17 0,10 8,18 18,18 10,0 18,-8 18,-18z"/>
   <path class="fil8" d="M613 2151c0,-5 -4,-9 -9,-9 -5,0 -10,4 -10,9 0,6 5,10 10,10 5,0 9,-4 9,-10z"/>
   <polygon class="fil9" points="881,2040 898,2040 898,1723 881,1723 "/>
   <polygon class="fil8" points="884,2041 892,2041 892,1884 884,1884 "/>
   <polygon class="fil9" points="1183,1725 635,1725 635,1793 1119,1793 "/>
   <polygon class="fil8" points="918,2013 860,2013 587,2107 1192,2107 "/>
   <path class="fil9" d="M930 2071c0,15 -42,28 -107,36l369 0 -274 -94 -36 0c44,15 48,42 48,58z"/>
   <polygon class="fil9" points="585,2109 1192,2109 1192,2100 585,2100 "/>
   <path class="fil11" d="M1369 797c-1,0 -126,0 -242,0 -98,0 -188,0 -189,0 -23,-1 -45,49 -50,114l-116 641c-6,31 -34,55 -66,55l-125 0c-89,0 -88,167 20,167l525 0c55,0 100,-44 100,-99l109 -649c5,7 11,12 17,12 23,1 46,-52 51,-118 4,-66 -11,-122 -34,-123z"/>
   <polygon class="fil12" points="801,1403 884,1286 832,1478 "/>
   <path class="fil12" d="M1227 1009l5 -1 -7 -19 -8 1 6 -35c1,-1 1,-2 2,-3 1,0 4,0 6,-1 22,-10 46,-24 47,-47 1,-12 -5,-15 -13,-14 22,-30 41,-52 27,-56 -13,-2 -6,-24 -2,-30 1,-1 2,-3 4,-7 -53,0 -135,0 -208,0 0,12 3,22 11,27 0,0 -12,48 3,68 -7,45 -16,110 -13,118 1,3 10,5 21,6l-5 12 -9 -2 -7 17 3 4c-5,1 -10,1 -14,2l1 -10c0,0 -41,10 -66,21 0,0 -1,0 -1,0 -27,-5 -101,219 -134,254 -6,7 8,50 31,57 -26,51 -55,107 -58,112 -3,6 -42,20 -72,30l-2 16c35,4 93,9 136,-6 29,0 64,-1 98,-1 9,5 18,7 25,7 54,-4 79,10 95,25 17,16 21,32 39,23 17,-9 15,-137 15,-137 0,0 40,-73 78,-156 3,30 7,62 12,84l48 -349c-18,-8 -69,-10 -94,-10z"/>
   <path class="fil12" d="M1370 798c-41,-4 -71,45 -90,143 -53,265 -212,481 -212,481 0,55 63,227 8,227l-503 0c-10,0 34,125 108,125l445 0c55,0 100,-44 100,-99l109 -649c5,7 11,12 17,12 23,1 46,-52 51,-118 4,-65 -10,-120 -33,-122z"/>
   <polygon class="fil13" points="1207,1464 1188,1622 1204,1624 1229,1465 "/>
   <path class="fil11" d="M1220 1526l9 -61 -22 -1 -5 40c6,7 12,14 18,22z"/>
   <path class="fil11" d="M1194 1567l-6 55 16 2 9 -56c-6,0 -13,-1 -19,-1z"/>
   <path class="fil11" d="M1278 1451c4,-17 22,-47 -35,-47 -57,0 -81,28 -81,44 0,15 5,28 62,28 42,0 49,-11 54,-25z"/>
   <path class="fil12" d="M1248 1393c-57,0 -86,39 -86,55 0,1 0,3 0,5 11,-4 26,-6 42,-6 32,0 58,8 58,19 0,2 0,3 -1,5 15,-5 22,-14 24,-23 5,-17 20,-55 -37,-55z"/>
   <path class="fil14" d="M831 1357c28,-21 75,-121 85,-156 13,-48 7,-173 -12,-177 -28,-6 -104,241 -130,279 -7,10 28,75 57,54z"/>
   <path class="fil15" d="M924 1092c-2,20 -19,48 -28,80 -3,10 -65,188 -104,175 12,15 27,25 40,15 29,-21 78,-123 88,-158 7,-25 8,-73 4,-112z"/>
   <polygon class="fil16" points="989,1000 1001,943 1097,874 1104,1027 "/>
   <path class="fil17" d="M605 1663c6,0 476,0 476,0 55,-13 109,-113 53,-143 -29,-15 -597,-2 -620,46 -23,47 91,97 91,97z"/>
   <path class="fil18" d="M1134 1520c-20,-10 -307,-7 -484,12 -90,10 -100,29 -105,54 -8,44 60,77 60,77 6,0 476,0 476,0 55,-13 109,-113 53,-143z"/>
   <path class="fil19" d="M1160 1037c-28,-28 -175,-55 -215,-25 0,0 -52,352 -128,505 -6,12 68,11 148,10 51,-1 105,-2 141,1 9,1 16,-5 18,-13 17,-89 62,-452 36,-478z"/>
   <polygon class="fil20" points="936,1487 1032,1029 1043,1030 979,1494 950,1521 "/>
   <polygon class="fil20" points="974,1001 1005,1042 1036,1018 1057,1040 1096,1019 1099,999 1035,1003 987,998 "/>
   <path class="fil21" d="M1020 1460c-62,0 -118,-15 -165,-40 -12,36 -24,69 -38,97 -10,20 197,4 289,11 9,1 16,-5 18,-13 3,-16 7,-42 12,-74 -36,12 -75,19 -116,19z"/>
   <polygon class="fil17" points="925,1485 1027,1029 1039,1030 968,1493 940,1519 "/>
   <path class="fil22" d="M912 2188c0,0 -73,-72 -68,-111 3,-17 21,-30 38,-14 18,17 30,125 30,125z"/>
   <path class="fil23" d="M881 2065l23 -73 -15 -14 -33 83c4,7 17,12 25,4z"/>
   <path class="fil22" d="M701 2177l99 -80c0,0 -12,-40 -34,-30 -21,11 -65,110 -65,110z"/>
   <polygon class="fil23" points="757,2076 726,2002 744,1988 782,2071 "/>
   <path class="fil17" d="M731 2058l43 -21c0,0 -133,-382 -146,-393 -13,-12 -84,-135 -123,-71 -27,43 224,479 226,485z"/>
   <path class="fil18" d="M745 2051l29 -14c0,0 -125,-386 -139,-397 -8,-7 -41,-56 -74,-77 0,0 42,204 184,488z"/>
   <path class="fil17" d="M894 2051l-34 -19c0,0 95,-391 108,-402 12,-12 70,-134 112,-68 27,44 -184,483 -186,489z"/>
   <path class="fil18" d="M1089 1562c-9,-14 -20,-19 -31,-19 13,57 -128,396 -173,504l13 8c2,-6 218,-449 191,-493z"/>
   <path class="fil14" d="M967 1001l25 311c0,0 -31,171 -89,208 -59,37 -182,8 -182,8 0,0 99,-31 103,-42 3,-12 71,-221 71,-221 0,0 -16,-211 -6,-228 9,-17 78,-36 78,-36z"/>
   <path class="fil15" d="M838 1493c4,-12 63,-213 63,-213 0,0 -5,-38 -13,-112 -2,62 -3,108 -3,108 0,0 -62,197 -66,208 -4,12 -98,44 -98,44 0,0 11,3 28,5 23,-8 86,-31 89,-40z"/>
   <path class="fil14" d="M1012 1534c-28,2 -83,-44 -72,-86 12,-41 40,-134 40,-134l120 -304c0,0 104,-1 118,16 47,57 -73,411 -73,411 0,0 25,140 10,150 -16,10 -24,-8 -44,-26 -18,-15 -45,-31 -99,-27z"/>
   <polygon class="fil24" points="987,1289 1096,1001 1141,1010 986,1308 "/>
   <polygon class="fil24" points="994,1290 971,998 933,1010 988,1300 "/>
   <path class="fil15" d="M1222 1033c-30,118 -120,337 -134,376 -12,30 -20,81 -7,133 45,19 51,59 74,45 15,-10 -10,-150 -10,-150 0,0 112,-330 77,-404z"/>
   <polygon class="fil17" points="1015,1027 1027,998 1049,999 1048,1032 1028,1047 "/>
   <polygon class="fil19" points="977,996 982,984 1042,996 1005,1034 "/>
   <polygon class="fil19" points="1057,1029 1030,995 1109,988 1114,1002 "/>
   <path class="fil14" d="M1238 1390c-20,-17 -55,-168 -58,-204 -3,-50 11,-162 31,-162 30,0 101,316 98,327 -2,12 -43,61 -71,39z"/>
   <path class="fil15" d="M1189 1168c-4,-12 -10,-36 -12,-46 -2,21 -1,52 0,66 1,23 19,89 35,141 -6,-53 -12,-120 -23,-161z"/>
   <path class="fil15" d="M1244 1085c26,96 54,248 56,294 9,-7 16,-14 17,-18 2,-9 -39,-181 -73,-276z"/>
   <path class="fil25" d="M1043 1405c-9,1 -46,10 -48,12 -2,1 -23,15 -19,21 3,6 21,-10 26,-12 4,-2 8,1 21,-1 14,-3 35,-23 20,-20z"/>
   <path class="fil25" d="M1005 1428c-7,5 -19,18 -20,20 -1,3 -13,24 -8,28 6,4 17,-20 20,-23 3,-4 10,-11 22,-19 11,-8 -1,-15 -14,-6z"/>
   <path class="fil25" d="M1007 1443c-3,9 -12,26 -13,29 0,3 -9,22 -3,24 6,3 14,-18 16,-22 2,-4 8,-17 18,-27 9,-10 -18,-4 -18,-4z"/>
   <path class="fil25" d="M1026 1446c-4,8 -13,26 -14,29 0,2 -10,21 -4,24 6,2 14,-18 17,-22 2,-4 8,-17 18,-27 10,-9 -17,-4 -17,-4z"/>
   <path class="fil25" d="M1062 1396c0,0 -57,26 -61,35 -3,10 22,35 31,31 9,-5 19,-27 46,-36l-16 -30z"/>
   <path class="fil19" d="M1051 1393c1,19 3,30 15,44l29 -7 -19 -50 -25 13z"/>
   <path class="fil14" d="M1099 1446c-19,-1 -42,-68 -29,-77 11,-7 196,-67 216,-65 14,2 45,58 9,74 -24,10 -173,69 -196,68z"/>
   <path class="fil26" d="M1227 1317c-62,16 -150,47 -157,52 -2,2 -3,5 -4,10 33,-13 102,-44 161,-62z"/>
   <path class="fil15" d="M1290 1303c5,28 4,66 -18,75 -22,10 -148,52 -185,59 3,6 8,9 12,9 23,1 179,-52 202,-63 34,-15 4,-72 -11,-80z"/>
   <path class="fil14" d="M718 1483c-16,8 -65,-46 -58,-59 6,-12 109,-123 128,-130 13,-5 71,14 56,52 -10,24 -98,124 -126,137z"/>
   <path class="fil15" d="M848 1294c-7,1 -15,23 -19,32 -9,24 -94,134 -121,147 -8,4 -24,-7 -37,-22 14,20 38,42 48,37 28,-14 117,-116 127,-140 6,-17 14,-45 2,-54z"/>
   <polygon class="fil27" points="1026,1527 767,1520 878,1548 1021,1538 "/>
   <polygon class="fil28" points="1026,1527 871,1538 889,1550 1030,1541 "/>
   <path class="fil29" d="M722 1275c-20,-16 -306,-8 -319,7 -14,16 153,268 153,268l333 0c0,0 -147,-260 -167,-275z"/>
   <path class="fil30" d="M517 1461c0,-89 87,-163 206,-185 0,-1 -1,-1 -1,-1 -20,-16 -306,-8 -319,7 -10,12 71,142 119,216 -3,-12 -5,-25 -5,-37z"/>
   <path class="fil28" d="M722 1275c-8,-7 -58,-9 -116,-9 52,0 94,3 102,9 20,15 166,275 166,275l18 0c0,0 -150,-260 -170,-275z"/>
   <path class="fil11" d="M1230 1648c-2,-12 -13,-30 -37,-34 -24,-4 -46,2 -35,6 40,16 45,56 51,106 11,0 22,-65 21,-78z"/>
   <polygon class="fil11" points="763,1773 730,1683 885,1687 897,1773 "/>
   <path class="fil31" d="M979 1416c0,-7 -3,-13 -7,-13 -5,0 -9,5 -9,12 -1,7 2,13 7,13 4,1 8,-5 9,-12z"/>
   <path class="fil31" d="M991 1347c0,-7 -3,-13 -7,-13 -5,-1 -9,5 -9,12 -1,7 2,13 7,13 4,1 8,-5 9,-12z"/>
   <polygon class="fil32" points="971,1002 971,998 971,1002 "/>
   <path class="fil33" d="M1007 1118c0,0 0,0 0,0 -11,-1 -20,-5 -28,-11l-8 -105 0 0 0 0c1,0 2,-1 3,-1l31 41 13 -11 6 10 -17 77zm24 0l11 -82 6 -4 0 -2 9 10 31 -17 -34 89c-8,3 -15,5 -23,6z"/>
   <path class="fil34" d="M1025 1119l12 -79 5 -4 -11 82c-2,0 -4,0 -6,1z"/>
   <path class="fil34" d="M1005 1042l-31 -41c0,0 0,0 0,0l0 0 6 -1 25 34 12 -13 -2 6 3 4 -13 11zm52 -2l-9 -10 1 -11 8 10 35 -16 -4 10 -31 17z"/>
   <path class="fil35" d="M1017 1119c-3,0 -7,0 -10,-1l17 -77 4 6 9 -7 -12 79c-3,0 -5,0 -8,0z"/>
   <path class="fil36" d="M1140 1011c0,0 0,0 0,0l1 -1 -1 1z"/>
   <path class="fil37" d="M1099 1091l41 -80c0,0 0,0 0,0l0 0c13,1 28,2 40,3 -14,24 -45,55 -81,77z"/>
   <path class="fil32" d="M934 1012l-1 -2 1 2c0,0 0,0 0,0z"/>
   <path class="fil37" d="M938 1035c-4,-13 -5,-23 -4,-23l0 0c0,0 0,0 0,0l4 23z"/>
   <polygon class="fil36" points="1141,1010 1110,1004 1110,1004 "/>
   <path class="fil38" d="M1054 1112l34 -89 4 -10 18 -9 31 6 -1 1 -41 80c-15,9 -30,17 -45,21z"/>
   <path class="fil38" d="M979 1107c-22,-17 -35,-49 -41,-72l-4 -23 -1 -2 38 -12 0 4 8 105z"/>
   <polygon class="fil35" points="1028,1047 1024,1041 1018,1031 1015,1027 1017,1021 1036,1003 1049,1019 1048,1030 1048,1032 1042,1036 1037,1040 "/>
   <polygon class="fil33" points="1005,1034 980,1000 980,1000 977,996 982,984 992,986 1035,995 1030,995 1036,1003 1017,1021 "/>
   <polygon class="fil33" points="1057,1029 1049,1019 1036,1003 1030,995 1035,995 1102,989 1109,988 1114,1002 1110,1004 1110,1004 1110,1004 1092,1013 "/>
   <path class="fil39" d="M641 1415c-7,-15 -24,-26 -37,-26 -13,1 -18,14 -11,28 8,15 24,27 37,26 13,-1 18,-13 11,-28z"/>
   <path class="fil28" d="M599 1422c-8,-15 -3,-28 10,-28 7,-1 14,2 21,7 -8,-8 -18,-12 -26,-12 -13,1 -18,14 -11,28 4,8 10,14 17,19 -5,-4 -9,-9 -11,-14z"/>
   <path class="fil19" d="M1085 1234c0,0 23,-29 33,-27 9,1 22,35 22,35l-55 -8z"/>
   <polygon class="fil24" points="1080,1232 1146,1238 1138,1257 1079,1246 "/>
   <polygon class="fil15" points="890,1220 921,1333 893,1288 "/>
   <path class="fil1" d="M1847 1115c36,-57 69,-214 69,-283 -1,-16 -3,-27 -7,-32 -35,-38 -411,-39 -442,-17 -44,33 -57,260 -36,295 32,54 387,81 416,37z"/>
   <polygon class="fil1" points="1499,1009 1221,924 1505,945 "/>
   <path class="fil1" d="M424 974c3,-15 -6,-29 -20,-32 -15,-4 -29,6 -33,20 -3,15 6,29 21,32 14,3 29,-6 32,-20z"/>
   <polygon class="fil40" points="530,750 524,797 653,964 788,871 649,688 "/>
   <polygon class="fil41" points="500,766 654,961 788,871 649,688 "/>
   <path class="fil42" d="M704 773c18,19 47,56 64,71l-119 -156 -149 78 16 20c8,-8 59,-54 112,-55 26,-1 51,14 76,42z"/>
   <polygon class="fil43" points="613,874 643,855 646,858 615,877 "/>
   <polygon class="fil43" points="578,830 597,818 599,821 581,834 "/>
   <polygon class="fil43" points="600,815 605,812 608,816 603,819 "/>
   <polygon class="fil43" points="634,878 652,865 656,868 637,881 "/>
   <polygon class="fil43" points="682,851 659,866 655,863 679,847 "/>
   <polygon class="fil43" points="685,849 682,845 691,839 696,841 "/>
   <polygon class="fil43" points="633,883 624,889 622,885 631,880 "/>
   <polygon class="fil43" points="668,828 641,845 638,842 665,825 "/>
   <polygon class="fil43" points="620,854 635,844 638,848 623,858 "/>
   <polygon class="fil43" points="617,856 620,860 608,866 606,863 "/>
   <polygon class="fil43" points="660,781 644,792 641,789 657,779 "/>
   <polygon class="fil43" points="623,801 637,791 641,794 626,804 "/>
   <polygon class="fil43" points="620,803 623,806 611,813 609,810 "/>
   <polygon class="fil43" points="638,743 622,753 619,750 635,740 "/>
   <polygon class="fil43" points="600,762 615,752 618,756 604,766 "/>
   <polygon class="fil43" points="597,764 601,768 589,774 586,771 "/>
   <polygon class="fil43" points="650,885 673,869 677,873 654,888 "/>
   <polygon class="fil43" points="698,859 680,871 676,867 694,855 "/>
   <polygon class="fil43" points="648,887 651,890 633,902 630,898 648,887 "/>
   <polygon class="fil43" points="701,857 697,853 708,846 714,849 "/>
   <polygon class="fil43" points="551,794 580,775 583,778 553,797 "/>
   <polygon class="fil43" points="571,798 590,785 593,788 574,801 "/>
   <polygon class="fil43" points="620,771 596,786 593,783 616,767 "/>
   <polygon class="fil43" points="623,769 619,765 629,759 634,762 "/>
   <polygon class="fil43" points="571,803 562,809 560,806 568,800 "/>
   <polygon class="fil43" points="606,748 579,765 576,762 603,745 "/>
   <polygon class="fil43" points="558,774 572,765 575,768 561,778 "/>
   <polygon class="fil43" points="555,776 558,780 546,786 543,784 "/>
   <polygon class="fil43" points="588,805 611,790 615,793 592,808 "/>
   <polygon class="fil43" points="636,779 618,791 614,788 632,775 "/>
   <polygon class="fil43" points="585,807 589,810 570,822 568,818 585,807 "/>
   <polygon class="fil43" points="639,777 635,773 646,766 652,769 "/>
   <polygon class="fil43" points="600,832 619,819 622,822 603,835 "/>
   <polygon class="fil43" points="635,813 625,820 622,817 632,809 "/>
   <polygon class="fil43" points="641,809 637,806 658,793 663,795 "/>
   <polygon class="fil43" points="600,837 590,843 588,839 597,834 "/>
   <polygon class="fil43" points="613,840 634,825 638,829 616,843 "/>
   <polygon class="fil43" points="658,816 641,827 637,824 655,812 "/>
   <polygon class="fil43" points="610,842 613,845 596,856 594,853 610,842 "/>
   <polygon class="fil43" points="661,814 657,810 668,803 673,806 "/>
   <polygon class="fil44" points="649,688 568,730 648,691 697,750 "/>
   <g>
    <path class="fil3" d="M253 1177c-34,-20 -63,-93 -21,-139 0,0 -60,36 -51,78 8,42 72,61 72,61z"/>
    <path class="fil3" d="M484 1022c16,18 19,66 -15,85 0,0 42,-9 45,-36 4,-26 -30,-49 -30,-49z"/>
   </g>
   <path class="fil0" d="M522 763c0,-11 -8,-19 -19,-19 -10,0 -19,8 -19,19 0,10 9,19 19,19 11,0 19,-9 19,-19z"/>
   <polygon class="fil1" points="421,914 403,871 474,903 "/>
   <polygon class="fil1" points="483,807 502,850 431,817 "/>
   <polygon class="fil1" points="421,883 454,823 484,835 450,898 "/>
   <g>
    <path class="fil0" d="M848 88l4 -6c9,6 19,12 28,19l-4 5c-9,-6 -18,-12 -28,-18z"/>
    <path class="fil0" d="M926 149c-2,-2 -10,-10 -24,-22l4 -6c15,12 23,21 25,23l-5 5z"/>
    <polygon class="fil0" points="947,136 949,135 952,141 951,142 "/>
    <path class="fil0" d="M976 116c9,-6 19,-12 28,-18l3 6c-9,6 -18,12 -27,18l-4 -6z"/>
    <path class="fil45" d="M662 326c0,160 130,290 290,290 161,0 290,-130 290,-290 0,-161 -129,-291 -290,-291 -160,0 -290,130 -290,291z"/>
    <path class="fil1" d="M975 439c-142,0 -262,-85 -300,-202 -8,28 -13,58 -13,89 0,160 130,290 290,290 161,0 290,-130 290,-290 0,-8 0,-15 0,-22 -55,81 -154,135 -267,135z"/>
    <path class="fil46" d="M692 326c0,143 117,259 260,259 144,0 260,-116 260,-259 0,-144 -116,-260 -260,-260 -143,0 -260,116 -260,260z"/>
    <path class="fil47" d="M702 332c0,139 112,251 250,251 138,0 251,-112 251,-251 0,-138 -113,-250 -251,-250 -138,0 -250,112 -250,250z"/>
    <path class="fil48" d="M967 408c-115,0 -212,-78 -241,-183 -15,32 -24,69 -24,107 0,139 112,251 250,251 138,0 251,-112 251,-251 0,-23 -4,-45 -10,-67 -40,85 -126,143 -226,143z"/>
    <path class="fil49" d="M952 571c-137,0 -248,-110 -250,-246 0,2 0,5 0,7 0,139 112,251 250,251 138,0 251,-112 251,-251 0,-2 -1,-4 -1,-7 -2,136 -113,246 -250,246z"/>
    <path class="fil50" d="M1094 165c4,-9 -8,-26 -28,-38 -20,-12 -40,-15 -45,-6 -4,9 8,25 28,37 20,13 40,15 45,7z"/>
    <path class="fil50" d="M998 111c0,-4 -8,-9 -18,-11 -10,-2 -18,1 -19,5 0,4 8,9 18,10 10,2 18,0 19,-4z"/>
   </g>
   <g>
    <polygon class="fil0" points="198,136 199,135 203,141 202,142 "/>
    <path class="fil0" d="M227 116c9,-6 19,-12 28,-18l3 6c-9,6 -18,12 -28,18l-3 -6z"/>
    <path class="fil51" d="M0 326c0,160 130,290 290,290 161,0 291,-130 291,-290 0,-161 -130,-291 -291,-291 -160,0 -290,130 -290,291z"/>
    <path class="fil46" d="M31 326c0,143 116,259 259,259 144,0 260,-116 260,-259 0,-144 -116,-260 -260,-260 -143,0 -259,116 -259,260z"/>
    <path class="fil47" d="M40 332c0,139 112,251 250,251 139,0 251,-112 251,-251 0,-138 -112,-250 -251,-250 -138,0 -250,112 -250,250z"/>
    <path class="fil48" d="M306 408c-116,0 -212,-78 -242,-183 -15,32 -24,69 -24,107 0,139 112,251 250,251 139,0 251,-112 251,-251 0,-23 -3,-45 -9,-67 -41,85 -127,143 -226,143z"/>
    <path class="fil49" d="M290 571c-137,0 -248,-110 -250,-246 0,2 0,5 0,7 0,139 112,251 250,251 139,0 251,-112 251,-251 0,-2 0,-4 0,-7 -3,136 -114,246 -251,246z"/>
    <path class="fil50" d="M443 165c5,-9 -8,-26 -28,-38 -20,-12 -40,-15 -44,-6 -5,9 7,25 27,37 21,13 41,15 45,7z"/>
    <path class="fil50" d="M347 111c1,-4 -7,-9 -17,-11 -10,-2 -19,1 -19,5 -1,4 7,9 17,10 10,2 19,0 19,-4z"/>
   </g>
   <g>
    <path class="fil48" d="M1763 1047l0 0c-3,4 -7,7 -11,9 -4,3 -11,6 -16,3 1,-1 2,-4 1,-7 -2,-3 -3,-6 -3,-10 0,-1 1,-3 2,-4 2,-2 2,-4 2,-5 0,-1 1,-1 2,-1 7,-2 17,0 22,5 1,1 2,2 3,4 -2,1 -3,3 -2,6zm31 22c-6,-6 -12,-13 -14,-21 1,-5 1,-11 -2,-16 -7,-13 -26,-18 -40,-15 -13,3 -18,11 -19,20 -4,8 -5,17 -2,25 5,11 18,14 29,12 8,-1 16,-5 23,-11 4,5 8,11 13,16 7,7 19,-3 12,-10z"/>
    <path class="fil48" d="M1681 1022c3,0 6,4 6,7 0,5 -10,3 -16,2 2,-5 6,-8 10,-9zm20 32c-11,5 -26,6 -32,-5 -1,-1 -1,-3 -1,-4 14,3 32,2 34,-15 2,-12 -11,-23 -23,-22 -19,2 -29,29 -25,44 7,21 34,24 53,15 9,-5 2,-18 -6,-13z"/>
    <path class="fil48" d="M1649 975c2,-7 -12,-6 -14,0 -6,16 -7,32 -7,48 -4,10 -10,19 -20,24 -8,5 -15,4 -11,-6 3,-9 12,-15 21,-14 9,1 10,-13 1,-14 -15,-1 -29,8 -35,22 -5,10 -5,24 9,28 14,4 27,-5 37,-16 0,4 1,7 1,11 1,9 16,6 14,-3 -6,-38 -1,-59 4,-80z"/>
    <path class="fil48" d="M1559 992c-1,1 -1,2 -2,2 -2,4 -1,8 2,10 3,2 7,1 9,-2 1,-1 2,-2 2,-3 2,-3 1,-7 -2,-9 -3,-2 -7,-1 -9,2z"/>
    <path class="fil48" d="M1553 1024c-4,12 -6,22 -4,34 1,9 15,6 13,-2 -1,-10 1,-19 5,-28 3,-8 -11,-12 -14,-4z"/>
    <path class="fil48" d="M1763 847c-16,19 -24,42 -31,64 -3,5 -7,9 -12,11 -4,2 -15,1 -16,3 4,-6 14,-12 21,-13 10,-1 7,-15 -3,-14 -11,1 -26,11 -31,21 -9,15 11,20 23,19 4,0 8,-1 12,-3 -1,6 -3,11 -4,16 -3,9 12,14 14,4 11,-39 26,-80 41,-103 5,-7 -9,-12 -14,-5z"/>
    <path class="fil48" d="M1660 919c-2,1 -4,2 -6,3 -3,1 -9,5 -12,3 -2,-1 -1,-6 -1,-7 1,-4 3,-8 6,-11 3,-3 2,-7 0,-10 2,1 4,1 5,2 4,2 6,4 8,7 4,5 4,9 0,13zm16 -16c-4,-11 -17,-19 -29,-20 -17,-2 -25,15 -25,28 0,4 2,6 5,7 -1,3 -1,7 0,10 2,6 5,9 11,11 6,2 13,-1 20,-4 15,-5 24,-17 18,-32z"/>
    <path class="fil48" d="M1601 902c-3,4 -9,7 -14,9 -5,2 -10,4 -10,-2 0,-2 0,-3 1,-5 3,0 7,-2 7,-6 1,-3 1,-5 2,-7 0,-2 0,-1 0,-2 1,0 1,-1 2,-2 0,0 1,-1 0,0 0,0 1,0 1,-1l0 0c0,0 1,0 1,0l0 0c0,0 1,0 2,0 5,1 9,5 10,10 0,2 0,4 -2,6zm-4 -29c-8,-2 -14,1 -19,6 -1,1 -2,1 -4,3 -6,8 -11,18 -11,28 0,10 6,18 17,17 9,-1 21,-6 28,-13 6,-4 9,-11 9,-18 0,-11 -9,-21 -20,-23z"/>
    <path class="fil48" d="M1545 864c-6,7 5,14 11,7 8,-10 36,-49 14,-56 -11,-3 -25,6 -34,12 -10,8 -18,18 -23,28 -10,17 -18,42 -10,60 7,15 23,10 36,2 0,3 -2,5 -3,8 -5,7 6,14 11,7 6,-10 9,-18 9,-29 0,-6 -7,-9 -12,-5 -6,5 -26,22 -30,7 -3,-12 2,-26 7,-37 6,-14 16,-26 30,-35 2,-1 12,-7 12,-4 0,4 -2,8 -3,11 -4,9 -10,17 -15,24z"/>
   </g>
   <g>
    <path class="fil0" d="M1598 88l3 -6c9,6 19,12 28,19l-4 5c-9,-6 -18,-12 -27,-18z"/>
    <path class="fil0" d="M1676 149c-2,-2 -11,-10 -25,-22l4 -6c15,12 23,21 25,23l-4 5z"/>
    <path class="fil52" d="M1320 326c0,160 130,290 290,290 160,0 290,-130 290,-290 0,-161 -130,-291 -290,-291 -160,0 -290,130 -290,291z"/>
    <path class="fil53" d="M1632 439c-142,0 -261,-85 -299,-202 -8,28 -13,58 -13,89 0,160 130,290 290,290 160,0 290,-130 290,-290 0,-8 0,-15 0,-22 -55,81 -154,135 -268,135z"/>
    <path class="fil46" d="M1350 326c0,143 117,259 260,259 143,0 260,-116 260,-259 0,-144 -117,-260 -260,-260 -143,0 -260,116 -260,260z"/>
    <path class="fil47" d="M1360 332c0,139 112,251 250,251 138,0 250,-112 250,-251 0,-138 -112,-250 -250,-250 -138,0 -250,112 -250,250z"/>
    <path class="fil48" d="M1625 408c-115,0 -212,-78 -241,-183 -16,32 -24,69 -24,107 0,139 112,251 250,251 138,0 250,-112 250,-251 0,-23 -3,-45 -9,-67 -40,85 -126,143 -226,143z"/>
    <path class="fil49" d="M1610 571c-137,0 -248,-110 -250,-246 0,2 0,5 0,7 0,139 112,251 250,251 138,0 250,-112 250,-251 0,-2 0,-4 0,-7 -2,136 -113,246 -250,246z"/>
    <path class="fil50" d="M1746 165c5,-9 -8,-26 -28,-38 -20,-12 -40,-15 -45,-6 -4,9 8,25 28,37 20,13 40,15 45,7z"/>
    <path class="fil50" d="M1650 111c0,-4 -8,-9 -18,-11 -10,-2 -18,1 -19,5 0,4 8,9 18,10 10,2 18,0 19,-4z"/>
   </g>
<g id="SSS" stroke="none" stroke-width="1" fill="none" fill-rule="evenodd">
   <g id="SS1" stroke="none" stroke-width="1" fill="none" fill-rule="evenodd">
   <path class="fil54" d="M1449 307l0 -28c0,-10 6,-17 16,-17l16 0 0 -15 26 0 0 15 32 0 0 16 -6 18 -42 0 0 6 37 25c9,6 11,12 11,23l0 31c0,9 -7,16 -17,16l-15 0 0 15 -26 0 0 -15 -32 0 0 -34 48 0 0 -8 -37 -25c-9,-6 -11,-12 -11,-23z"/>
   </g>
   <g id="SS2" stroke="none" stroke-width="1" fill="none" fill-rule="evenodd">
   <path class="fil54" d="M1573 307l0 -28c0,-10 7,-17 17,-17l15 0 0 -15 26 0 0 15 33 0 0 16 -7 18 -42 0 0 6 37 25c9,6 12,12 12,23l0 31c0,9 -7,16 -17,16l-16 0 0 15 -26 0 0 -15 -32 0 0 -34 48 0 0 -8 -37 -25c-9,-6 -11,-12 -11,-23z"/>
   </g>
   <g id="SS3" stroke="none" stroke-width="1" fill="none" fill-rule="evenodd">
   <path class="fil54" d="M1697 307l0 -28c0,-10 7,-17 17,-17l15 0 0 -15 27 0 0 15 32 0 0 16 -7 18 -41 0 0 6 36 25c10,6 12,12 12,23l0 31c0,9 -7,16 -17,16l-15 0 0 15 -27 0 0 -15 -32 0 0 -34 48 0 0 -8 -36 -25c-10,-6 -12,-12 -12,-23z"/>
    </g>
</g>  
  <g id="setting" stroke="none" stroke-width="1" fill="none" fill-rule="evenodd">
  <g id="setting1" stroke="none" stroke-width="1" fill="none" fill-rule="evenodd">
   <path class="fil55" d="M887 205c29,-10 61,6 71,34 10,29 -7,60 -36,69 -30,9 -62,-6 -71,-35 -10,-29 6,-59 36,-68zm66 126c1,-1 3,-2 5,-4l0 0c2,-1 3,-2 5,-4l0 0c3,-2 6,-5 9,-8l24 1 12 -23 -17 -18c0,-2 1,-4 1,-6 0,0 0,0 0,-1 0,-2 0,-3 0,-5l0 0c0,-2 1,-4 0,-7l0 0c0,-2 0,-4 0,-6l0 0 19 -16 -8 -25 -26 -1c-1,-2 -3,-3 -4,-5l0 0c-1,-1 -2,-3 -3,-4l-1 -1c-2,-2 -5,-5 -8,-8l2 -25 -24 -12 -19 17c-2,0 -3,0 -5,-1 -1,0 -1,0 -1,0 -4,0 -8,-1 -12,-1l0 0c-2,0 -4,0 -6,1l-17 -19 -24 8 -2 25c-1,1 -2,2 -4,3 0,1 -1,1 -1,1 -1,1 -2,2 -4,3l0 1c-3,2 -6,5 -8,8l0 0 -26 -2 -12 23 19 21 0 0c-1,7 -1,13 0,20l-22 19 8 24 30 2c4,5 8,10 12,14l-2 29 24 11 20 -18 0 0c7,2 15,2 22,2l18 20 24 -8 2 -25 0 0z"/>
   </g>
   <g id="setting2" stroke="none" stroke-width="1" fill="none" fill-rule="evenodd">
   <path class="fil55" d="M1061 339l1 0c0,0 1,0 1,1l1 0c0,0 1,0 1,1l0 0c1,0 2,1 2,1l0 0c1,1 1,1 2,1 9,10 9,24 0,34 -9,9 -24,9 -34,0 -9,-9 -9,-24 0,-33 1,-1 1,-1 2,-2 0,0 1,0 1,0 0,-1 1,-1 1,-1 0,0 1,-1 1,-1 0,0 0,0 1,0 0,-1 1,-1 1,-1 0,0 1,0 1,0 0,-1 1,-1 1,-1 0,0 1,0 1,0 0,0 1,0 1,-1 0,0 1,0 1,0 0,0 1,0 1,0 1,0 1,0 1,0 1,0 1,0 2,0l0 0c1,0 1,0 2,0l0 0c1,0 2,0 2,0l1 0c0,0 1,0 1,0l1 0c0,1 1,1 1,1l1 0c0,0 1,0 1,1zm-32 77l2 1 11 -10 1 0c3,1 7,1 11,1l10 11 13 -4 1 -15 0 0c1,-1 2,-2 3,-3l1 0c1,-1 3,-2 4,-3 0,-1 1,-1 1,-2l14 1 6 -12 -9 -10c0,-1 1,-1 1,-1 0,-1 0,-1 0,-2 0,-1 0,-2 0,-2 0,-1 0,-1 0,-2 1,-1 1,-3 1,-4 0,0 0,-1 0,-2 0,0 0,-1 -1,-1l10 -9 -4 -13 -13 -1c-1,-1 -2,-3 -4,-5l0 0c-1,-1 -1,-2 -2,-3 -2,-1 -3,-2 -4,-3l1 -12 -13 -6 -9 8c-2,0 -3,0 -4,0 -1,0 -1,0 -2,0 -1,0 -1,0 -2,0 -1,0 -1,0 -2,0 -1,0 -2,0 -3,0 0,0 -1,0 -1,0l0 0 -9 -10 -13 4 -1 15c-1,0 -1,1 -1,1 -1,0 -1,0 -2,1 -1,1 -2,2 -3,3 -1,1 -2,2 -2,3l-16 -1 -6 12 11 12c0,1 0,1 0,1 0,1 0,2 0,3 -1,1 -1,1 -1,2 0,1 0,2 0,3 0,0 0,0 0,1l-12 10 5 14 16 0c0,1 1,1 1,2 1,1 1,1 1,2 1,1 2,2 3,3 1,0 1,1 1,1l-1 16 11 5z"/>
</g>
<g id="setting3" stroke="none" stroke-width="1" fill="none" fill-rule="evenodd">
   <path class="fil55" d="M990 474c-4,-7 -2,-15 4,-19 1,-1 2,-1 3,-1 0,-1 1,-1 1,-1 0,0 1,0 1,0 1,0 1,0 2,0 0,0 1,0 1,0 0,0 1,0 1,0 1,0 1,0 2,0 0,0 0,0 1,0 0,0 1,1 1,1 0,0 1,0 1,0 1,0 1,1 1,1 1,0 1,0 1,1 1,0 1,0 1,0 1,1 1,1 1,2 1,0 1,0 1,1 4,6 3,15 -4,19 -6,4 -15,2 -19,-4zm21 19l0 -1c1,0 2,0 2,0l1 -1c1,0 2,-1 3,-1 0,0 0,-1 1,-1l8 3 5 -7 -4 -7 0 0c1,-1 1,-2 1,-3l0 -1c1,-1 1,-2 1,-3l0 0 7 -4 -1 -8 -1 0 0 0 -6 -2c0,-1 -1,-2 -1,-3l0 0c-1,-1 -1,-2 -2,-3 0,0 -1,-1 -1,-2l2 -7 -6 -5 -7 4c-1,-1 -2,-1 -4,-1l0 -1c-1,0 -3,0 -4,0l0 0 -4 -7 -8 1 -2 8c-1,0 -1,0 -1,0 0,0 -1,0 -1,1 -1,0 -1,0 -2,1 -1,0 -1,1 -2,1l-9 -2 -5 6 5 8 0 1c-1,0 -1,1 -1,1 0,1 0,1 0,1 0,1 0,1 -1,2l0 1 -8 4 1 8 9 3c0,0 0,1 0,1 0,0 1,1 1,1 0,1 1,2 1,2l1 1 -3 9 5 4 1 1 8 -4 0 0c2,1 4,1 6,2l4 7 1 0 8 0 2 -8z"/>
</g>  
</g> 
   <path class="fil56" d="M1096 919c13,-66 74,-134 50,-142 -14,-2 -11,-25 -8,-32 3,-7 31,-65 18,-70 -6,-3 -11,-1 -16,1 -5,2 -10,5 -12,0 -5,-9 5,-41 -9,-45 -27,-8 -15,-31 -26,-40 -13,-11 -41,-25 -55,-7 0,0 2,-59 -31,-49 -32,9 -36,40 -36,59 0,0 -35,10 -31,59 0,0 -26,90 9,114 0,0 -5,60 20,77 24,17 103,144 127,75z"/>
   <path class="fil57" d="M1146 777c-14,-2 -11,-25 -8,-32 3,-7 31,-65 18,-70 -6,-3 -11,-1 -16,1 -5,2 -10,5 -12,0 -4,-7 1,-25 -2,-36 -11,35 -81,26 -98,-4 -13,16 -33,17 -44,11 -32,0 -30,63 -51,39 -4,28 -5,66 16,81 0,0 -5,60 20,77 24,17 103,144 127,75 13,-66 74,-134 50,-142z"/>
   <polygon class="fil36" points="1102,989 1102,989 1109,988 "/>
   <polygon class="fil32" points="992,986 982,984 992,986 "/>
   <polygon class="fil58" points="1035,995 992,986 992,986 1001,943 1097,874 1102,989 1102,989 "/>
   <path class="fil25" d="M972 969c6,11 85,8 94,-1 10,-8 38,-124 40,-134 1,-10 -11,-141 -27,-152 -16,-11 -101,-25 -107,-7 -7,19 -7,111 -8,126 -1,37 2,156 8,168z"/>
   <path class="fil57" d="M1099 691c-32,0 3,111 -19,202 -5,19 0,22 9,16 16,-12 27,-70 27,-70 0,0 15,-149 -17,-148z"/>
   <path class="fil25" d="M1096 869c11,-24 45,-40 46,-10 1,26 -22,39 -43,48 -12,6 -14,-15 -3,-38z"/>
   <path class="fil59" d="M1099 874c7,-15 28,-24 28,-6 1,16 -13,24 -26,30 -8,3 -9,-9 -2,-24z"/>
   <path class="fil25" d="M1097 887c4,-9 16,-14 16,-3 0,9 -8,14 -15,17 -5,2 -5,-6 -1,-14z"/>
   <path class="fil25" d="M1019 894c0,0 -38,3 -39,-2 -1,-4 31,-81 31,-81l8 83z"/>
   <path class="fil59" d="M984 891c-1,-3 20,-52 28,-72l-1 -8c0,0 -32,77 -31,81 1,5 39,2 39,2l0 0c-10,0 -34,1 -35,-3z"/>
   <path class="fil60" d="M993 816c0,-9 -4,-15 -8,-15 -5,0 -9,6 -9,15 0,10 4,18 9,18 4,0 8,-8 8,-18z"/>
   <path class="fil60" d="M1051 816c0,-9 -4,-15 -9,-15 -4,0 -8,6 -8,15 0,10 4,18 8,18 5,0 9,-8 9,-18z"/>
   <path class="fil56" d="M967 790c2,1 34,1 36,-3 2,-4 4,-19 -1,-21 -8,-3 -34,11 -35,13 -1,2 -3,9 0,11z"/>
   <path class="fil56" d="M1065 786c-2,1 -38,2 -40,-2 -2,-4 -5,-19 1,-21 8,-3 38,10 39,12 1,2 4,8 0,11z"/>
   <path class="fil61" d="M989 909l57 -8c0,0 0,42 -31,42 -27,0 -26,-34 -26,-34z"/>
   <path class="fil62" d="M1040 922c4,-10 5,-19 5,-19l-54 7 3 14 46 -2z"/>
   <path class="fil59" d="M1028 947c0,-1 -5,0 -10,0 -6,0 -11,0 -11,1 0,2 5,4 11,4 6,0 10,-3 10,-5z"/>
   <path class="fil57" d="M1078 682c-5,15 -29,10 -29,10 24,18 39,9 47,-2l-18 -8z"/>
   <path class="fil57" d="M1079 671c-12,12 -35,5 -35,5 17,16 37,12 50,4l-15 -9z"/>
   <path class="fil57" d="M975 623c1,12 12,26 29,23 17,-3 29,-22 33,-49 0,0 6,67 -34,65 -33,-2 -28,-39 -28,-39z"/>
   <path class="fil57" d="M1096 595c2,17 -8,36 -25,34 0,0 16,14 48,2 -20,-4 -12,-23 -23,-36z"/>
   <path class="fil63" d="M287 228c52,0 95,44 95,98 0,55 -43,99 -95,99 -53,0 -95,-44 -95,-99 0,-54 42,-98 95,-98zm44 212l0 0 0 -1 0 0 0 0 -1 -1 0 0 0 0 0 0 0 -1 0 0 0 0 0 0c42,-18 72,-61 72,-111 0,-65 -52,-119 -115,-119 -64,0 -115,54 -115,119 0,51 31,95 74,112 0,0 0,0 0,1l0 0 0 1 0 0 0 0 0 0c-1,1 -1,1 -1,2 0,4 2,8 15,10 -8,2 -10,5 -10,8 0,3 2,7 12,8 0,1 1,1 1,1 -6,2 -7,4 -7,7 0,4 1,7 9,9 -3,2 -3,4 -3,6 0,5 1,8 13,10 2,5 7,11 13,11 5,0 10,-5 12,-11 13,-1 15,-5 15,-10 0,-2 -1,-4 -4,-6 8,-2 9,-5 9,-9 0,-3 -1,-5 -7,-7 1,0 1,0 1,-1 11,-1 12,-4 12,-8 0,-3 -1,-6 -10,-8 13,-2 15,-6 15,-10 0,-1 0,-1 0,-2l0 0 0 0 0 0 0 0z"/>
   <g id="line1" stroke="red" stroke-width="3.5" fill="none" fill-rule="evenodd">
   <path class="fil63" d="M389 420c10,14 39,42 42,35 3,-7 -42,-35 -42,-35z"/>
   
   <path class="fil63" d="M479 326c-3,-8 -56,-1 -56,-1 17,5 59,8 56,1z"/>
   <path class="fil63" d="M293 139c-7,3 -1,54 -1,54 5,-16 9,-57 1,-54z"/>
   <path class="fil63" d="M460 212c-7,-4 -42,34 -42,34 16,-7 50,-30 42,-34z"/>
   <path class="fil63" d="M183 238c-10,-13 -40,-40 -43,-33 -3,8 43,33 43,33z"/>
   <path class="fil63" d="M102 375c5,6 54,-16 54,-16 -18,1 -59,9 -54,16z"/>
   <path class="fil63" d="M171 477c8,2 31,-43 31,-43 -13,11 -39,42 -31,43z"/>
  </g>
  </g>
 </g>
</svg>
