<?xml version="1.0" encoding="UTF-8"?>
<svg width="84px" height="84px" viewBox="0 0 84 92" version="1.1" xmlns="http://www.w3.org/2000/svg" xmlns:xlink="http://www.w3.org/1999/xlink">
  <!-- Generator: Sketch 59.1 (86144) - https://sketch.com -->
  <title>Group@1x</title>
  <desc>Created with Sketch.</desc>
  <style>
    #ribbon {
      animation-name: rotato;
      animation-duration: 400ms;
            animation-timing-function: cubic-bezier(.21,-0.44,.79,1.45);
      animation-iteration-count: infinite;
      animation-direction: alternate;
      transform-origin: center;
    }

    @keyframes rotato {
    from{
   transform:rotate(345deg);
 }
    to{
   transform:rotate(365deg);
 }
    }
  </style>
  <style>
       #hex {
      animation: border 4s infinite linear;
      transform-origin: center;
       }
           @keyframes border {
    from{
   transform:rotate(0deg);
 }
    to{
   transform:rotate(365deg);
 }
    }
           #hat {
      animation-name: hat;
      animation-duration: 1000ms;
      animation-timing-function: cubic-bezier(.21,-0.44,.79,1.45);
      animation-iteration-count: infinite;
      animation-direction: alternate;
      transform-origin: center;
       }
           @keyframes hat {

        90% {
        transform: translate(0px,-5px);
      }
      100% {
        transform: translate( 0px,-5px);
      }
    }
   </style>

  <g id="Page-1" stroke="none" stroke-width="1" fill="none" fill-rule="evenodd">
    <g id="Group" transform="translate(0.696000, 0.688672)">
      <path
        d="M46.706,1.43732827 L77.141,18.8693283 C80.52218,20.8061734 82.608,24.4046955 82.608,28.3013283 L82.608,63.0163283 C82.608,66.9129611 80.52218,70.5114831 77.141,72.4483283 L46.706,89.8813283 C43.3596232,91.797766 39.2483768,91.797766 35.902,89.8813283 L5.467,72.4483283 C2.08582003,70.5114831 0,66.9129611 0,63.0163283 L0,28.3013283 C0,24.4046955 2.08582003,20.8061734 5.467,18.8693283 L35.902,1.43732827 C39.2483768,-0.479109423 43.3596232,-0.479109423 46.706,1.43732827 Z"
        id="a"
        fill="#fff"
        fill-rule="nonzero"></path>
      <path
        d="M46.458,1.87132827 C43.2653042,0.0426750667 39.3426958,0.0426750667 36.15,1.87132827 L5.715,19.3033283 C2.48959653,21.1511912 0.5,24.5840948 0.5,28.3013283 L0.5,63.0163283 C0.5,66.7343283 2.49,70.1663283 5.715,72.0143283 L36.15,89.4463283 C39.3426958,91.2749815 43.2653042,91.2749815 46.458,89.4463283 L76.893,72.0143283 C80.1184035,70.1664653 82.108,66.7335618 82.108,63.0163283 L82.108,28.3013283 C82.108,24.5843283 80.118,21.1513283 76.893,19.3033283 L46.458,1.87132827 Z"
        id="hex"
        stroke="#550BEB"></path>
      <path
        d="M59.304,35.4113283 C60.304,35.9113283 61.004,36.9113283 61.004,38.2113283 C61.004,39.5113283 60.404,40.5113283 59.404,41.1113283 L58.204,41.7113283 L58.204,53.5613283 C58.204,53.9364572 58.0038712,54.2830906 57.679,54.470655 C57.3541289,54.6582195 56.9538711,54.6582195 56.629,54.470655 C56.3041288,54.2830906 56.104,53.9364572 56.104,53.5613283 L56.104,42.8113283 L43.004,49.6113283 C42.604,49.9113283 42.104,50.0113283 41.604,50.0113283 C41.104,50.0113283 40.604,49.9113283 40.204,49.7113283 L24.404,42.3113283 C24.304,42.2113283 24.104,42.2113283 24.004,42.1113283 L23.904,42.0113283 C22.904,41.4113283 22.304,40.4113283 22.304,39.1113283 C22.304,37.8113283 22.904,36.8113283 23.904,36.2113283 L40.204,27.7113283 C40.604,27.4113283 41.104,27.3113283 41.604,27.3113283 C42.104,27.3113283 42.604,27.5113283 43.004,27.7113283 L58.804,35.1113283 C58.904,35.2113283 59.104,35.2113283 59.204,35.3113283 L59.304,35.4113283 Z"
        id="hat"
        fill="#550BEB"
        fill-rule="nonzero"></path>
      <path
        d="M49.304,61.2733283 L49.304,61.2733283 C49.304,62.7193283 49.023,63.9493283 48.554,65.0333283 C48.461,65.2143283 48.274,65.3413283 48.067,65.3053283 C45.894,64.9793283 43.796,64.0753283 42.559,62.8823283 C42.4732933,62.8006493 42.3593937,62.7551611 42.241,62.7553283 L40.367,62.7553283 C40.2483447,62.7537735 40.1339405,62.7994632 40.049,62.8823283 C38.812,64.0753283 36.714,64.9793283 34.541,65.3053283 C34.334,65.3233283 34.128,65.2153283 34.053,65.0343283 C33.585,63.9493283 33.304,62.7193283 33.304,61.2733283 L33.379,61.2733283 L33.379,61.2733283 L33.304,61.2733283 C33.304,60.0073283 33.585,58.6333283 34.054,57.5663283 C34.128,57.3863283 34.334,57.2963283 34.541,57.3133283 C36.714,57.6573283 38.812,58.5613283 40.067,59.7543283 C40.1529567,59.8362467 40.2672608,59.8817534 40.386,59.8813283 L42.241,59.8813283 C42.3596553,59.882883 42.4740595,59.8371933 42.559,59.7543283 C43.796,58.5613283 45.913,57.6393283 48.067,57.3143283 C48.274,57.2953283 48.48,57.3863283 48.555,57.5663283 C49.023,58.6333283 49.304,60.0073283 49.304,61.2733283 L49.304,61.2733283 Z"
        id="ribbon"
        fill="#550BEB"
        fill-rule="nonzero"></path>
    </g>
  </g>
</svg>
