<?xml version="1.0" encoding="UTF-8"?>
<svg width="84px" height="84px" viewBox="0 0 84 92" version="1.1" xmlns="http://www.w3.org/2000/svg" xmlns:xlink="http://www.w3.org/1999/xlink">
  <!-- Generator: Sketch 59.1 (86144) - https://sketch.com -->
  <title>team@1x</title>
  <desc>Created with Sketch.</desc>
  <style>
    #likeleft {
      animation-name: moveleft;
      animation-duration: 400ms;
      animation-iteration-count: infinite;
      animation-direction: alternate;
      transform-origin: center;
      animation-timing-function: cubic-bezier(21,54,0.99,6);
    }

    #likeright {
      animation-name: moveright;
      animation-duration: 400ms;
      animation-iteration-count: infinite;
      animation-direction: alternate;
      transform-origin: 40% 30%;
        animation-timing-function: cubic-bezier(21,54,0.99,6);
    }

    
    #swoosh1 {
    stroke-width: 3px;
    stroke-dasharray: 23;
    stroke-dashoffset: 50;
    animation: offset 0.9s linear reverse;
    animation-iteration-count: infinite;
    animation-delay: 0.6s;
    }
    
        #swoosh2 {
    stroke-width: 3px;
    stroke-dasharray: 23;
    stroke-dashoffset: 50;
    animation: offset 0.9s linear reverse;
    animation-iteration-count: infinite;
    animation-delay: 0.6s;
    }
    
        #swoosh3 {
    stroke-width: 3px;
    stroke-dasharray: 23;
    stroke-dashoffset: 50;
    animation: offset 0.9s linear reverse;
    animation-iteration-count: infinite;
    animation-delay: 0.6s;
    }
        @keyframes offset {
      to {
        stroke-dashoffset: 0;
      }
    }

    @keyframes moveright {
      0% {
        transform: translate(0,0);
      }
      40% {
        transform: translate(0px,0px);
      }
        90% {
        transform: translate(8px,0px);
      }
      100% {
        transform: translate(8px,0px);
      }
    }

    @keyframes moveleft {
      0% {
        transform: translate(0,0);
      }
      40% {
        transform: translate(0px,0px);
      }
        90% {
        transform: translate(-8px,0px);
      }
      100% {
        transform: translate(-8px,0px);
      }
    }


           #Path {
      animation: Path 4s infinite linear;
      transform-origin: center;
       }
           @keyframes Path {
    from{
   transform:rotatez(0deg);
 }
    to{
   transform:rotatez(365deg);
 }
    }
  </style>
  <g id="Page-1" stroke="none" stroke-width="1" fill="none" fill-rule="evenodd">
    <g id="team">
      <path
        d="M47.402,2.126 L77.837,19.558 C81.21818,21.4948452 83.304,25.0933672 83.304,28.99 L83.304,63.705 C83.304,67.6016328 81.21818,71.2001548 77.837,73.137 L47.402,90.57 C44.0556232,92.4864377 39.9443768,92.4864377 36.598,90.57 L6.163,73.137 C2.78182003,71.2001548 0.696,67.6016328 0.696,63.705 L0.696,28.99 C0.696,25.0933672 2.78182003,21.4948452 6.163,19.558 L36.598,2.126 C39.9443768,0.209562309 44.0556232,0.209562309 47.402,2.126 Z"
        id="a"
        fill="#FFFFFF"
        fill-rule="nonzero"></path>
      <path
        d="M47.154,2.56 C43.9613042,0.731346799 40.0386958,0.731346799 36.846,2.56 L6.411,19.992 C3.18559653,21.8398629 1.196,25.2727665 1.196,28.99 L1.196,63.705 C1.196,67.423 3.186,70.855 6.411,72.703 L36.846,90.135 C40.0386958,91.9636532 43.9613042,91.9636532 47.154,90.135 L77.589,72.703 C80.8144035,70.8551371 82.804,67.4222335 82.804,63.705 L82.804,28.99 C82.804,25.273 80.814,21.84 77.589,19.992 L47.154,2.56 Z"
        id="Path"
        stroke="#550BEB"></path>
      <path
        d="M27.16,32 C29.285,32.064 29.93,33.5 29.93,36.637 L29.93,39.35 C29.93,40.274 30.668,41 31.607,41 L39.643,41 C40.948,41 41.998,42.033 41.998,43.317 C42.006,43.531 41.988,43.76 41.935,44 L38.641,56 C38.201,57.603 37.298,59.0000282 35.629,59.0000282 L24.788,59.0000282 C23.9901005,59.0034576 23.2236948,58.6889141 22.6582709,58.1259298 C22.0928469,57.5629455 21.775,56.797907 21.775,56 L21.775,44 C21.775,43.806 21.795,43.617 21.831,43.434 C23.293,38 22.695,40.4 24.147,35 C24.707,33.434 25.491,32 27.159,32 L27.16,32 Z M16.41,40.9999791 L17.614,40.9999791 C18.2522504,40.9973406 18.865272,41.2490225 19.3175244,41.6993984 C19.7697769,42.1497743 20.024,42.761744 20.024,43.4 L20.024,56.6 C20.024,57.238256 19.7697769,57.8502257 19.3175244,58.3006016 C18.865272,58.7509775 18.2522504,59.0026594 17.614,59.0000209 L16.41,59.0000209 C15.7717496,59.0026594 15.158728,58.7509775 14.7064756,58.3006016 C14.2542231,57.8502257 14,57.238256 14,56.6 L14,43.4 C14,42.761744 14.2542231,42.1497743 14.7064756,41.6993984 C15.158728,41.2490225 15.7717496,40.9973406 16.41,40.9999791 L16.41,40.9999791 Z"
        id="likeleft"
        fill="#550BEB"
        fill-rule="nonzero"></path>
      <path
        d="M56.84,32 C54.715,32.064 54.07,33.5 54.07,36.637 L54.07,39.35 C54.07,40.274 53.332,41 52.393,41 L44.357,41 C43.052,41 42.002,42.033 42.002,43.317 C41.994,43.531 42.012,43.76 42.065,44 L45.359,56 C45.799,57.603 46.702,59.0000282 48.371,59.0000282 L59.212,59.0000282 C60.0098995,59.0034576 60.7763052,58.6889141 61.3417291,58.1259298 C61.9071531,57.5629455 62.225,56.797907 62.225,56 L62.225,44 C62.225,43.806 62.205,43.617 62.169,43.434 C60.707,38 61.305,40.4 59.853,35 C59.293,33.434 58.509,32 56.841,32 L56.84,32 Z M67.59,40.9999791 L66.386,40.9999791 C65.7477496,40.9973406 65.134728,41.2490225 64.6824756,41.6993984 C64.2302231,42.1497743 63.976,42.761744 63.976,43.4 L63.976,56.6 C63.976,57.238256 64.2302231,57.8502257 64.6824756,58.3006016 C65.134728,58.7509775 65.7477496,59.0026594 66.386,59.0000209 L67.59,59.0000209 C68.2282504,59.0026594 68.841272,58.7509775 69.2935244,58.3006016 C69.7457769,57.8502257 70,57.238256 70,56.6 L70,43.4 C70,42.761744 69.7457769,42.1497743 69.2935244,41.6993984 C68.841272,41.2490225 68.2282504,40.9973406 67.59,40.9999791 Z"
        id="likeright"
        fill="#550BEB"
        fill-rule="nonzero"></path>
      <line x1="34" y1="32" x2="36" y2="36" id="swoosh1" stroke="#550BEB" stroke-width="2" stroke-linecap="round" stroke-linejoin="round"></line>
      <line x1="42" y1="31" x2="42" y2="35" id="swoosh2" stroke="#550BEB" stroke-width="2" stroke-linecap="round" stroke-linejoin="round"></line>
      <line x1="50" y1="33" x2="48" y2="36" id="swoosh3" stroke="#550BEB" stroke-width="2" stroke-linecap="round" stroke-linejoin="round"></line>
    </g>
  </g>
</svg>
