<?xml version="1.0" encoding="UTF-8"?>
<!DOCTYPE svg PUBLIC "-//W3C//DTD SVG 1.1//EN" "http://www.w3.org/Graphics/SVG/1.1/DTD/svg11.dtd">
<!-- Creator: CorelDRAW X7 -->
<svg xmlns="http://www.w3.org/2000/svg" xml:space="preserve" width="4.74887in" height="4.73838in" version="1.1" style="shape-rendering:geometricPrecision; text-rendering:geometricPrecision; image-rendering:optimizeQuality; fill-rule:evenodd; clip-rule:evenodd"
viewBox="0 0 284 283"
 xmlns:xlink="http://www.w3.org/1999/xlink">
 <defs>
  <style type="text/css">
   <![CDATA[
    .fil1 {fill:#2E0922}
    .fil0 {fill:#F13CB5}
   ]]>
  </style>
 </defs>
 <g id="Layer_x0020_1">
  <metadata id="CorelCorpID_0Corel-Layer"/>
  <g id="_2269462266336">
   <rect class="fil0" width="284" height="283" rx="23" ry="23"/>
   <rect class="fil1" x="12" y="12" width="260" height="259" rx="21" ry="21"/>
   <g>
    <path class="fil0" d="M200 112c-10,0 -14,0 -23,3 -19,8 -28,29 -24,52 6,36 44,37 66,25l-1 -26c0,-13 1,-75 0,-82 -3,0 -15,0 -18,0l0 28z"/>
    <path class="fil0" d="M65 197c3,1 16,0 20,0 3,-6 7,-15 10,-21l11 -22 1 2c7,13 13,28 20,41 4,0 18,1 21,0 0,-4 -25,-49 -28,-56 -2,-3 3,-10 5,-14l18 -35c2,-3 4,-5 4,-8l-20 0c-3,5 -7,15 -10,21 -3,7 -7,14 -10,21l-1 -2c-4,-7 -17,-36 -20,-40l-20 0c0,4 28,54 27,57 0,3 -28,52 -28,56z"/>
    <path class="fil1" d="M200 181l0 -52c-19,-5 -29,9 -29,26 0,20 12,32 29,26z"/>
   </g>
  </g>
 </g>
</svg>
